<ttFont>
          <CharString index="0">
            307 rmoveto
            115 hlineto
            16 11 -3 -12 6 hvcurveto
            8 -16 9 -39 0 vvcurveto
            43 4 rlineto
            -5 31 -3 43 21 vvcurveto
            22 3 44 5 33 vhcurveto
            -43 5 rlineto
            0 -9 -41 -8 -15 vhcurveto
            -13 -7 -10 -2 -16 hhcurveto
            -115 220 190 hlineto
            13 -15 15 -61 4 -22 46 8 rcurveline
            5 59 -4 47 51 vvcurveto
            -4 -29 -40 -2 -23 hhcurveto
            -246 hlineto
            -29 -49 5 5 -48 hvcurveto
            -9 -6 callgsubr
            39 -8 20 -10 vhcurveto
            15 -7 1 -13 callsubr
            -6 -15 -8 vhcurveto
            -19 -10 -40 -31 callgsubr
            return
          </CharString>
          <CharString index="1">
            467 321 -95 callsubr
            -230 vlineto
            -19 -25 -34 -17 -25 hhcurveto
            -46 -19 29 66 hvcurveto
            166 vlineto
            39 6 28 10 26 vhcurveto
            -20 23 rlineto
            -44 -95 -23 -20 -47 hvcurveto
            8 -40 rlineto
            -63 callgsubr
            return
          </CharString>
          <CharString index="2">
            30 63 -3 -5 47 hvcurveto
            9 8 callsubr
            -51 9 -17 callgsubr
            6 17 vvcurveto
            198 vlineto
            157 276 26 55 23 11 38 4 rlinecurve
            4 38 rlineto
            -5 -34 -41 -5 -32 hhcurveto
            -40 -44 5 5 -41 hvcurveto
            3 -38 12 -3 38 -8 16 -10 rlinecurve
            6 -5 3 -8 -8 vvcurveto
            -7 -4 -9 -6 -10 vhcurveto
            -106 -194 -111 193 rlineto
            -5 8 -3 10 7 vvcurveto
            13 8 10 9 5 vhcurveto
            17 10 29 6 0 vvcurveto
            3 38 rlineto
            -5 -42 -70 -5 -51 hhcurveto
            -47 -41 4 6 -42 hvcurveto
            4 -38 38 -4 18 -11 24 -48 rlinecurve
            return
          </CharString>
          <CharString index="3">
            rmoveto
            42 51 -38 -6 33 hvcurveto
            23 4 19 15 49 65 15 26 rlinecurve
            -32 22 rlineto
            -23 -20 -18 -17 -23 hhcurveto
            -42 -51 41 7 -33 hvcurveto
            -23 -4 -19 -18 -51 -73 -15 -28 rlinecurve
            31 -19 rlineto
            25 20 21 21 23 hhcurveto
            return
          </CharString>
          <CharString index="4">
            -100 callsubr
            -61 callgsubr
            vhcurveto
            return
          </CharString>
          <CharString index="5">
            497 66 rmoveto
            -16 -23 -34 -10 -37 hhcurveto
            -138 -84 142 147 168 73 113 134 48 53 -7 -19 30 hvcurveto
            18 -27 8 -41 7 -56 54 8 rcurveline
            12 51 9 61 5 54 rrcurveto
            15 -75 -65 17 -91 hhcurveto
            -222 -139 21 callgsubr
            149 -120 204 91 89 16 19 53 hvcurveto
            181 34 callsubr
            9 vhcurveto
            14 9 28 10 callsubr
            -30 -51 -3 -40 hhcurveto
            -34 -59 4 5 -52 hvcurveto
            -9 -42 rlineto
            0 55 -12 18 -7 vhcurveto
            20 -7 2 -11 -17 vvcurveto
            return
          </CharString>
          <CharString index="6">
            34 -3 17 -7 -14 vvcurveto
            -29 -32 -45 -20 -21 vhcurveto
            29 -24 rlineto
            43 31 81 79 48 vvcurveto
            -88 callsubr
          </CharString>
          <CharString index="7">
            -105 callgsubr
            0 19 7 16 return
          </CharString>
          <CharString index="8">
            950 539 rmoveto
            19 61 4 7 53 13 -8 39 rcurveline
            -6 -40 -29 -3 -26 hhcurveto
            -28 -50 3 6 -43 hvcurveto
            -7 -6 callgsubr
            39 -11 20 -7 vhcurveto
            17 -5 8 -10 -13 vvcurveto
            -4 0 -4 -2 -5 vhcurveto
            -118 -376 -6 -30 -5 1 -6 26 -152 467 rlineto
            -102 hlineto
            -152 -467 -4 -33 -6 1 -6 29 -119 382 rlineto
            -2 5 0 4 4 vvcurveto
            13 8 9 17 6 vhcurveto
            21 9 36 10 callsubr
            -50 -73 -3 -31 hhcurveto
            -28 -46 3 6 -44 hvcurveto
            -8 -39 53 -13 5 -7 20 -61 rlinecurve
            182 -547 rlineto
            94 hlineto
            150 455 8 34 5 -1 6 -27 154 -461 rlineto
            93 hlineto
            return
          </CharString>
          <CharString index="9">
            31 197 rmoveto
            -125 77 -88 147 133 91 98 137 125 -79 88 -146 -134 -89 -98 -137 vhcurveto
            129 22 rmoveto
            109 25 53 55 68 42 -64 -120 -110 -27 -52 -55 -68 -40 64 120 vhcurveto
            return
          </CharString>
          <CharString index="10">
            248 40 rmoveto
            -97 -40 74 85 -7 hvcurveto
            -52 -11 rlineto
            -4 -19 0 -45 -36 vvcurveto
            -29 0 -25 2 -13 vhcurveto
            -17 40 78 -20 60 hhcurveto
            146 110 66 137 105 -90 52 -82 46 hvcurveto
            -69 38 -64 34 58 vvcurveto
            59 39 33 51 36 41 -11 -14 19 vhcurveto
            12 -30 4 -45 3 -37 49 7 rcurveline
            7 27 17 97 2 34 rrcurveto
            9 -51 -77 17 -54 hhcurveto
            -125 -97 -63 -116 -107 89 -49 80 -47 hvcurveto
            67 -39 61 -36 -64 vvcurveto
            -67 -46 -38 -58 vhcurveto
            return
          </CharString>
          <CharString index="11">
            28 47 -3 -6 46 hvcurveto
            7 39 -54 13 -4 8 -23 60 rlinecurve
            -218 564 -24 -12 -34 -12 -31 -6 rlinecurve
            -196 -534 -22 -61 -2 -7 -62 -13 rlinecurve
            8 -39 rlineto
            return
          </CharString>
          <CharString index="12">
            rmoveto
            -103 callsubr
            return
          </CharString>
          <CharString index="13">
            -29 -55 3 6 -46 hvcurveto
            -7 -6 callgsubr
            39 -8 17 -10 vhcurveto
            15 -8 1 -5 -17 vvcurveto
            -339 vlineto
            -172 90 -75 181 174 97 88 171 vhcurveto
            return
          </CharString>
          <CharString index="14">
            rmoveto
            -17 5 -68 13 -19 1 -17 -10 -91 -105 -11 -14 38 -38 rcurveline
            190 119 rlineto
            return
          </CharString>
          <CharString index="15">
            rmoveto
            -17 -69 -5 -4 -19 hvcurveto
            -14 -14 -61 -125 -7 -16 47 -27 rcurveline
            153 164 rlineto
            return
          </CharString>
          <CharString index="16">
            rmoveto
            -43 -31 7 -12 73 -104 18 -12 rlinecurve
            -4 15 17 -1 21 hhcurveto
            19 14 0 5 20 hvcurveto
            18 13 74 102 7 13 -44 31 rcurveline
            -108 -89 rlineto
            endchar
          </CharString>
          <CharString index="17">
            -43 34 -30 49 50 34 30 43 43 -34 30 -50 -50 -33 -30 -43 vhcurveto
            endchar
          </CharString>
          <CharString index="18">
            rmoveto
            -17 -2 -67 -16 -18 -7 -12 -16 -41 -133 -4 -17 51 -19 rcurveline
            125 186 rlineto
            -186 24 rmoveto
            -17 -2 -67 -16 -18 -7 -12 -16 -41 -133 -4 -17 51 -19 rcurveline
            125 186 rlineto
            endchar
          </CharString>
          <CharString index="19">
            44 -57 30 -40 2 vhcurveto
            -21 -14 -31 -39 -12 -19 rrcurveto
            endchar
          </CharString>
          <CharString index="20">
            -29 -47 4 6 -46 hvcurveto
            -7 -41 rlineto
            0 48 -10 19 -9 vhcurveto
            14 -7 3 -2 callgsubr
            -374 vlineto
            -5 -4 rlineto
            0 -13 44 -19 27 vhcurveto
            -208 300 rlineto
            -39 57 -23 40 0 vvcurveto
            return
          </CharString>
          <CharString index="21">
            2 -5 1 -5 -4 vvcurveto
            -13 -10 -8 -16 -6 vhcurveto
            -21 -8 -33 -10 0 vvcurveto
            6 -39 rlineto
            return
          </CharString>
          <CharString index="22">
            30 55 -3 -6 46 hvcurveto
            7 39 rlineto
            0 -41 8 -17 10 vhcurveto
            -15 8 -1 -4 callsubr
            return
          </CharString>
          <CharString index="23">
            vvcurveto
            -60 40 -34 60 40 38 19 22 31 vhcurveto
            -20 33 rlineto
            -11 -18 -23 -8 -18 hhcurveto
            -28 -12 24 23 hvcurveto
            return
          </CharString>
          <CharString index="24">
            -7 -12 -2 -20 -14 vvcurveto
            -80 76 -40 113 120 149 76 109 62 -49 47 -95 7 vhcurveto
            -99 7 rlineto
            -53 3 -13 10 14 vvcurveto
            16 17 15 20 17 vhcurveto
            -1 4 10 -2 20 hhcurveto
            return
          </CharString>
          <CharString index="25">
            rcurveline
            -15 -25 0 9 -13 hvcurveto
            -11 5 -5 15 13 vvcurveto
            return
          </CharString>
          <CharString index="26">
            30 -1 32 0 17 3 16 57 rcurveline
            -18 19 -33 -15 -58 -14 -33 -3 rlinecurve
            -45 -487 rmoveto
            47 -4 17 -16 -24 vvcurveto
            -54 -52 -37 -69 -68 -42 34 42 25 11 17 26 31 vhcurveto
            return
          </CharString>
          <CharString index="27">
            8 -9 34 rcurveline
            0 -14 0 -11 2 vhcurveto
            -22 3 -14 5 30 vvcurveto
            return
          </CharString>
          <CharString index="28">
            74 323 56 99 52 130 36 callgsubr
            207 588 rmoveto
            -10 -52 rlineto
            144 -117 hlineto
            -77 callsubr
            441 61 vlineto
            10 52 rlineto
            -71 14 hlineto
            39 0 29 12 25 vhcurveto
            -20 23 -46 -3 -101 -20 -46 -20 rlinecurve
            7 -40 rlineto
            3 13 19 6 24 hhcurveto
            14 4 -15 -22 hvcurveto
            -19 vlineto
            -73 -530 rmoveto
            -57 -41 49 113 112 41 49 52 27 33 -21 -27 18 hvcurveto
            -246 vlineto
            -22 -27 -24 -7 -22 hhcurveto
            return
          </CharString>
          <CharString index="29">
            -30 -57 3 6 -46 hvcurveto
            -9 -6 callgsubr
            38 -35 callsubr
            -6 -17 vvcurveto
            -492 vlineto
            -17 -2 -7 -42 callsubr
            return
          </CharString>
          <CharString index="30">
            11 -18 -30 7 -21 hhcurveto
            -143 -88 -101 -139 -127 65 -86 126 36 36 20 45 40 hvcurveto
            8 -29 21 -22 22 -14 39 14 57 13 46 7 -7 35 -82 callsubr
            return
          </CharString>
          <CharString index="31">
            rmoveto
            -30 -1 -25 -6 -20 vhcurveto
            -14 -49 -40 -55 -25 -27 26 -26 rcurveline
            45 36 82 60 40 68 rrcurveto
            10 21 3 39 38 vvcurveto
            return
          </CharString>
          <CharString index="32">
            -20 hstemhm
            -26 callgsubr
            hintmask 10111110
            -28 callgsubr
            hintmask 11001110
            0 19 7 16 -61 callgsubr
            vhcurveto
            -230 vlineto
            -19 -25 -34 -17 -25 hhcurveto
            -46 -19 29 66 hvcurveto
            166 vlineto
            -73 callgsubr
            hintmask 10111110
            -20 23 rlineto
            -44 -95 -23 -20 -47 hvcurveto
            8 -40 rlineto
            hintmask 11001110
            -63 callgsubr
            return
          </CharString>
          <CharString index="33">
            rmoveto
            5 38 7 -3 11 -42 67 -186 rlineto
            -157 hlineto
            return
          </CharString>
          <CharString index="34">
            32 52 rmoveto
            14 -52 rlineto
            481 hlineto
            10 35 23 129 2 38 -51 12 rcurveline
            -12 -34 -49 -92 -22 -20 rrcurveto
            -240 hlineto
            351 527 -9 55 rlineto
            -362 hlineto
            -41 -30 13 0 hvcurveto
            -34 -18 rlineto
            -6 -38 0 -109 -39 vvcurveto
            50 -9 9 38 22 67 20 27 rlinecurve
            228 hlineto
            return
          </CharString>
          <CharString index="35">
            -20 hstemhm
            42 17 callgsubr
            hintmask 01111100
            111 7 rmoveto
            38 -41 44 63 rlineto
            hintmask 10111100
            -29 54 66 -16 77 hhcurveto
            212 131 154 203 122 -50 93 -85 54 hvcurveto
            33 48 -38 41 -44 -63 rlineto
            19 -48 -55 11 -61 hhcurveto
            -212 -131 -154 -203 -108 38 -85 68 -56 hvcurveto
            444 245 rmoveto
            -145 -52 -118 -141 -65 -49 26 43 -35 vhcurveto
            287 412 rlineto
            38 -56 17 -79 -83 vvcurveto
            -409 40 rmoveto
            145 58 118 135 51 41 -16 -27 32 vhcurveto
            -281 -403 rlineto
            -25 52 -11 64 67 vvcurveto
            return
          </CharString>
          <CharString index="36">
            24 28 rmoveto
            6 -28 rlineto
            343 hlineto
            6 23 20 92 1 24 -46 8 rcurveline
            -7 -21 -31 -59 -13 -12 rrcurveto
            -134 hlineto
            220 338 -11 28 rlineto
            -218 hlineto
            -50 -47 14 0 hvcurveto
            -25 -16 rlineto
            -6 -22 0 -86 -24 vvcurveto
            44 -7 6 23 20 52 12 13 rlinecurve
            131 hlineto
            return
          </CharString>
          <CharString index="37">
            -72 callgsubr
            -6 return
          </CharString>
          <CharString index="38">
            12 -48 callsubr
            return
          </CharString>
          <CharString index="39">
            29 30 -4 -5 57 hvcurveto
            7 35 rlineto
            0 -25 7 -16 11 vhcurveto
            -14 10 -2 4 16 vvcurveto
            return
          </CharString>
          <CharString index="40">
            -20 hstem
            35 129 194 129 vstem
            65 -8 rmoveto
            37 -39 39 56 rlineto
            -16 32 39 -9 47 hhcurveto
            124 104 98 137 72 -30 61 -50 38 hvcurveto
            33 48 -37 39 -42 -60 rlineto
            13 -30 -35 7 -38 hhcurveto
            -134 -89 -100 -140 -66 21 -55 41 -38 hvcurveto
            261 159 rmoveto
            -110 -15 -51 -71 -34 -27 15 31 -19 vhcurveto
            155 222 rlineto
            7 -28 4 -36 -43 vvcurveto
            -194 22 rmoveto
            122 25 45 55 33 25 -10 -18 17 vhcurveto
            -149 -214 rlineto
            -4 22 -2 25 28 vvcurveto
            return
          </CharString>
          <CharString index="41">
            23 371 rmoveto
            50 -262 hlineto
            -102 57 -23 64 58 54 44 29 35 vhcurveto
            -20 33 rlineto
            -14 -22 -32 -16 -31 hhcurveto
            -25 -18 9 55 hvcurveto
            244 vlineto
            107 -4 11 65 -118 -9 rlineto
            110 vlineto
            -120 -55 rlineto
            -49 vlineto
            -58 -18 rlineto
            return
          </CharString>
          <CharString index="42">
            5 55 38 5 callgsubr
            334 hlineto
            8 29 14 108 1 32 -48 9 rcurveline
            -8 -26 -34 -73 -19 -16 rrcurveto
            -176 return
          </CharString>
          <CharString index="43">
            2 callsubr
            55 hvcurveto
            8 8 callsubr
            -34 8 -18 11 vhcurveto
            -14 9 -2 -21 callsubr
            210 vlineto
            111 -54 40 -91 -30 -35 -20 -24 -29 vhcurveto
            -43 -35 rlineto
            57 -20 -47 22 -67 hhcurveto
            -30 -35 -20 -24 -29 hvcurveto
            -33 -27 rlineto
            -5 14 -5 15 19 vvcurveto
            -21 23 -44 -4 -78 -22 -43 -19 rlinecurve
            5 -38 rlineto
            0 28 6 18 22 4 -16 -18 vhcurveto
            -250 vlineto
            18 callsubr
            return
          </CharString>
          <CharString index="44">
            -17 -2 -5 -56 callsubr
            -11 return
          </CharString>
          <CharString index="45">
            -56 callgsubr
            hintmask 10011000
            9 callsubr
            hintmask 10101000
            -9 callsubr
            hintmask 10011000
            -41 callsubr
            hintmask 10101000
            -53 callsubr
            return
          </CharString>
          <CharString index="46">
            249 563 rmoveto
            18 3 10 19 7 vhcurveto
            18 7 62 12 0 vvcurveto
            -8 42 rlineto
            return
          </CharString>
          <CharString index="47">
            34 68 -4 -5 52 hvcurveto
            7 42 rlineto
            0 -62 12 -18 7 vhcurveto
            -20 7 -2 10 18 vvcurveto
            197 18 vlineto
            33 13 -17 -50 28 hvcurveto
            return
          </CharString>
          <CharString index="48">
            2 24 52 3 17 hhcurveto
            18 38 -3 -2 21 hvcurveto
            4 34 rlineto
            0 -20 5 -9 5 vhcurveto
            -8 4 -3 4 11 vvcurveto
            -180 95 rmoveto
            87 120 6 14 2 -1 rlineto
            -138 -92 vlineto
            endchar
          </CharString>
          <CharString index="49">
            31 56 -5 -4 53 hvcurveto
            7 40 rlineto
            0 -51 7 -19 9 vhcurveto
            -17 8 -4 -4 callsubr
            208 vlineto
            25 18 34 44 34 hhcurveto
            return
          </CharString>
          <CharString index="50">
            32 59 -3 -6 50 hvcurveto
            8 44 rlineto
            0 -47 6 -18 8 vhcurveto
            -15 7 -1 6 18 vvcurveto
            225 317 -225 vlineto
            -18 -1 -6 -15 -7 vhcurveto
            -18 -8 -47 -6 0 vvcurveto
            8 -44 rlineto
            return
          </CharString>
          <CharString index="51">
            -13 -8 vhcurveto
            -17 return
          </CharString>
          <CharString index="52">
            -64 callgsubr
            7 -39 rlineto
            return
          </CharString>
          <CharString index="53">
            31 58 -5 -4 29 hvcurveto
            8 8 callsubr
            -26 6 -16 9 vhcurveto
            -12 6 -13 10 -16 18 -166 180 rcurveline
            118 102 14 12 16 11 15 4 rlinecurve
            10 2 21 5 0 vvcurveto
            3 35 rlineto
            -4 -28 -51 -2 -26 hhcurveto
            -26 -36 0 6 -31 hvcurveto
            3 -34 rlineto
            8 -1 22 -1 -11 vvcurveto
            -6 -10 -9 -9 -8 vhcurveto
            -121 -103 rlineto
            return
          </CharString>
          <CharString index="54">
            3 26 9 69 9 23 rrcurveto
            132 -506 hlineto
            -17 -2 -4 -14 -8 vhcurveto
            -19 -10 -61 -12 0 vvcurveto
            9 -40 return
          </CharString>
          <CharString index="55">
            -17 -1 -6 -15 -8 vhcurveto
            return
          </CharString>
          <CharString index="56">
            rmoveto
            39 hlineto
            10 50 rlineto
            -49 203 -80 hlineto
            -156 -214 24 -39 rlineto
            127 -40 hlineto
            -11 -4 -4 -7 -4 vhcurveto
            -11 -5 -31 -5 0 vvcurveto
            4 -34 rlineto
            return
          </CharString>
          <CharString index="57">
            18 9 -43 -52 hvcurveto
            42 5 13 31 22 85 6 33 rlinecurve
            6 -17 -35 18 -26 hhcurveto
            -33 -28 -12 -41 -29 hvcurveto
            -28 -39 rlineto
            -5 18 -4 30 21 vvcurveto
            return
          </CharString>
          <CharString index="58">
            0 62 -50 -21 316 62 220 61 return
          </CharString>
          <CharString index="59">
            -21 30 -21 return
          </CharString>
          <CharString index="60">
            hhcurveto
            349 hlineto
            9 30 10 107 1 33 -50 8 rcurveline
            -7 -26 -29 -73 -19 -16 rrcurveto
            -180 242 100 hlineto
            16 11 -2 -13 6 hvcurveto
            return
          </CharString>
          <CharString index="61">
            -44 34 -30 49 50 34 30 44 44 -34 30 -50 -50 -33 -30 -44 vhcurveto
            return
          </CharString>
          <CharString index="62">
            18 -10 vhcurveto
            14 -8 2 return
          </CharString>
          <CharString index="63">
            6 11 27 7 21 hhcurveto
            59 12 -40 -60 hvcurveto
            -45 vlineto
            -82 -10 rlineto
            -92 -11 -70 -25 -86 vvcurveto
            -69 49 -47 78 55 56 41 38 43 vhcurveto
            -50 35 57 -29 72 hhcurveto
            40 55 12 77 81 hvcurveto
            -18 27 rlineto
            -23 -33 -46 -20 -46 hhcurveto
            -71 -40 51 102 -5 hvcurveto
            return
          </CharString>
          <CharString index="64">
            -101 callgsubr
            -6 return
          </CharString>
          <CharString index="65">
            -34 callsubr
            -38 -64 callgsubr
            8 -38 rlineto
            return
          </CharString>
          <CharString index="66">
            -22 -59 5 3 -25 hvcurveto
            -2 -38 5 -103 5 -38 57 -9 rcurveline
            return
          </CharString>
          <CharString index="67">
            205 525 rmoveto
            5 4 rlineto
            0 19 -41 17 -24 vhcurveto
            200 -286 rlineto
            77 -110 37 -82 0 vvcurveto
            108 21 rlineto
            0 -8 99 87 vvcurveto
            380 vlineto
            16 3 7 14 7 vhcurveto
            20 10 38 8 -44 callgsubr
            return
          </CharString>
          <CharString index="68">
            -38 -16 78 154 221 -51 51 return
          </CharString>
          <CharString index="69">
            hstemhm
            97 120 return
          </CharString>
          <CharString index="70">
            5 44 65 4 30 hhcurveto
            28 57 -3 -6 42 hvcurveto
            7 39 rlineto
            0 -34 8 -18 10 vhcurveto
            -14 8 -3 8 -1 18 -30 487 rcurveline
            -1 16 3 11 14 7 rrcurveto
            18 9 37 9 -44 callgsubr
            return
          </CharString>
          <CharString index="71">
            21 -52 28 -95 0 vvcurveto
            95 24 rlineto
            0 21 80 22 56 vhcurveto
            119 300 rlineto
            10 24 11 50 0 vvcurveto
            6 -5 24 -429 1 -17 -3 -5 -15 -8 rlinecurve
            -19 -10 -49 -10 0 vvcurveto
            7 -41 rlineto
            return
          </CharString>
          <CharString index="72">
            -8 -45 callsubr
            return
          </CharString>
          <CharString index="73">
            -14 -8 vhcurveto
            -18 -10 return
          </CharString>
          <CharString index="74">
            -17 -2 -6 -34 callsubr
            -38 -31 callgsubr
            hintmask 01111100
            5 50 54 4 30 hhcurveto
            hintmask 10111100
            34 68 -4 -5 52 hvcurveto
            8 42 rlineto
            0 -63 12 -18 7 vhcurveto
            -20 7 -2 10 18 vvcurveto
            return
          </CharString>
          <CharString index="75">
            6 50 73 3 31 hhcurveto
            return
          </CharString>
          <CharString index="76">
            6 46 29 3 28 hhcurveto
            return
          </CharString>
          <CharString index="77">
            88 hlineto
            58 15 74 50 25 18 -7 -10 12 vhcurveto
            4 -24 6 -39 -32 vvcurveto
            49 3 10 31 20 77 5 38 rlinecurve
            10 -41 -52 8 -27 hhcurveto
            -144 -75 -118 -126 hvcurveto
            -31 vlineto
            endchar
          </CharString>
          <CharString index="78">
            658 230 rmoveto
            121 -58 86 -127 -47 -40 -17 -28 -32 vhcurveto
            30 -25 -43 15 -64 hhcurveto
            -44 -83 -37 -17 -34 hvcurveto
            3 -25 14 -67 6 -20 56 14 rcurveline
            20 0 40 4 19 vhcurveto
            return
          </CharString>
          <CharString index="79">
            -16 callgsubr
            437 -20 return
          </CharString>
          <CharString index="80">
            12 -21 30 -8 callsubr
            return
          </CharString>
          <CharString index="81">
            4 29 hhcurveto
            return
          </CharString>
          <CharString index="82">
            -32 -59 3 6 -49 hvcurveto
            -9 -44 rlineto
            0 47 -6 18 -8 vhcurveto
            15 -7 1 -6 -18 vvcurveto
            return
          </CharString>
          <CharString index="83">
            111 86 56 105 38 -15 32 -23 24 hvcurveto
            return
          </CharString>
          <CharString index="84">
            -250 vlineto
            -17 -2 return
          </CharString>
          <CharString index="85">
            14 callgsubr
            92 103 53 vvcurveto
            49 -57 36 -41 3 vhcurveto
            -25 -15 -37 -35 -14 -23 rrcurveto
            endchar
          </CharString>
          <CharString index="86">
            4 17 vvcurveto
            return
          </CharString>
          <CharString index="87">
            -3 callsubr
            31 -25 rlineto
            47 41 92 106 53 vvcurveto
            49 -57 33 -41 3 vhcurveto
            -25 -15 -37 -35 -13 -23 rrcurveto
            -197 -30 rmoveto
            40 return
          </CharString>
          <CharString index="88">
            rmoveto
            30 29 -98 160 98 160 -30 29 -187 -172 rlineto
            -34 vlineto
            return
          </CharString>
          <CharString index="89">
            -69 callsubr
            361 return
          </CharString>
          <CharString index="90">
            22 -16 51 346 51 return
          </CharString>
          <CharString index="91">
            5 55 28 -26 callsubr
            return
          </CharString>
          <CharString index="92">
            -17 -260 59 321 49 220 48 -16 -20 return
          </CharString>
          <CharString index="93">
            14 callsubr
            -4 -12 -9 vhcurveto
            return
          </CharString>
          <CharString index="94">
            -2 callgsubr
            -494 vlineto
            -17 -1 return
          </CharString>
          <CharString index="95">
            -244 113 552 -20 return
          </CharString>
          <CharString index="96">
            493 201 rmoveto
            -7 -15 -2 -33 5 callsubr
            2 rlineto
            0 -5 27 -8 20 vhcurveto
            -144 389 rlineto
            -8 23 -12 46 0 vvcurveto
            return
          </CharString>
          <CharString index="97">
            -28 -76 callsubr
            return
          </CharString>
          <CharString index="98">
            -3 -25 -59 -5 -22 hhcurveto
            -353 hlineto
            return
          </CharString>
          <CharString index="99">
            -21 650 -20 return
          </CharString>
          <CharString index="100">
            -16 58 566 58 return
          </CharString>
          <CharString index="101">
            17 2 5 14 8 vhcurveto
            18 10 38 8 0 vvcurveto
            -8 39 rlineto
            return
          </CharString>
          <CharString index="102">
            16 1 6 15 7 vhcurveto
            18 8 47 6 0 vvcurveto
            -9 44 rlineto
            return
          </CharString>
          <CharString index="103">
            5 17 vvcurveto
            return
          </CharString>
          <CharString index="104">
            vvcurveto
            -33 -44 -59 -26 -38 vhcurveto
            return
          </CharString>
          <CharString index="105">
            rmoveto
            60 34 -47 -110 -116 -45 -50 -51 -44 -33 26 41 hvcurveto
            230 vlineto
            0 35 26 44 vhcurveto
            endchar
          </CharString>
          <CharString index="106">
            -20 hstemhm
            6 120 -92 124 140 125 -66 107 return
          </CharString>
          <CharString index="107">
            -245 52 -52 174 return
          </CharString>
          <CharString index="108">
            -249 -21 234 return
          </CharString>
          <CharString index="109">
            29 29 -4 -5 return
          </CharString>
          <CharString index="110">
            vlineto
            -100 callsubr
            vhcurveto
            return
          </CharString>
          <CharString index="111">
            2 callsubr
            55 hvcurveto
            8 8 callsubr
            -35 8 -17 return
          </CharString>
          <CharString index="112">
            0 vvcurveto
            -7 return
          </CharString>
          <CharString index="113">
            -85 callsubr
            endchar
          </CharString>
          <CharString index="114">
            vlineto
            -63 callsubr
            return
          </CharString>
          <CharString index="115">
            36 rlineto
            0 return
          </CharString>
          <CharString index="116">
            4 38 7 103 -2 38 rrcurveto
            return
          </CharString>
          <CharString index="117">
            9 -44 callgsubr
            -6 return
          </CharString>
          <CharString index="118">
            34 45 -3 -6 62 hvcurveto
            7 35 rlineto
            0 -43 7 -28 11 vhcurveto
            -14 10 -2 4 16 vvcurveto
            return
          </CharString>
          <CharString index="119">
            -179 -149 -21 836 -20 hstem
            112 85 vstem
            112 -170 rmoveto
            85 return
          </CharString>
          <CharString index="120">
            338 421 rmoveto
            -23 hlineto
            return
          </CharString>
          <CharString index="121">
            -29 -66 hvcurveto
            -192 vlineto
            -16 -3 return
          </CharString>
          <CharString index="122">
            62 8 -20 hstemhm
            225 129 return
          </CharString>
          <CharString index="123">
            -6 -48 -71 -3 -34 hhcurveto
            return
          </CharString>
          <CharString index="124">
            hlineto
            -33 -17 -27 -14 -16 vhcurveto
            -13 -15 -33 -14 -12 -1 8 -38 rcurveline
            return
          </CharString>
          <CharString index="125">
            -14 callgsubr
            10 -36 rlineto
            return
          </CharString>
          <CharString index="126">
            17 callgsubr
            vstem
            return
          </CharString>
          <CharString index="127">
            155 -120 120 return
          </CharString>
          <CharString index="128">
            52 -37 30 -40 vhcurveto
            return
          </CharString>
          <CharString index="129">
            -21 650 0 callgsubr
            0 240 return
          </CharString>
          <CharString index="130">
            -21 437 -20 105 138 hstemhm
            return
          </CharString>
          <CharString index="131">
            -21 285 -20 hstem
            return
          </CharString>
          <CharString index="132">
            -24 -50 5 5 -26 hvcurveto
            0 -9 -43 -12 -32 vhcurveto
            return
          </CharString>
          <CharString index="133">
            -50 -34 -30 -44 -44 34 -30 50 50 33 30 44 return
          </CharString>
          <CharString index="134">
            11 vhcurveto
            -14 10 -2 4 16 vvcurveto
            248 vlineto
            19 return
          </CharString>
          <CharString index="135">
            49 -62 callgsubr
            return
          </CharString>
          <CharString index="136">
            107 0 68 514 68 return
          </CharString>
          <CharString index="137">
            -99 -16 48 359 46 return
          </CharString>
          <CharString index="138">
            45 90 45 hstem
            60 60 83 60 vstem
            120 return
          </CharString>
          <CharString index="139">
            21 callsubr
            17 56 return
          </CharString>
          <CharString index="140" raw="1">
            64051370 910b  
          </CharString>
          <CharString index="141">
            vlineto
            17 2 5 14 return
          </CharString>
          <CharString index="142">
            29 -26 callsubr
            hintmask 10111100
            2 callsubr
            return
          </CharString>
          <CharString index="143">
            hlineto
            14 -15 15 -63 5 -22 46 8 rcurveline
            return
          </CharString>
          <CharString index="144">
            76 377 -20 return
          </CharString>
        <CharString name=".notdef">
          -270 endchar
        </CharString>
        <CharString name=".null">
          -488 endchar
        </CharString>
        <CharString name="0041">
          -488 endchar
        </CharString>
        <CharString name="A">
          164 -69 callsubr
          228 64 383 -20 hstemhm
          hintmask 10110000
          450 -100 callgsubr
          -113 257 -74 callsubr
          endchar
        </CharString>
        <CharString name="AE">
          26 callgsubr
          7 -20 hstemhm
          396 129 hintmask 10110100
          441 650 rmoveto
          hintmask 10101100
          -53 callgsubr
          hintmask 01110100
          7 -39 rlineto
          hintmask 10110100
          5 40 45 4 25 -47 callsubr
          9 -18 8 -44 0 vvcurveto
          43 6 rlineto
          -5 35 -3 42 23 vvcurveto
          22 3 44 5 33 vhcurveto
          -43 6 rlineto
          0 -9 -41 -8 -15 vhcurveto
          -13 -7 -10 -2 -16 hhcurveto
          -100 220 170 hlineto
          13 -15 15 -61 4 -22 52 9 rcurveline
          157 vlineto
          -4 -25 -40 -2 -22 hhcurveto
          -296 -62 28 callgsubr
        </CharString>
        <CharString name="AEacute">
          26 callgsubr
          197 -20 hstemhm
          396 129 hintmask 10111100
          441 650 rmoveto
          -53 callgsubr
          hintmask 01111100
          7 -39 rlineto
          hintmask 10111100
          5 40 45 4 25 -47 callsubr
          9 -18 8 -44 0 vvcurveto
          43 6 rlineto
          -5 35 -3 42 23 vvcurveto
          22 3 44 5 33 vhcurveto
          -43 6 rlineto
          0 -9 -41 -8 -15 vhcurveto
          -13 -7 -10 -2 -16 hhcurveto
          -100 220 170 hlineto
          13 -15 15 -61 4 -22 52 9 rcurveline
          157 vlineto
          -4 -25 -40 -2 -22 hhcurveto
          -22 178 -93 callsubr
          -279 -211 28 callgsubr
        </CharString>
        <CharString name="Aacute">
          162 -69 callsubr
          228 64 555 -20 hstemhm
          hintmask 10110000
          449 -100 callgsubr
          40 600 -93 callsubr
          -158 -314 -74 callsubr
          endchar
        </CharString>
        <CharString name="Abreve">
          164 -69 callsubr
          228 64 400 87 66 -20 hstemhm
          hintmask 10111000
          450 -84 callgsubr
          hintmask 01111000
          -32 callsubr
          hintmask 10111000
          -96 callsubr
          hintmask 01111000
          -31 callsubr
          hintmask 10111000
          -94 callgsubr
          9 617 -89 callgsubr
          -156 -350 -74 callsubr
          endchar
        </CharString>
        <CharString name="Acircumflex">
          162 -69 callsubr
          228 64 560 -20 hstemhm
          hintmask 10110000
          449 -100 callgsubr
          13 460 -98 callgsubr
          -18 -292 -74 callsubr
          endchar
        </CharString>
        <CharString name="Adieresis">
          162 -69 callsubr
          228 64 396 134 hstemhm
          116 8 callgsubr
          hintmask 10111100
          -37 callgsubr
          hintmask 01111100
          -32 callsubr
          hintmask 10111100
          -96 callsubr
          hintmask 01111100
          -31 callsubr
          hintmask 10111100
          -94 callgsubr
          -113 257 -74 callsubr
          -102 463 rmoveto
          -99 callgsubr
          223 hmoveto
          -99 callgsubr
          endchar
        </CharString>
        <CharString name="Agrave">
          162 -69 callsubr
          228 64 555 -20 hstemhm
          hintmask 10110000
          449 -100 callgsubr
          -249 571 -75 callgsubr
          131 -343 -74 callsubr
          endchar
        </CharString>
        <CharString name="Amacron">
          164 -69 callsubr
          228 64 413 76 hstemhm
          hintmask 10110000
          450 -100 callgsubr
          -233 477 -18 callgsubr
          106 -296 -74 callsubr
          endchar
        </CharString>
        <CharString name="Aogonek">
          164 -245 55 211 -21 228 64 383 -20 hstem
          417 90 vstem
          507 -143 rmoveto
          53 42 53 34 35 vhcurveto
          22 -1 24 -3 25 -3 7 39 rcurveline
          -54 13 -4 8 -23 60 -218 564 rcurveline
          -24 -12 -34 -12 -31 -6 -196 -534 rcurveline
          -22 -61 -2 -7 -62 -13 8 -39 rcurveline
          -31 callsubr
          -94 callgsubr
          51 -139 rlineto
          -86 callsubr
          -32 callsubr
          11 hlineto
          -43 callgsubr
          -221 628 -74 callsubr
          endchar
        </CharString>
        <CharString name="Aring">
          162 -69 callsubr
          228 64 384 45 90 45 hstemhm
          209 60 83 60 hintmask 10111110
          -37 callgsubr
          hintmask 01111110
          -32 callsubr
          hintmask 10111110
          -96 callsubr
          hintmask 01111110
          -31 callsubr
          hintmask 10111110
          -94 callgsubr
          -189 538 rmoveto
          -49 46 -41 55 55 47 41 49 49 -47 41 -55 -55 -46 -41 -49 vhcurveto
          76 -281 -74 callsubr
          51 474 rmoveto
          25 19 20 22 22 20 -20 -25 -25 -20 -20 -22 -22 -19 20 25 vhcurveto
          endchar
        </CharString>
        <CharString name="Aringacute">
          162 -69 callsubr
          228 64 384 45 90 45 175 -20 hstemhm
          209 60 83 60 hintmask 10111111
          -37 callgsubr
          hintmask 01111111
          -32 callsubr
          hintmask 10111111
          -96 callsubr
          hintmask 01111111
          -31 callsubr
          hintmask 10111111
          -94 callgsubr
          -189 538 rmoveto
          -49 46 -41 55 55 47 41 49 49 -47 41 -55 -55 -46 -41 -49 vhcurveto
          236 246 -93 callsubr
          -165 -498 -74 callsubr
          51 474 rmoveto
          25 19 20 22 22 20 -20 -25 -25 -20 -20 -22 -22 -19 20 25 vhcurveto
          endchar
        </CharString>
        <CharString name="Atilde">
          162 -69 callsubr
          228 64 437 48 48 -20 hstemhm
          hintmask 10111000
          -37 callgsubr
          hintmask 01111000
          -32 callsubr
          hintmask 10111000
          -96 callsubr
          hintmask 01111000
          -31 callsubr
          hintmask 10111000
          -94 callgsubr
          -164 501 -104 callsubr
          51 -244 -74 callsubr
          endchar
        </CharString>
        <CharString name="B">
          129 -8 50 -21 -21 319 43 -43 57 233 28 callsubr
          152 135 -95 95 -95 141 hintmask 1010110010000000
          319 -8 rmoveto
          142 121 65 133 121 -100 46 -83 5 hvcurveto
          7 vlineto
          hintmask 1010110100000000
          56 11 81 33 97 vvcurveto
          118 -120 30 -127 -79 -82 -12 7 -72 vhcurveto
          -8 -36 rlineto
          0 38 -35 callsubr
          -6 -17 vvcurveto
          -489 vlineto
          -17 -2 -6 -42 callsubr
          hintmask 0110111000000000
          5 46 50 3 28 hhcurveto
          hintmask 1010110100000000
          40 66 -8 33 hhcurveto
          -70 327 rmoveto
          62 hlineto
          84 46 -44 -95 -97 -62 -41 -63 -25 -42 10 39 hvcurveto
          511 vmoveto
          4 11 16 3 13 hhcurveto
          hintmask 1001111000000000
          68 44 -33 -77 -79 -44 -44 -70 hvcurveto
          -38 hlineto
          endchar
        </CharString>
        <CharString name="C">
          192 2 callgsubr
          hstem
          40 151 -92 callgsubr
          endchar
        </CharString>
        <CharString name="CR">
          -270 endchar
        </CharString>
        <CharString name="Cacute">
          192 2 callgsubr
          181 -20 hstem
          40 151 -92 callgsubr
          143 844 -93 callsubr
          endchar
        </CharString>
        <CharString name="Ccaron">
          192 2 callgsubr
          190 -20 hstem
          40 151 -92 callgsubr
          -101 872 -91 callsubr
        </CharString>
        <CharString name="Ccedilla">
          192 0 callsubr
          57 54 570 56 hstemhm
          40 151 216 78 hintmask 10111100
          318 -85 callgsubr
          hintmask 01111100
          32 callsubr
          71 2 77 15 44 15 rlinecurve
          10 54 10 64 1 56 -54 5 rcurveline
          -107 -28 -44 -49 -99 hhcurveto
          -138 -84 142 147 168 73 113 134 48 52 -7 -19 30 hvcurveto
          18 -26 9 -56 7 -54 54 10 rcurveline
          13 50 9 72 5 54 rrcurveto
          15 -75 -66 17 -91 hhcurveto
          -228 -143 -154 -213 -182 133 -117 189 -14 hvcurveto
          endchar
        </CharString>
        <CharString name="Ccircumflex">
          192 2 callgsubr
          186 -20 hstem
          40 151 -92 callgsubr
          116 704 -98 callgsubr
          endchar
        </CharString>
        <CharString name="Cdot">
          192 2 callgsubr
          26 146 hstem
          40 151 137 167 -92 callgsubr
          -75 781 rmoveto
          -90 callsubr
        </CharString>
        <CharString name="D">
          280 -8 54 -34 -48 callsubr
          605 55 -62 callgsubr
          338 141 hintmask 10011100
          -59 callgsubr
          hintmask 01011100
          8 -39 rlineto
          hintmask 00111100
          5 49 46 5 callgsubr
          hintmask 10011100
          40 66 -8 81 hhcurveto
          endchar
        </CharString>
        <CharString name="Dcaron">
          280 -8 54 -34 -48 callsubr
          605 55 196 -60 callgsubr
          338 141 hintmask 10011110
          -59 callgsubr
          hintmask 01011110
          8 -39 rlineto
          hintmask 00111110
          5 49 46 5 callgsubr
          hintmask 10011110
          40 66 -8 81 hhcurveto
          -166 864 -91 callsubr
        </CharString>
        <CharString name="Dcroat">
          -78 callgsubr
        </CharString>
        <CharString name="E">
          106 -49 callsubr
          10 -60 callgsubr
          hintmask 10110100
          249 307 rmoveto
          115 hlineto
          16 11 -3 -12 6 hvcurveto
          8 -16 9 -39 0 vvcurveto
          43 4 rlineto
          -5 31 -3 43 21 vvcurveto
          22 3 44 5 33 vhcurveto
          -43 5 rlineto
          0 -9 -41 -8 -15 vhcurveto
          -13 -7 -10 -2 -16 hhcurveto
          -115 220 190 hlineto
          13 -15 15 -61 4 -22 46 8 rcurveline
          5 59 -4 47 51 vvcurveto
          -4 -29 -40 -2 -23 hhcurveto
          -246 hlineto
          hintmask 01101100
          -29 -49 5 5 -48 hvcurveto
          -9 -6 callgsubr
          39 -8 20 -10 vhcurveto
          15 -7 1 -13 callsubr
          -6 -15 -8 vhcurveto
          -19 -10 -40 -31 callgsubr
          hintmask 10110100
          -87 callgsubr
          endchar
        </CharString>
        <CharString name="Eacute">
          95 -49 callsubr
          197 -20 hstemhm
          110 129 hintmask 01111100
          239 -107 callsubr
          hintmask 10111100
          -87 callgsubr
          190 766 -93 callsubr
          endchar
        </CharString>
        <CharString name="Ebreve">
          106 -49 callsubr
          42 87 66 -60 callgsubr
          hintmask 01111110
          249 -107 callsubr
          hintmask 10111110
          -87 callgsubr
          159 783 -89 callgsubr
          endchar
        </CharString>
        <CharString name="Ecaron">
          106 -49 callsubr
          206 -60 callgsubr
          hintmask 01111100
          249 -107 callsubr
          hintmask 10111100
          -87 callgsubr
          -54 794 -91 callsubr
        </CharString>
        <CharString name="Ecircumflex">
          95 -49 callsubr
          202 -20 hstemhm
          110 129 hintmask 01111100
          239 -107 callsubr
          hintmask 10111100
          -87 callgsubr
          163 626 -98 callgsubr
          endchar
        </CharString>
        <CharString name="Edieresis">
          95 -49 callsubr
          37 134 hstemhm
          110 129 91 151 hintmask 01111110
          239 -107 callsubr
          hintmask 10111110
          -87 callgsubr
          -132 692 rmoveto
          -99 callgsubr
          223 hmoveto
          -99 callgsubr
          endchar
        </CharString>
        <CharString name="Edot">
          106 -49 callsubr
          42 146 -62 callgsubr
          -28 167 hintmask 01111100
          249 -107 callsubr
          hintmask 10111100
          -87 callgsubr
          hintmask 10111010
          -28 703 rmoveto
          -90 callsubr
        </CharString>
        <CharString name="Egrave">
          95 -49 callsubr
          197 -20 hstemhm
          110 129 hintmask 01111100
          239 -107 callsubr
          hintmask 10111100
          -87 callgsubr
          -99 737 -75 callgsubr
          endchar
        </CharString>
        <CharString name="Emacron">
          106 -49 callsubr
          55 76 -62 callgsubr
          hintmask 01111100
          249 -107 callsubr
          hintmask 10111100
          -87 callgsubr
          -83 643 -18 callgsubr
          endchar
        </CharString>
        <CharString name="Eng">
          281 -239 -21 281 10 callgsubr
          120 85 346 109 -85 85 hintmask 11011100
          551 hmoveto
          -79 -43 -74 -74 -77 vhcurveto
          30 -30 91 71 rlineto
          105 82 0 65 92 vvcurveto
          523 vlineto
          16 3 7 14 7 vhcurveto
          20 10 38 8 -44 callgsubr
          hintmask 11101100
          -6 -41 -39 -4 -28 hhcurveto
          hintmask 11011010
          -87 callsubr
          hintmask 11101100
          -5 -28 -54 -5 -26 hhcurveto
          hintmask 11011100
          -20 -44 2 8 -44 hvcurveto
          -7 -6 callgsubr
          40 -9 19 -9 vhcurveto
          14 -7 2 -13 callsubr
          -7 -15 -7 vhcurveto
          -21 -11 -41 -7 35 callgsubr
          -71 callgsubr
          438 vlineto
          5 4 rlineto
          0 19 -41 17 -24 vhcurveto
          200 -286 rlineto
          77 -110 28 -57 -11 vvcurveto
          endchar
        </CharString>
        <CharString name="Eogonek">
          106 -245 55 190 62 245 62 220 61 10 -60 callgsubr
          54 90 hintmask 11110110
          393 -143 rmoveto
          54 44 54 34 35 vhcurveto
          58 hlineto
          9 30 11 108 1 33 -46 8 rcurveline
          -7 -26 -29 -75 -19 -16 rrcurveto
          -200 245 115 hlineto
          16 11 -3 -12 6 hvcurveto
          8 -16 9 -39 0 vvcurveto
          43 4 rlineto
          -5 31 -3 43 21 vvcurveto
          22 3 44 5 33 vhcurveto
          -43 5 rlineto
          0 -9 -41 -8 -15 vhcurveto
          -13 -7 -10 -2 -16 hhcurveto
          -115 220 190 hlineto
          13 -15 15 -61 4 -22 46 8 rcurveline
          5 59 -4 47 51 vvcurveto
          -4 -29 -40 -2 -23 hhcurveto
          -246 hlineto
          hintmask 11101110
          -29 -49 5 5 -48 hvcurveto
          -9 -6 callgsubr
          39 -8 20 -10 vhcurveto
          15 -7 1 -13 callsubr
          -6 -15 -8 vhcurveto
          -19 -10 -40 -31 callgsubr
          5 48 50 -26 callsubr
          250 hlineto
          -43 callgsubr
          endchar
        </CharString>
        <CharString name="Eth">
          -78 callgsubr
        </CharString>
        <CharString name="Euro">
          177 -16 53 192 52 53 52 171 53 hstem
          62 386 rmoveto
          -10 -52 rlineto
          51 hlineto
          -2 -17 -2 -18 -18 vvcurveto
          -54 hlineto
          -10 -52 rlineto
          67 hlineto
          -153 20 129 -92 171 hhcurveto
          67 68 16 14 42 hvcurveto
          9 50 9 59 1 51 -50 5 rcurveline
          -99 -23 -29 -43 -85 hhcurveto
          -99 -66 86 106 -21 hvcurveto
          141 hlineto
          10 52 rlineto
          -158 20 hlineto
          11 0 11 1 11 vhcurveto
          164 hlineto
          10 52 rlineto
          -168 hlineto
          105 20 59 66 94 hhcurveto
          40 33 -7 -17 26 hvcurveto
          16 -24 9 -50 6 -49 50 9 rcurveline
          12 46 8 66 4 50 rrcurveto
          13 -64 -49 16 -79 hhcurveto
          -162 -114 -89 -135 -40 hvcurveto
          endchar
        </CharString>
        <CharString name="F">
          35 -69 callsubr
          302 62 224 62 10 -60 callgsubr
          hintmask 10110100
          355 302 rmoveto
          16 12 -2 -13 5 hvcurveto
          6 -15 6 -42 0 vvcurveto
          38 5 rlineto
          -5 31 -3 44 21 vvcurveto
          22 3 45 5 33 vhcurveto
          -38 5 rlineto
          0 -6 -43 -6 -14 vhcurveto
          -14 -6 -11 -1 -16 hhcurveto
          -106 224 179 36 callsubr
          2 42 2 84 -4 34 rrcurveto
          -4 -27 -38 -2 -22 hhcurveto
          -241 hlineto
          hintmask 10101100
          -28 -54 5 5 -41 hvcurveto
          -9 -39 19 -4 23 -7 14 -6 rlinecurve
          15 -6 1 -8 -17 vvcurveto
          -494 vlineto
          -17 -2 -6 -34 callsubr
          -38 -55 callsubr
          hintmask 01110100
          5 40 65 4 30 hhcurveto
          hintmask 10110100
          34 78 -4 -5 42 hvcurveto
          7 42 rlineto
          0 -62 12 -18 7 vhcurveto
          -20 7 -2 10 18 vvcurveto
          215 vlineto
          endchar
        </CharString>
        <CharString name="G">
          219 2 callgsubr
          hstem
          40 141 316 129 vstem
          -102 callsubr
          endchar
        </CharString>
        <CharString name="Gbreve">
          219 2 callgsubr
          26 87 66 -20 hstem
          40 141 316 129 vstem
          -102 callsubr
          8 653 -89 callgsubr
          endchar
        </CharString>
        <CharString name="Gcircumflex">
          219 2 callgsubr
          186 -20 hstem
          40 141 316 129 vstem
          -102 callsubr
          12 496 -98 callgsubr
          endchar
        </CharString>
        <CharString name="Gcommaaccent">
          219 1 callsubr
          20 0 56 570 56 hstemhm
          40 141 195 101 20 129 hintmask 10111110
          -102 callsubr
          -172 -319 -27 callgsubr
          hintmask 11011110
          -88 callsubr
        </CharString>
        <CharString name="Gdot">
          219 2 callgsubr
          26 146 hstem
          40 141 137 167 12 129 vstem
          -102 callsubr
          -179 573 rmoveto
          -90 callsubr
        </CharString>
        <CharString name="H">
          327 -69 callsubr
          305 68 277 0 callgsubr
          317 129 hintmask 10101110
          566 373 rmoveto
          -317 199 hlineto
          -5 callsubr
          hintmask 10110110
          -6 -49 -59 -3 -32 hhcurveto
          hintmask 10101110
          -30 -50 3 6 -44 hvcurveto
          -9 -6 callgsubr
          38 -35 callsubr
          -5 -17 vvcurveto
          -494 vlineto
          -17 -2 -5 -34 callsubr
          -38 -31 callgsubr
          hintmask 01101110
          6 45 50 3 30 hhcurveto
          hintmask 10101110
          -57 callsubr
          hintmask 01101110
          6 50 59 3 32 hhcurveto
          hintmask 10101110
          -25 callgsubr
          494 vlineto
          -6 callsubr
          hintmask 10110110
          -6 -45 -50 -3 -30 hhcurveto
          hintmask 10101110
          -25 callsubr
          endchar
        </CharString>
        <CharString name="Hbar">
          327 -69 callsubr
          305 68 105 52 -52 172 9 -60 callgsubr
          317 129 hintmask 10110111
          46 530 rmoveto
          -10 -52 rlineto
          84 -400 hlineto
          -17 -2 -5 -34 callsubr
          -38 -31 callgsubr
          hintmask 01110111
          6 45 50 3 30 hhcurveto
          hintmask 10110111
          -57 callsubr
          hintmask 01110111
          6 50 59 3 32 hhcurveto
          hintmask 10110111
          -25 callgsubr
          400 74 vlineto
          10 52 rlineto
          -84 42 hlineto
          -6 callsubr
          hintmask 10101011
          -6 -45 -50 -3 -30 hhcurveto
          hintmask 10110111
          -25 callsubr
          -40 -317 42 vlineto
          -5 callsubr
          hintmask 10101011
          -6 -49 -59 -3 -32 hhcurveto
          hintmask 10110111
          -30 -50 3 6 -44 hvcurveto
          -9 -6 callgsubr
          38 -35 callsubr
          -5 -17 vvcurveto
          -42 vlineto
          446 -157 rmoveto
          -317 105 317 hlineto
          endchar
        </CharString>
        <CharString name="Hcircumflex">
          327 -69 callsubr
          305 68 277 -20 222 -60 callgsubr
          317 129 hintmask 10111110
          566 373 rmoveto
          -317 199 hlineto
          -5 callsubr
          -6 -49 -59 -3 -32 hhcurveto
          -30 -50 3 6 -44 hvcurveto
          -9 -6 callgsubr
          38 -35 callsubr
          -5 -17 vvcurveto
          -494 vlineto
          -17 -2 -5 -34 callsubr
          -38 -31 callgsubr
          hintmask 01111110
          6 45 50 3 30 hhcurveto
          hintmask 10111110
          -57 callsubr
          hintmask 01111110
          6 50 59 3 32 hhcurveto
          hintmask 10111110
          -25 callgsubr
          494 vlineto
          -6 callsubr
          -6 -45 -50 -3 -30 hhcurveto
          -25 callsubr
          -51 118 -98 callgsubr
          endchar
        </CharString>
        <CharString name="I">
          -119 12 -21 30 -21 650 0 callgsubr
          hintmask 10011000
          249 -72 callgsubr
          hintmask 10101000
          -54 callgsubr
          hintmask 10011000
          -29 -55 3 6 -46 hvcurveto
          -7 -6 callgsubr
          39 -8 17 -10 vhcurveto
          15 -8 1 -5 -17 vvcurveto
          -494 vlineto
          -17 -1 -5 -15 -8 vhcurveto
          -17 -10 -39 -55 callsubr
          hintmask 01011000
          -40 callgsubr
          hintmask 10011000
          6 callsubr
        </CharString>
        <CharString name="IJ">
          184 -239 -21 281 -21 650 0 callgsubr
          202 129 hintmask 11011100
          249 -72 callgsubr
          hintmask 11101100
          -54 callgsubr
          hintmask 11011100
          -29 -55 3 6 -46 hvcurveto
          -7 -6 callgsubr
          39 -8 17 -10 vhcurveto
          15 -8 1 -5 -17 vvcurveto
          -494 vlineto
          -17 -1 -5 -15 -8 vhcurveto
          -17 -10 -39 -55 callsubr
          -40 callgsubr
          -85 callsubr
          202 -78 rmoveto
          -50 callgsubr
          hintmask 11101100
          -54 callgsubr
          hintmask 11011100
          -29 -55 3 6 -46 hvcurveto
          -7 -6 callgsubr
          39 -8 17 -10 vhcurveto
          15 -8 1 -5 -17 vvcurveto
          endchar
        </CharString>
        <CharString name="Iacute">
          -149 -27 callsubr
          217 -20 hstemhm
          105 129 hintmask 10111000
          234 572 -97 callgsubr
          hintmask 01111000
          -40 callgsubr
          hintmask 10111000
          -85 callsubr
          72 750 -93 callsubr
          endchar
        </CharString>
        <CharString name="Ibreve">
          -119 -27 callsubr
          62 87 66 -60 callgsubr
          hintmask 10111100
          249 572 -97 callgsubr
          hintmask 01111100
          -40 callgsubr
          hintmask 10111100
          -85 callsubr
          41 767 -89 callgsubr
          endchar
        </CharString>
        <CharString name="Icircumflex">
          -149 -27 callsubr
          222 -20 hstemhm
          105 129 hintmask 10111000
          234 572 -97 callgsubr
          hintmask 01111000
          -40 callgsubr
          hintmask 10111000
          -85 callsubr
          45 610 -98 callgsubr
          endchar
        </CharString>
        <CharString name="Idieresis">
          -149 -27 callsubr
          57 134 hstemhm
          -16 151 -30 129 -27 151 hintmask 10110100
          234 572 -97 callgsubr
          hintmask 01111010
          -40 callgsubr
          hintmask 10110100
          -85 callsubr
          hintmask 10111010
          -250 676 rmoveto
          -99 callgsubr
          223 hmoveto
          -99 callgsubr
          endchar
        </CharString>
        <CharString name="Idot">
          -119 -27 callsubr
          62 146 hstemhm
          103 167 -150 129 hintmask 10110100
          249 572 -97 callgsubr
          hintmask 01111000
          -40 callgsubr
          hintmask 10110100
          -85 callsubr
          hintmask 10111000
          -146 687 rmoveto
          -90 callsubr
        </CharString>
        <CharString name="Igrave">
          -149 -27 callsubr
          217 -20 hstemhm
          105 129 hintmask 10111000
          234 572 -97 callgsubr
          hintmask 01111000
          -40 callgsubr
          hintmask 10111000
          -85 callsubr
          -217 721 -75 callgsubr
          endchar
        </CharString>
        <CharString name="Imacron">
          -119 -27 callsubr
          75 76 -62 callgsubr
          hintmask 10111000
          63 705 rmoveto
          233 hlineto
          14 76 rlineto
          -233 hlineto
          172 -209 -97 callgsubr
          hintmask 01111000
          -40 callgsubr
          hintmask 10111000
          6 callsubr
        </CharString>
        <CharString name="Iogonek">
          -119 -245 55 211 -8 callsubr
          29 -20 hstemhm
          80 90 -50 129 hintmask 11011000
          170 -143 rmoveto
          53 42 53 34 35 vhcurveto
          23 -1 24 -3 23 -3 7 39 rcurveline
          0 -41 8 -17 10 vhcurveto
          hintmask 11010100
          -15 8 -1 -4 callsubr
          494 vlineto
          -101 callgsubr
          hintmask 11101000
          -54 callgsubr
          hintmask 11010100
          -29 -55 3 6 -46 hvcurveto
          -7 -6 callgsubr
          39 -8 17 -10 vhcurveto
          15 -8 1 -5 -17 vvcurveto
          -494 vlineto
          -17 -1 -5 -15 -8 vhcurveto
          -17 -10 -39 -55 callsubr
          -40 callgsubr
          21 hlineto
          hintmask 11011000
          -72 -53 -54 -38 -60 -84 callsubr
          endchar
        </CharString>
        <CharString name="Itilde">
          -119 -27 callsubr
          99 48 48 -60 callgsubr
          hintmask 10111100
          249 572 -97 callgsubr
          hintmask 01111100
          -40 callgsubr
          hintmask 10111100
          -85 callsubr
          -132 651 -104 callsubr
          endchar
        </CharString>
        <CharString name="J">
          -185 -239 -21 910 -20 29 -20 hstemhm
          82 129 hintmask 10110000
          82 hmoveto
          -50 callgsubr
          hintmask 11010000
          -54 callgsubr
          hintmask 10110000
          -29 -55 3 6 -46 hvcurveto
          -7 -6 callgsubr
          39 -8 17 -10 vhcurveto
          15 -8 1 -5 -17 vvcurveto
          endchar
        </CharString>
        <CharString name="Jcircumflex">
          -185 -239 -21 910 -20 222 -20 hstem
          82 129 vstem
          82 hmoveto
          -79 -41 -74 -71 -77 vhcurveto
          30 -30 96 71 rlineto
          114 85 1 62 92 vvcurveto
          522 vlineto
          -91 callgsubr
          172 116 -98 callgsubr
          endchar
        </CharString>
        <CharString name="K">
          229 12 -21 30 22 callsubr
          hintmask 01100100
          -66 callgsubr
          hintmask 01011000
          -7 39 rlineto
          hintmask 01101000
          -54 callgsubr
          hintmask 10011000
          -29 -55 3 6 -46 hvcurveto
          -7 -6 callgsubr
          39 -8 17 -10 vhcurveto
          15 -8 1 -5 -17 vvcurveto
          -494 vlineto
          -17 -1 -5 -15 -8 vhcurveto
          -17 -10 -39 -55 callsubr
          hintmask 01101000
          -40 callgsubr
          hintmask 10101000
          32 59 -3 -6 50 hvcurveto
          7 39 rlineto
          0 -49 8 -17 callgsubr
          -4 callsubr
          endchar
        </CharString>
        <CharString name="Kcommaaccent">
          229 -249 -21 291 22 callsubr
          -129 101 hintmask 11100100
          -66 callgsubr
          hintmask 11011010
          -7 39 rlineto
          hintmask 11101010
          -54 callgsubr
          hintmask 11011010
          -29 -55 3 6 -46 hvcurveto
          -7 -6 callgsubr
          39 -8 17 -10 vhcurveto
          15 -8 1 -5 -17 vvcurveto
          -494 vlineto
          -17 -1 -5 -15 -8 vhcurveto
          -17 -10 -39 -55 callsubr
          -40 callgsubr
          32 59 -3 -6 50 hvcurveto
          7 39 rlineto
          0 -49 8 -17 callgsubr
          -4 callsubr
          60 -205 rmoveto
          -101 callsubr
        </CharString>
        <CharString name="L">
          52 0 63 -51 -21 659 0 callgsubr
          hintmask 10011000
          -61 callsubr
          hintmask 10101000
          16 callsubr
          hintmask 01011000
          -78 callsubr
          hintmask 10011000
          -65 callsubr
          hlineto
          endchar
        </CharString>
        <CharString name="Lacute">
          52 0 63 -51 -21 659 -20 217 -60 callgsubr
          hintmask 01111000
          -61 callsubr
          16 callsubr
          -78 callsubr
          hintmask 10111000
          -65 callsubr
          hlineto
          81 765 -93 callsubr
          endchar
        </CharString>
        <CharString name="Lcaron">
          52 0 63 -51 -21 659 -20 90 -60 callgsubr
          188 101 hintmask 01111100
          -61 callsubr
          16 callsubr
          -78 callsubr
          hintmask 10111100
          -65 callsubr
          hlineto
          137 566 rmoveto
          -101 callsubr
        </CharString>
        <CharString name="Lcommaaccent">
          52 1 callsubr
          36 0 63 587 0 callgsubr
          44 101 hintmask 11001110
          -61 callsubr
          hintmask 11010110
          16 callsubr
          hintmask 11001110
          -78 callsubr
          5 55 38 5 callgsubr
          334 hlineto
          8 29 14 108 1 32 -48 9 rcurveline
          hintmask 10101110
          -8 -26 -34 -73 -19 -16 rrcurveto
          -176 hlineto
          -7 -190 -27 callgsubr
          hintmask 11001110
          -88 callsubr
        </CharString>
        <CharString name="Ldot">
          52 0 63 -51 -21 287 146 226 0 callgsubr
          91 167 hintmask 10101110
          -61 callsubr
          hintmask 10110110
          16 callsubr
          hintmask 01101110
          -78 callsubr
          hintmask 10101110
          -65 callsubr
          hlineto
          91 288 rmoveto
          -90 callsubr
        </CharString>
        <CharString name="Lslash">
          52 0 63 -51 -21 659 0 callgsubr
          hintmask 10011000
          -61 callsubr
          hintmask 10101000
          16 callsubr
          hintmask 01011000
          -30 -57 3 6 -46 hvcurveto
          -9 -6 callgsubr
          38 -35 callsubr
          -6 -17 vvcurveto
          -232 vlineto
          -97 -52 14 -53 83 44 rlineto
          -199 vlineto
          -17 -2 -7 -42 callsubr
          hintmask 10011000
          -65 callsubr
          284 hlineto
          148 80 -14 53 -134 -72 rlineto
          endchar
        </CharString>
        <CharString name="M">
          456 3 -21 39 10 callgsubr
          118 79 506 122 hintmask 01011100
          -11 callsubr
          hintmask 01101100
          -5 -28 -71 -5 -26 hhcurveto
          hintmask 01011100
          -58 callgsubr
          hintmask 10011100
          -36 callsubr
          hintmask 01011100
          -37 callsubr
          hintmask 01101100
          -8 -46 -49 -2 -22 hhcurveto
          hintmask 01011100
          25 callsubr
          endchar
        </CharString>
        <CharString name="Macute">
          456 3 -21 39 -8 callsubr
          217 -20 hstemhm
          118 79 506 122 hintmask 01111100
          -11 callsubr
          -5 -28 -71 -5 -26 hhcurveto
          -58 callgsubr
          hintmask 10111100
          -36 callsubr
          hintmask 01111100
          -37 callsubr
          -8 -46 -49 -2 -22 hhcurveto
          25 callsubr
          -23 243 -93 callsubr
          endchar
        </CharString>
        <CharString name="N">
          281 7 -21 35 10 callgsubr
          120 85 370 85 hintmask 10011100
          -40 callsubr
          hintmask 10101100
          -6 -41 -39 -4 -28 hhcurveto
          hintmask 10011100
          -87 callsubr
          hintmask 10101100
          -5 -28 -54 -5 -26 hhcurveto
          hintmask 01011100
          -20 -44 2 8 -44 hvcurveto
          -7 -6 callgsubr
          40 -9 19 -9 vhcurveto
          14 -7 2 -13 callsubr
          -7 -15 -7 vhcurveto
          -21 -11 -41 -7 35 callgsubr
          -71 callgsubr
          endchar
        </CharString>
        <CharString name="Nacute">
          276 33 callgsubr
          217 -20 hstemhm
          121 85 370 85 hintmask 10111100
          206 525 rmoveto
          5 4 rlineto
          0 19 -41 17 -24 vhcurveto
          200 -286 rlineto
          77 -110 37 -82 0 vvcurveto
          108 21 rlineto
          0 -8 99 87 vvcurveto
          380 vlineto
          16 3 7 14 7 vhcurveto
          20 10 38 8 -44 callgsubr
          -6 -41 -39 -4 -28 hhcurveto
          -87 callsubr
          -5 -28 -54 -5 -26 hhcurveto
          -20 -44 2 8 -44 hvcurveto
          -7 -6 callgsubr
          40 -9 19 -9 vhcurveto
          14 -7 2 -13 callsubr
          -7 -15 -7 vhcurveto
          -21 -11 -41 -7 35 callgsubr
          hintmask 01111100
          -71 callgsubr
          321 741 -93 callsubr
          endchar
        </CharString>
        <CharString name="Ncaron">
          281 33 callgsubr
          226 -20 hstemhm
          120 85 370 85 hintmask 10111100
          -40 callsubr
          -6 -41 -39 -4 -28 hhcurveto
          -87 callsubr
          -5 -28 -54 -5 -26 hhcurveto
          -20 -44 2 8 -44 hvcurveto
          -7 -6 callgsubr
          40 -9 19 -9 vhcurveto
          14 -7 2 -13 callsubr
          -7 -15 -7 vhcurveto
          -21 -11 -41 -7 35 callgsubr
          hintmask 01111100
          -71 callgsubr
          77 769 -91 callsubr
        </CharString>
        <CharString name="Ncommaaccent">
          281 -249 -21 291 10 callgsubr
          120 85 168 101 101 85 hintmask 11011110
          -40 callsubr
          hintmask 11101110
          -6 -41 -39 -4 -28 hhcurveto
          hintmask 11011110
          -87 callsubr
          hintmask 11101110
          -5 -28 -54 -5 -26 hhcurveto
          hintmask 11011110
          -20 -44 2 8 -44 hvcurveto
          -7 -6 callgsubr
          40 -9 19 -9 vhcurveto
          14 -7 2 -13 callsubr
          -7 -15 -7 vhcurveto
          -21 -11 -41 -7 35 callgsubr
          -71 callgsubr
          117 -214 rmoveto
          -101 callsubr
        </CharString>
        <CharString name="Ntilde">
          276 33 callgsubr
          100 48 48 -20 hstemhm
          121 85 370 85 hintmask 10111110
          206 525 rmoveto
          5 4 rlineto
          0 19 -41 17 -24 vhcurveto
          200 -286 rlineto
          77 -110 37 -82 0 vvcurveto
          108 21 rlineto
          0 -8 99 87 vvcurveto
          380 vlineto
          16 3 7 14 7 vhcurveto
          20 10 38 8 -44 callgsubr
          -6 -41 -39 -4 -28 hhcurveto
          -87 callsubr
          -5 -28 -54 -5 -26 hhcurveto
          -20 -44 2 8 -44 hvcurveto
          -7 -6 callgsubr
          40 -9 19 -9 vhcurveto
          14 -7 2 -13 callsubr
          -7 -15 -7 vhcurveto
          -21 -11 -41 -7 35 callgsubr
          hintmask 01111110
          -71 callgsubr
          117 643 -104 callsubr
          endchar
        </CharString>
        <CharString name="O">
          283 -7 callsubr
          hstem
          40 19 callsubr
          40 -103 callgsubr
          endchar
        </CharString>
        <CharString name="OE">
          458 -16 63 -47 63 242 63 220 62 -42 58 hstemhm
          40 141 307 129 hintmask 10110110
          533 650 rmoveto
          -26 -33 4 5 -39 hvcurveto
          hintmask 10101110
          5 -20 -24 2 -23 hhcurveto
          -203 -125 -156 -206 -200 130 -120 203 21 22 3 5 19 hvcurveto
          1 1 rlineto
          hintmask 01110110
          4 36 38 3 23 -47 callsubr
          8 -18 9 -44 0 vvcurveto
          43 6 rlineto
          -5 35 -3 42 23 vvcurveto
          22 3 44 5 33 vhcurveto
          -43 6 rlineto
          0 -9 -41 -8 -15 vhcurveto
          -13 -7 -10 -2 -16 hhcurveto
          -100 220 170 hlineto
          13 -15 15 -61 4 -22 52 9 rcurveline
          157 vlineto
          -4 -25 -40 -2 -22 hhcurveto
          hintmask 10101110
          -402 -603 rmoveto
          -141 -60 142 156 145 53 118 125 53 42 -16 -27 34 hvcurveto
          -486 vlineto
          -10 vlineto
          -15 -29 -34 -7 -43 hhcurveto
          endchar
        </CharString>
        <CharString name="Oacute">
          267 -7 callsubr
          181 -20 hstem
          32 19 callsubr
          32 -103 callgsubr
          337 483 -93 callsubr
          endchar
        </CharString>
        <CharString name="Obreve">
          283 -7 callsubr
          26 87 66 -20 hstem
          40 19 callsubr
          40 -103 callgsubr
          306 500 -89 callgsubr
          endchar
        </CharString>
        <CharString name="Ocircumflex">
          267 -7 callsubr
          186 -20 hstem
          32 19 callsubr
          32 -103 callgsubr
          310 343 -98 callgsubr
          endchar
        </CharString>
        <CharString name="Odieresis">
          267 -7 callsubr
          21 134 hstem
          32 141 15 8 callgsubr
          20 141 vstem
          32 -103 callgsubr
          15 409 rmoveto
          -99 callgsubr
          223 hmoveto
          -99 callgsubr
          endchar
        </CharString>
        <CharString name="Ograve">
          267 -7 callsubr
          181 -20 hstem
          32 19 callsubr
          32 -103 callgsubr
          48 454 -75 callgsubr
          endchar
        </CharString>
        <CharString name="Ohorn">
          283 -7 callsubr
          113 -20 hstemhm
          40 17 callgsubr
          -89 103 hintmask 11111000
          40 309 rmoveto
          -203 136 -122 212 212 131 154 203 105 -37 83 -64 56 vhcurveto
          hintmask 11110100
          63 22 52 34 63 -46 callgsubr
          -29 -29 -17 -24 -9 vhcurveto
          33 -56 -69 18 -81 hhcurveto
          -212 -131 -154 -203 hvcurveto
          141 36 rmoveto
          145 58 118 135 vhcurveto
          hintmask 11111000
          150 66 -144 -159 -145 -45 callgsubr
          144 159 hvcurveto
          endchar
        </CharString>
        <CharString name="Ohungarumlaut">
          283 -7 callsubr
          224 -20 hstem
          40 19 callsubr
          40 -103 callgsubr
          388 545 -89 callsubr
        </CharString>
        <CharString name="Omacron">
          283 -7 callsubr
          39 76 hstem
          40 19 callsubr
          40 -103 callgsubr
          64 360 -18 callgsubr
          endchar
        </CharString>
        <CharString name="Oslash">
          287 -16 58 -55 -21 642 58 33 -72 callsubr
          endchar
        </CharString>
        <CharString name="Oslashacute">
          287 -16 58 -55 -21 642 58 181 -72 callsubr
          337 483 -93 callsubr
          endchar
        </CharString>
        <CharString name="Otilde">
          267 -7 callsubr
          68 48 48 -20 hstem
          32 19 callsubr
          32 -103 callgsubr
          133 389 -104 callsubr
          endchar
        </CharString>
        <CharString name="P">
          70 -69 callsubr
          273 42 294 28 callsubr
          158 139 hintmask 10111100
          249 602 rmoveto
          3 9 16 4 12 hhcurveto
          73 48 -44 -104 -100 -38 -46 -73 hvcurveto
          -1 callgsubr
          105 108 88 113 138 -112 46 -147 12 callgsubr
          -490 vlineto
          -33 callsubr
          endchar
        </CharString>
        <CharString name="Q">
          283 -213 98 4 151 -55 55 568 58 hstemhm
          40 17 callgsubr
          hintmask 11011100
          40 309 rmoveto
          -198 128 -120 203 -7 vhcurveto
          -28 -17 -69 -73 -22 -30 35 -27 rcurveline
          18 15 38 34 25 51 75 -102 77 hhcurveto
          42 35 25 94 69 hvcurveto
          -28 36 rlineto
          -32 -23 -31 -25 -29 hhcurveto
          hintmask 10111100
          -62 -83 86 14 -57 hvcurveto
          204 6 126 151 199 vvcurveto
          203 -136 122 -212 -212 -131 -154 -203 vhcurveto
          141 36 rmoveto
          145 58 118 135 150 66 -144 -159 -147 -45 callgsubr
          146 159 vhcurveto
          endchar
        </CharString>
        <CharString name="R">
          -9 callgsubr
          hstemhm
          120 129 158 139 hintmask 10010111
          -70 callgsubr
          hintmask 00110111
          5 50 55 4 30 hhcurveto
          hintmask 10010111
          -60 callsubr
          hintmask 01001111
          -83 callgsubr
          endchar
        </CharString>
        <CharString name="Racute">
          -9 callgsubr
          189 -81 callgsubr
          296 259 -93 callsubr
          endchar
        </CharString>
        <CharString name="Rcaron">
          -9 callgsubr
          198 -81 callgsubr
          52 287 -91 callsubr
        </CharString>
        <CharString name="Rcommaaccent">
          177 -249 -21 285 -21 27 -21 341 -21 289 28 callsubr
          94 101 -37 139 hintmask 10111101
          -70 callgsubr
          5 50 55 4 30 hhcurveto
          -60 callsubr
          hintmask 11011101
          -83 callgsubr
          172 -696 rmoveto
          hintmask 10111110
          -101 callsubr
        </CharString>
        <CharString name="S">
          30 callgsubr
          hstem
          55 124 173 132 vstem
          -97 callsubr
          endchar
        </CharString>
        <CharString name="Sacute">
          30 callgsubr
          181 -20 hstem
          55 124 173 132 vstem
          -97 callsubr
          164 788 -93 callsubr
          endchar
        </CharString>
        <CharString name="Scaron">
          30 callgsubr
          190 -20 hstem
          55 124 173 132 vstem
          -97 callsubr
          -80 816 -91 callsubr
        </CharString>
        <CharString name="Scedilla">
          36 0 callsubr
          56 55 572 54 hstemhm
          55 124 52 78 43 132 hintmask 10111110
          142 -85 callgsubr
          hintmask 01111110
          32 callsubr
          rlineto
          135 6 100 65 131 vvcurveto
          105 -90 52 -82 46 vhcurveto
          -69 38 -64 34 58 vvcurveto
          59 39 33 51 36 41 -11 -14 19 vhcurveto
          12 -30 4 -45 3 -37 49 7 rcurveline
          7 27 17 97 2 34 rrcurveto
          9 -51 -77 17 -54 hhcurveto
          -125 -97 -63 -116 -107 89 -49 80 -47 hvcurveto
          67 -39 61 -36 -64 vvcurveto
          -67 -46 -38 -58 -97 -40 74 85 -7 vhcurveto
          -52 -11 rlineto
          -4 -19 0 -45 -36 vvcurveto
          -29 0 -25 2 -13 vhcurveto
          31 -14 54 -14 51 -6 rrcurveto
          endchar
        </CharString>
        <CharString name="Scircumflex">
          30 callgsubr
          186 -20 hstem
          55 124 173 132 vstem
          -97 callsubr
          137 648 -98 callgsubr
          endchar
        </CharString>
        <CharString name="Scommaaccent">
          36 1 callsubr
          20 0 56 572 54 hstemhm
          55 124 31 101 41 132 hintmask 10111110
          -97 callsubr
          -89 -167 -27 callgsubr
          hintmask 11011110
          -88 callsubr
        </CharString>
        <CharString name="T">
          91 -69 callsubr
          588 15 callsubr
          hintmask 01101000
          289 hmoveto
          hintmask 10101000
          30 79 -4 -5 43 hvcurveto
          -62 callsubr
          rlineto
          hintmask 01101000
          5 43 78 4 30 hhcurveto
          endchar
        </CharString>
        <CharString name="Tbar">
          91 -69 callsubr
          311 52 225 15 callsubr
          hintmask 01110100
          289 hmoveto
          hintmask 10110100
          30 79 -4 -5 43 hvcurveto
          9 40 rlineto
          0 -61 12 -19 10 vhcurveto
          -13 7 -3 -4 callsubr
          229 140 vlineto
          10 52 rlineto
          -150 225 132 hlineto
          9 -23 10 -69 2 -26 56 9 rcurveline
          hintmask 10101100
          9 callsubr
          hintmask 10110100
          -9 callsubr
          hintmask 10101100
          -41 callsubr
          hintmask 10110100
          3 26 9 69 9 23 rrcurveto
          132 -225 -141 hlineto
          -10 -52 rlineto
          151 -229 hlineto
          -17 -2 -4 -14 -8 vhcurveto
          -19 -10 -61 -12 0 vvcurveto
          9 -40 rlineto
          hintmask 01110100
          5 43 78 4 30 hhcurveto
          endchar
        </CharString>
        <CharString name="Tcaron">
          91 -69 callsubr
          588 62 206 -20 hstemhm
          225 129 hintmask 01111000
          289 hmoveto
          hintmask 10111000
          -20 callgsubr
          9 callsubr
          -9 callsubr
          -41 callsubr
          -3 callgsubr
          hintmask 01111000
          5 43 78 4 30 hhcurveto
          -109 856 -91 callsubr
        </CharString>
        <CharString name="Tcedilla">
          91 0 callsubr
          659 15 callsubr
          -61 78 hintmask 10100100
          204 -85 callgsubr
          hintmask 01101000
          21 callsubr
          22 71 37 -2 54 -3 34 -4 rlinecurve
          -62 callsubr
          31 4 50 3 36 2 rlinecurve
          endchar
        </CharString>
        <CharString name="Tcommaaccent">
          91 1 callsubr
          36 588 15 callsubr
          -82 101 hintmask 11101000
          289 hmoveto
          -20 callgsubr
          hintmask 11011000
          9 callsubr
          hintmask 11101000
          -9 callsubr
          hintmask 11011000
          -41 callsubr
          hintmask 11101000
          -3 callgsubr
          5 43 78 4 30 hhcurveto
          -68 -127 rmoveto
          hintmask 11100100
          -101 callsubr
        </CharString>
        <CharString name="Thorn">
          59 -69 callsubr
          174 42 279 49 106 0 callgsubr
          158 139 hintmask 10110111
          249 488 rmoveto
          3 9 16 4 12 hhcurveto
          73 48 -41 -97 -97 -38 -44 -73 hvcurveto
          -1 callgsubr
          105 108 86 110 130 -112 44 -147 -13 -13 0 -1 -12 hvcurveto
          29 vlineto
          -79 callgsubr
          18 10 40 8 -44 callgsubr
          hintmask 10111011
          -54 callgsubr
          hintmask 10110111
          -29 -55 3 6 -46 hvcurveto
          -7 -6 callgsubr
          40 -8 16 -10 vhcurveto
          15 -8 1 -5 -17 vvcurveto
          -494 vlineto
          -17 -1 -5 -15 -8 vhcurveto
          -17 -10 -39 -55 callsubr
          hintmask 01110111
          -40 callgsubr
          hintmask 10110111
          6 callsubr
        </CharString>
        <CharString name="U">
          -12 callgsubr
          29 -20 hstemhm
          106 34 callgsubr
          hintmask 10111000
          648 -72 callgsubr
          hintmask 11011000
          -6 -40 -48 -3 -27 hhcurveto
          hintmask 10111000
          -23 -45 3 6 -34 hvcurveto
          -7 -6 callgsubr
          40 -8 16 -10 vhcurveto
          15 -8 1 -5 -17 vvcurveto
          -343 vlineto
          -103 -57 -65 -103 -118 -50 60 128 vhcurveto
          323 vlineto
          -101 callgsubr
          hintmask 11011000
          -54 callgsubr
          hintmask 10111000
          -94 callsubr
          endchar
        </CharString>
        <CharString name="Uacute">
          236 -14 75 589 -20 217 -20 hstem
          86 34 callgsubr
          vstem
          628 -107 callgsubr
          -121 583 -93 callsubr
          endchar
        </CharString>
        <CharString name="Ubreve">
          -12 callgsubr
          62 87 66 -20 hstem
          106 34 callgsubr
          vstem
          648 -107 callgsubr
          -152 600 -89 callgsubr
          endchar
        </CharString>
        <CharString name="Ucircumflex">
          236 -14 75 589 -20 222 -20 hstem
          86 34 callgsubr
          vstem
          628 -107 callgsubr
          -148 443 -98 callgsubr
          endchar
        </CharString>
        <CharString name="Udieresis">
          236 -14 75 589 -20 57 134 hstemhm
          86 129 -30 8 callgsubr
          -16 85 hintmask 11110010
          628 -107 callgsubr
          hintmask 11101100
          -443 509 rmoveto
          -99 callgsubr
          223 hmoveto
          -99 callgsubr
          endchar
        </CharString>
        <CharString name="Ugrave">
          236 -14 75 589 -20 217 -20 hstem
          86 34 callgsubr
          vstem
          628 -107 callgsubr
          -410 554 -75 callgsubr
          endchar
        </CharString>
        <CharString name="Uhorn">
          -12 callgsubr
          193 -20 hstem
          106 34 callgsubr
          94 103 vstem
          665 609 rmoveto
          84 27 96 29 83 -46 callgsubr
          -39 -51 -20 -25 -3 vhcurveto
          -4 -30 -9 2 -27 hhcurveto
          -23 -45 3 6 -34 hvcurveto
          -7 -6 callgsubr
          40 -8 16 -10 vhcurveto
          15 -8 1 -5 -17 vvcurveto
          -343 vlineto
          -103 -57 -65 -103 -118 -50 60 128 vhcurveto
          323 vlineto
          -91 callgsubr
          -339 vlineto
          -172 90 -75 181 174 97 88 171 vhcurveto
          327 vlineto
          17 0 14 17 6 vhcurveto
          endchar
        </CharString>
        <CharString name="Uhungarumlaut">
          -12 callgsubr
          260 -20 hstem
          106 34 callgsubr
          vstem
          648 -107 callgsubr
          -70 645 -89 callsubr
        </CharString>
        <CharString name="Umacron">
          -12 callgsubr
          75 76 hstem
          106 34 callgsubr
          vstem
          648 -107 callgsubr
          -394 460 -18 callgsubr
          endchar
        </CharString>
        <CharString name="Uogonek">
          266 -245 55 176 75 589 -20 29 -20 hstemhm
          106 129 45 90 193 85 hintmask 11011110
          370 -143 rmoveto
          49 36 49 32 35 vhcurveto
          135 19 75 86 150 vvcurveto
          327 vlineto
          -101 callgsubr
          hintmask 11101110
          -6 -40 -48 -3 -27 hhcurveto
          hintmask 11011110
          -23 -45 3 6 -34 hvcurveto
          -7 -6 callgsubr
          40 -8 16 -10 vhcurveto
          15 -8 1 -5 -17 vvcurveto
          -343 vlineto
          -103 -57 -65 -103 -118 -50 60 128 vhcurveto
          323 vlineto
          -101 callgsubr
          hintmask 11101110
          -54 callgsubr
          hintmask 11011110
          -29 -55 3 6 -46 hvcurveto
          -7 -6 callgsubr
          39 -8 17 -10 vhcurveto
          15 -8 1 -5 -17 vvcurveto
          -339 vlineto
          -172 90 -75 181 vhcurveto
          10 hlineto
          -62 -46 -45 -36 -55 -84 callsubr
          endchar
        </CharString>
        <CharString name="Uring">
          -12 callgsubr
          62 45 90 45 hstem
          106 129 54 60 83 60 71 85 vstem
          648 -107 callgsubr
          -299 537 -86 callgsubr
          endchar
        </CharString>
        <CharString name="Utilde">
          -12 callgsubr
          99 48 48 -20 hstem
          106 34 callgsubr
          vstem
          648 -107 callgsubr
          -325 484 -104 callsubr
          endchar
        </CharString>
        <CharString name="V">
          152 14 -21 657 -20 29 -20 hstemhm
          hintmask 10100000
          359 177 rmoveto
          -6 -44 -7 3 -10 41 -133 384 -8 22 10 10 21 9 rlinecurve
          21 8 36 10 -44 callgsubr
          hintmask 11000000
          -6 -50 -75 -3 -31 hhcurveto
          hintmask 10100000
          -28 -45 3 6 -44 hvcurveto
          -9 -39 53 -13 3 -8 22 -60 rlinecurve
          197 -546 rlineto
          94 hlineto
          207 546 20 61 3 7 53 13 rlinecurve
          -8 39 rlineto
          hintmask 11000000
          -6 -40 -29 -3 -26 hhcurveto
          hintmask 10100000
          -28 -52 3 6 -43 hvcurveto
          -7 -6 callgsubr
          39 -11 20 -7 vhcurveto
          22 -7 8 -14 -7 -20 rrcurveto
          endchar
        </CharString>
        <CharString name="W">
          13 callgsubr
          29 -20 hstemhm
          hintmask 10100000
          950 539 rmoveto
          19 61 4 7 53 13 -8 39 rcurveline
          hintmask 11000000
          -6 -40 -29 -3 -26 hhcurveto
          hintmask 10100000
          -28 -50 3 6 -43 hvcurveto
          -7 -6 callgsubr
          39 -11 20 -7 vhcurveto
          17 -5 8 -10 -13 vvcurveto
          -4 0 -4 -2 -5 vhcurveto
          -118 -376 -6 -30 -5 1 -6 26 -152 467 rlineto
          -102 hlineto
          -152 -467 -4 -33 -6 1 -6 29 -119 382 rlineto
          -2 5 0 4 4 vvcurveto
          13 8 9 17 6 vhcurveto
          21 9 36 9 -44 callgsubr
          hintmask 11000000
          -6 -50 -73 -3 -31 hhcurveto
          hintmask 10100000
          -28 -46 3 6 -44 hvcurveto
          -8 -39 53 -13 5 -7 20 -61 rlinecurve
          182 -547 rlineto
          94 hlineto
          150 455 8 34 5 -1 6 -27 154 -461 rlineto
          93 hlineto
          endchar
        </CharString>
        <CharString name="Wacute">
          13 callgsubr
          218 -20 hstem
          -99 callsubr
          -93 837 -93 callsubr
          endchar
        </CharString>
        <CharString name="Wcircumflex">
          13 callgsubr
          223 -20 hstem
          -99 callsubr
          -120 697 -98 callgsubr
          endchar
        </CharString>
        <CharString name="Wdieresis">
          13 callgsubr
          64 134 hstem
          349 8 callgsubr
          vstem
          -99 callsubr
          -415 769 rmoveto
          -99 callgsubr
          223 hmoveto
          -99 callgsubr
          endchar
        </CharString>
        <CharString name="Wgrave">
          13 callgsubr
          218 -20 hstem
          -99 callsubr
          -382 808 -75 callgsubr
          endchar
        </CharString>
        <CharString name="X">
          208 11 -21 31 -8 callsubr
          29 -20 hstemhm
          hintmask 01010000
          449 89 rmoveto
          4 -5 1 -8 -4 vvcurveto
          -12 -13 -7 -15 -7 vhcurveto
          -19 -8 -31 -55 callsubr
          6 46 87 3 31 hhcurveto
          28 60 -3 -6 44 hvcurveto
          8 39 -42 9 -16 14 -40 56 rlinecurve
          -171 238 158 205 37 50 5 5 56 13 rlinecurve
          -9 39 rlineto
          hintmask 01100000
          -6 -40 -31 -3 -26 hhcurveto
          hintmask 01010000
          -28 -52 3 6 -43 hvcurveto
          -7 -6 callgsubr
          34 -4 18 -12 vhcurveto
          7 -4 10 -11 -12 vvcurveto
          -4 -1 -8 -3 -4 vhcurveto
          -121 -164 -117 164 rlineto
          -3 5 -1 7 5 vvcurveto
          12 8 9 9 5 vhcurveto
          18 10 32 6 -44 callgsubr
          hintmask 01100000
          -6 -45 -85 -3 -31 hhcurveto
          hintmask 10010000
          -28 -53 3 6 -44 hvcurveto
          -8 -39 45 -9 20 -16 38 -54 rlinecurve
          151 -215 -179 -228 -37 -47 -22 -13 -34 -9 rlinecurve
          8 -39 rlineto
          hintmask 01010000
          6 40 38 4 26 hhcurveto
          28 54 -3 -6 43 hvcurveto
          7 39 rlineto
          0 -31 8 -19 8 vhcurveto
          -16 7 -12 8 12 vvcurveto
          4 2 7 3 5 vhcurveto
          138 185 rlineto
          endchar
        </CharString>
        <CharString name="Y">
          -21 callgsubr
          30 -20 hstemhm
          245 119 hintmask 10011000
          -57 callgsubr
          hintmask 01011000
          -8 callgsubr
          hintmask 10011000
          30 63 -3 -5 47 hvcurveto
          9 8 callsubr
          -51 9 -17 callgsubr
          6 17 vvcurveto
          198 vlineto
          157 276 26 55 23 11 38 4 rlinecurve
          4 38 rlineto
          hintmask 10101000
          -5 -34 -41 -5 -32 hhcurveto
          hintmask 10011000
          -40 -44 5 5 -41 hvcurveto
          3 -38 12 -3 38 -8 16 -10 rlinecurve
          6 -5 3 -8 -8 vvcurveto
          -7 -4 -9 -6 -10 vhcurveto
          -106 -194 -111 193 rlineto
          -5 8 -3 10 7 vvcurveto
          13 8 10 9 5 vhcurveto
          17 10 29 6 0 vvcurveto
          3 38 rlineto
          hintmask 10101000
          -5 -42 -70 -5 -51 hhcurveto
          hintmask 10011000
          -47 -41 4 6 -42 hvcurveto
          4 -38 38 -4 18 -11 24 -48 rlinecurve
          endchar
        </CharString>
        <CharString name="Yacute">
          104 13 -21 29 -8 callsubr
          217 -20 hstemhm
          229 119 hintmask 10111000
          229 274 rmoveto
          -196 vlineto
          -52 callsubr
          -19 -10 -48 -64 callgsubr
          8 -37 rlineto
          hintmask 01111000
          -8 callgsubr
          hintmask 10111000
          -105 callsubr
          378 269 -93 callsubr
          endchar
        </CharString>
        <CharString name="Ycircumflex">
          -21 callgsubr
          222 -20 hstemhm
          245 119 hintmask 10111000
          -57 callgsubr
          hintmask 01111000
          -8 callgsubr
          hintmask 10111000
          -105 callsubr
          351 129 -98 callgsubr
          endchar
        </CharString>
        <CharString name="Ydieresis">
          -21 callgsubr
          64 134 hstemhm
          136 151 -42 119 -5 151 hintmask 10110100
          -57 callgsubr
          hintmask 01111010
          -8 callgsubr
          hintmask 10110100
          -105 callsubr
          hintmask 10111010
          56 202 rmoveto
          -99 callgsubr
          223 hmoveto
          -99 callgsubr
          endchar
        </CharString>
        <CharString name="Ygrave">
          -21 callgsubr
          217 -20 hstemhm
          245 119 hintmask 10111000
          -57 callgsubr
          hintmask 01111000
          -8 callgsubr
          hintmask 10111000
          -105 callsubr
          89 240 -75 callgsubr
          endchar
        </CharString>
        <CharString name="Ytilde">
          -21 callgsubr
          99 48 48 -20 hstemhm
          245 119 hintmask 10111100
          -57 callgsubr
          hintmask 01111100
          -8 callgsubr
          hintmask 10111100
          -105 callsubr
          174 170 -104 callsubr
          endchar
        </CharString>
        <CharString name="Z">
          29 callsubr
          13 -20 hstemhm
          hintmask 11000000
          32 52 rmoveto
          14 -52 rlineto
          481 hlineto
          10 35 23 129 2 38 -51 12 rcurveline
          -12 -34 -49 -92 -22 -20 rrcurveto
          -240 hlineto
          351 527 -9 55 rlineto
          -362 hlineto
          hintmask 10100000
          -41 -30 13 0 hvcurveto
          -34 -18 rlineto
          -6 -38 0 -109 -39 vvcurveto
          50 -9 rlineto
          hintmask 11000000
          9 38 22 67 20 27 rrcurveto
          228 hlineto
          endchar
        </CharString>
        <CharString name="Zacute">
          29 callsubr
          197 -20 hstem
          -73 callsubr
          55 246 -93 callsubr
          endchar
        </CharString>
        <CharString name="Zcaron">
          29 callsubr
          206 -20 hstem
          -73 callsubr
          -189 274 -91 callsubr
        </CharString>
        <CharString name="Zdot">
          29 callsubr
          42 146 hstem
          223 167 vstem
          -73 callsubr
          -163 183 rmoveto
          -90 callsubr
        </CharString>
        <CharString name="a">
          -23 callgsubr
          hstem
          30 120 110 120 vstem
          -88 callgsubr
          -106 callgsubr
          endchar
        </CharString>
        <CharString name="aacute">
          -23 callgsubr
          248 -20 hstem
          30 120 110 120 vstem
          -88 callgsubr
          -106 callgsubr
          -50 593 -92 callsubr
          endchar
        </CharString>
        <CharString name="abreve">
          -23 callgsubr
          69 87 66 -20 hstem
          30 120 110 120 vstem
          -88 callgsubr
          -106 callgsubr
          -54 567 -89 callgsubr
          endchar
        </CharString>
        <CharString name="acircumflex">
          -23 callgsubr
          241 -20 hstem
          30 120 110 120 vstem
          -88 callgsubr
          -106 callgsubr
          -65 402 -95 callgsubr
          endchar
        </CharString>
        <CharString name="acute">
          515 -21 191 -20 hstem
          243 685 -92 callsubr
          endchar
        </CharString>
        <CharString name="acute.case">
          701 -21 167 -20 hstem
          265 828 -93 callsubr
          endchar
        </CharString>
        <CharString name="adieresis">
          -23 callgsubr
          83 134 hstemhm
          30 120 -120 156 74 120 -120 149 hintmask 11110100
          -88 callgsubr
          -106 callgsubr
          -345 495 rmoveto
          -40 31 -27 44 vhcurveto
          hintmask 11101010
          45 31 27 40 40 -31 27 -45 -45 -30 -27 -40 hvcurveto
          223 hmoveto
          -99 callgsubr
          endchar
        </CharString>
        <CharString name="ae">
          37 callgsubr
          25 callgsubr
          hintmask 11011100
          -29 callsubr
          hintmask 10111100
          -44 callsubr
          -195 -156 -35 callgsubr
        </CharString>
        <CharString name="aeacute">
          37 callgsubr
          248 -20 25 callgsubr
          hintmask 11011110
          -29 callsubr
          hintmask 10111110
          -44 callsubr
          69 475 -92 callsubr
          -277 -604 -35 callgsubr
        </CharString>
        <CharString name="agrave">
          -23 callgsubr
          248 -20 hstem
          30 120 110 120 vstem
          -88 callgsubr
          -106 callgsubr
          -284 566 -76 callgsubr
        </CharString>
        <CharString name="amacron">
          -23 callgsubr
          111 76 hstem
          30 120 110 120 vstem
          -88 callgsubr
          -106 callgsubr
          -301 456 -24 callgsubr
        </CharString>
        <CharString name="ampersand">
          154 -16 54 -24 -21 564 53 hstemhm
          35 129 -61 114 0 106 0 116 hintmask 10101010
          578 243 rmoveto
          -22 29 -57 52 -22 18 -33 -21 rcurveline
          18 -34 12 -33 -30 vvcurveto
          -23 -6 -21 -12 -20 vhcurveto
          -48 50 -52 57 -41 46 -5 5 -6 6 -5 6 rrcurveto
          68 16 72 59 77 vvcurveto
          78 -77 50 -93 -83 -83 -63 -85 -65 19 -34 37 -41 vhcurveto
          2 -2 2 -3 2 -2 rrcurveto
          hintmask 10110010
          -78 -32 -52 -51 -85 vvcurveto
          -115 108 -48 124 60 49 23 34 42 vhcurveto
          hintmask 01110010
          -29 30 24 -19 10 hhcurveto
          165 hlineto
          7 37 rlineto
          -27 -31 4 17 -23 hvcurveto
          -19 13 -29 27 -33 32 30 38 35 45 21 37 rrcurveto
          -197 -165 rmoveto
          hintmask 10110010
          -23 -31 -35 -17 -42 hhcurveto
          -62 -47 58 66 42 11 40 26 31 hvcurveto
          51 -57 70 -79 59 -61 rrcurveto
          hintmask 10110100
          -164 410 rmoveto
          39 19 30 27 38 22 -37 -42 -56 -28 -42 -25 -14 vhcurveto
          -29 38 -24 42 42 vvcurveto
          endchar
        </CharString>
        <CharString name="aogonek">
          -29 -245 55 174 75 323 55 hstem
          30 120 16 90 4 120 vstem
          256 -143 rmoveto
          47 33 47 31 35 vhcurveto
          43 13 40 11 47 -80 callsubr
          199 vlineto
          99 -49 47 -108 -47 -92 -37 -17 -37 vhcurveto
          1 -29 21 -68 8 -25 62 17 rcurveline
          22 0 48 6 21 vhcurveto
          6 12 24 7 23 hhcurveto
          47 9 -42 -63 hvcurveto
          -47 vlineto
          -67 -8 rlineto
          -92 -11 -71 -24 -87 vvcurveto
          -69 50 -47 78 27 27 13 51 51 vhcurveto
          5 -20 11 -16 14 -12 rrcurveto
          -43 callgsubr
          -63 202 rmoveto
          -26 -17 25 28 42 23 17 35 8 hvcurveto
          52 11 rlineto
          -102 vlineto
          -18 -21 -26 -11 -20 hhcurveto
          endchar
        </CharString>
        <CharString name="aring">
          -23 callgsubr
          61 45 90 45 32 callgsubr
          hintmask 11111010
          -88 callgsubr
          hintmask 11111001
          -106 callgsubr
          hintmask 11110110
          -201 496 -86 callgsubr
          endchar
        </CharString>
        <CharString name="aringacute">
          -23 callgsubr
          61 45 90 45 169 -20 32 callgsubr
          hintmask 1111110100000000
          -88 callgsubr
          hintmask 1111110010000000
          -106 callgsubr
          hintmask 1111101100000000
          -201 496 -86 callgsubr
          234 240 -93 callsubr
          endchar
        </CharString>
        <CharString name="asciicircum">
          -12 301 -21 391 -20 hstem
          32 311 rmoveto
          74 -31 132 295 132 -295 74 31 -172 360 rlineto
          -68 hlineto
          endchar
        </CharString>
        <CharString name="asciitilde">
          15 180 -21 180 -20 hstem
          157 237 rmoveto
          49 79 -66 -12 46 hvcurveto
          35 6 26 21 61 83 20 38 rlinecurve
          -39 21 rlineto
          -35 -27 -30 -30 -31 hhcurveto
          -49 -79 64 12 -46 hvcurveto
          -35 -6 -26 -22 -61 -76 -20 -37 rlinecurve
          39 -26 rlineto
          36 28 29 29 31 hhcurveto
          endchar
        </CharString>
        <CharString name="asterisk">
          -33 385 -21 364 -20 hstem
          186 719 rmoveto
          8 -126 -46 25 -48 24 -20 7 rlinecurve
          -12 -11 -20 -41 -6 -20 2 -22 rcurveline
          122 -31 -38 -36 -38 -37 -12 -18 rlinecurve
          7 -15 33 -31 17 -12 22 -5 rcurveline
          67 106 22 -47 24 -47 13 -18 rlinecurve
          17 2 39 22 17 13 12 19 rcurveline
          -80 96 51 7 52 8 21 7 rlinecurve
          3 17 -9 44 -7 20 -14 17 rcurveline
          -116 -46 rlineto
          9 51 8 51 22 vvcurveto
          6 -14 -45 8 -21 hhcurveto
          endchar
        </CharString>
        <CharString name="at">
          391 -204 63 125 71 322 60 112 61 hstem
          38 93 97 100 440 97 vstem
          645 44 rmoveto
          93 59 127 113 72 vvcurveto
          197 -140 125 -221 -248 -218 -180 -242 -236 141 -156 249 79 93 44 45 50 vhcurveto
          -24 30 rlineto
          -30 -45 -72 -26 -58 hhcurveto
          -214 -106 129 202 214 157 145 205 174 101 -106 -162 -72 -61 -74 -67 -49 hvcurveto
          -11 -14 -24 -14 -9 hhcurveto
          -16 5 16 22 5 hvcurveto
          55 243 rlineto
          10 31 16 29 0 vvcurveto
          -16 21 rlineto
          5 -27 -45 9 -47 hhcurveto
          -159 -146 -177 -176 -61 25 -39 62 67 71 103 64 43 hvcurveto
          6 -2 -14 -60 rlineto
          -72 -17 1 -33 38 hhcurveto
          33 67 37 23 35 hvcurveto
          -121 199 rmoveto
          -88 -54 -76 -100 -42 hhcurveto
          -20 -4 23 27 106 57 166 107 45 12 -8 0 hvcurveto
          -2 -27 -13 -72 -10 -27 rrcurveto
          endchar
        </CharString>
        <CharString name="atilde">
          -23 callgsubr
          120 48 48 -20 hstem
          30 120 110 120 vstem
          -88 callgsubr
          -106 callgsubr
          -227 465 -104 callsubr
          endchar
        </CharString>
        <CharString name="b">
          27 -16 56 323 74 281 -20 hstem
          62 120 173 129 vstem
          255 -16 rmoveto
          -36 callgsubr
          -587 vlineto
          -21 54 73 -20 66 hhcurveto
          6 379 -2 callsubr
        </CharString>
        <CharString name="backslash">
          -47 -149 -21 837 -20 hstem
          101 667 rmoveto
          -74 -39 313 -798 74 39 rlineto
          endchar
        </CharString>
        <CharString name="bar">
          12 callsubr
          836 -85 hlineto
          endchar
        </CharString>
        <CharString name="braceleft">
          27 callgsubr
          116 106 -106 120 hintmask 11101000
          117 261 rmoveto
          53 14 66 65 81 vvcurveto
          hintmask 11110000
          47 -14 63 47 vvcurveto
          36 49 13 25 10 vhcurveto
          -15 29 rlineto
          -59 -12 -106 -7 -83 -45 9 -62 -46 vvcurveto
          -64 -26 -69 -59 vhcurveto
          -43 vlineto
          59 26 -72 -66 hvcurveto
          -50 -9 -68 -47 vvcurveto
          -83 106 -7 59 -12 vhcurveto
          15 29 rlineto
          -25 10 -49 13 36 vvcurveto
          hintmask 11101000
          52 14 65 52 vvcurveto
          84 -66 67 -53 14 vhcurveto
          endchar
        </CharString>
        <CharString name="braceright">
          27 callgsubr
          100 120 -106 106 hintmask 11110000
          219 252 rmoveto
          -53 -14 -66 -67 -84 vvcurveto
          hintmask 11101000
          -52 14 -65 -52 vvcurveto
          -36 -49 -13 -25 -10 vhcurveto
          15 -29 rlineto
          59 12 106 7 83 47 -9 68 50 vvcurveto
          66 26 72 59 vhcurveto
          43 vlineto
          -59 -26 69 64 hvcurveto
          46 9 62 45 vvcurveto
          83 -106 7 -59 12 vhcurveto
          -15 -29 rlineto
          25 -10 49 -13 -36 vvcurveto
          hintmask 11110000
          -47 -14 -63 -47 vvcurveto
          -81 66 -65 53 -14 vhcurveto
          endchar
        </CharString>
        <CharString name="bracketleft">
          -161 -156 64 678 64 hstemhm
          96 90 -90 209 hintmask 11010000
          96 -156 rmoveto
          209 64 hlineto
          hintmask 11100000
          -119 678 hlineto
          hintmask 11010000
          119 64 -209 hlineto
          endchar
        </CharString>
        <CharString name="bracketright">
          -161 -156 64 678 64 hstemhm
          22 209 -90 90 hintmask 11100000
          231 650 rmoveto
          -209 -64 hlineto
          hintmask 11010000
          119 -678 hlineto
          hintmask 11100000
          -119 -64 209 hlineto
          endchar
        </CharString>
        <CharString name="breve">
          506 87 66 -20 hstem
          259 659 -89 callgsubr
          endchar
        </CharString>
        <CharString name="breve.case">
          692 87 66 -20 hstem
          259 845 -89 callgsubr
          endchar
        </CharString>
        <CharString name="brokenbar">
          12 callsubr
          294 -85 hlineto
          255 vmoveto
          85 287 -85 hlineto
          endchar
        </CharString>
        <CharString name="bullet">
          -47 148 -21 299 -20 hstem
          82 268 rmoveto
          -87 49 -54 90 101 37 49 96 93 -52 61 -90 -101 -34 -56 -102 vhcurveto
          endchar
        </CharString>
        <CharString name="c">
          20 callgsubr
          hstem
          31 129 vstem
          -90 callgsubr
          endchar
        </CharString>
        <CharString name="cacute">
          20 callgsubr
          248 -20 hstem
          31 129 vstem
          -90 callgsubr
          33 421 -92 callsubr
          endchar
        </CharString>
        <CharString name="caron">
          521 -21 184 -20 hstem
          161 580 -55 callgsubr
          -77 callgsubr
        </CharString>
        <CharString name="caron.case">
          713 -21 164 -20 hstem
          52 856 -91 callsubr
        </CharString>
        <CharString name="ccaron">
          20 callgsubr
          0 63 184 -20 hstemhm
          31 129 hintmask 11011000
          -90 callgsubr
          -75 316 -55 callgsubr
          hintmask 10111000
          -77 callgsubr
        </CharString>
        <CharString name="ccedilla">
          -51 0 callsubr
          456 52 hstemhm
          31 129 90 78 hintmask 10111000
          161 -85 callgsubr
          hintmask 01111000
          21 callsubr
          17 57 43 6 47 23 60 54 rlinecurve
          -20 29 rlineto
          -19 -33 -46 -17 -40 hhcurveto
          -71 -48 54 112 92 22 65 57 36 25 -9 -8 12 hvcurveto
          9 -16 4 -60 -3 -28 54 -10 rcurveline
          12 28 21 89 3 28 rrcurveto
          12 -29 -88 26 -48 hhcurveto
          -137 -79 -108 -124 -120 69 -82 105 -16 hvcurveto
          endchar
        </CharString>
        <CharString name="ccircumflex">
          20 callgsubr
          241 -20 hstem
          31 129 vstem
          -90 callgsubr
          18 230 -95 callgsubr
          endchar
        </CharString>
        <CharString name="cdot">
          20 callgsubr
          81 146 hstem
          31 129 4 167 vstem
          -90 callgsubr
          -158 327 rmoveto
          -90 callsubr
        </CharString>
        <CharString name="cedilla">
          0 callsubr
          -174 245 hstemhm
          178 78 hintmask 10010000
          89 -85 callgsubr
          hintmask 01010000
          21 callsubr
          hintmask 00110000
          22 71 rlineto
          -60 hlineto
          endchar
        </CharString>
        <CharString name="cent">
          -26 5 -21 626 -20 hstem
          40 124 53 48 -38 48 vstem
          385 345 rmoveto
          12 26 21 83 3 26 -25 10 -65 20 -49 6 4 94 rcurveline
          -48 -6 -3 -87 rlineto
          -124 -11 -71 -101 -114 vvcurveto
          -120 72 -79 107 -15 vhcurveto
          -3 -93 48 5 3 86 45 4 51 23 64 58 rlinecurve
          -20 29 rlineto
          -19 -33 -46 -17 -40 hhcurveto
          -6 -6 0 1 -6 hvcurveto
          10 309 19 -3 14 -6 8 -5 rlinecurve
          9 -14 4 -54 -3 -26 rrcurveto
          -167 -41 rmoveto
          81 19 59 50 10 vhcurveto
          -11 -294 rlineto
          -36 24 -22 47 73 vvcurveto
          endchar
        </CharString>
        <CharString name="circumflex">
          515 -21 184 -20 hstem
          254 494 -95 callgsubr
          endchar
        </CharString>
        <CharString name="circumflex.case">
          709 -21 164 -20 hstem
          269 688 -98 callgsubr
          endchar
        </CharString>
        <CharString name="colon">
          -241 -16 148 147 148 hstem
          40 167 vstem
          40 58 rmoveto
          -46 callsubr
          295 vmoveto
          -46 callsubr
          endchar
        </CharString>
        <CharString name="comma">
          -233 -161 -21 302 -20 hstem
          112 103 vstem
          49 17 rmoveto
          -22 callgsubr
        </CharString>
        <CharString name="commaaccent">
          -283 1 callsubr
          -20 hstem
          89 101 vstem
          38 -127 rmoveto
          -101 callsubr
        </CharString>
        <CharString name="copyright">
          218 -16 49 98 41 261 41 87 49 hstem
          35 59 88 89 341 59 vstem
          358 131 rmoveto
          37 44 9 9 25 hvcurveto
          5 28 5 32 33 vvcurveto
          -32 2 rlineto
          -50 -16 -19 -22 -46 hhcurveto
          -55 -35 65 66 77 29 53 56 21 23 -3 -7 16 hvcurveto
          7 -24 2 -24 -22 vvcurveto
          38 7 6 23 5 40 2 32 rlinecurve
          12 -48 -30 7 -37 hhcurveto
          -109 -70 -79 -106 -98 75 -60 101 hvcurveto
          -323 166 rmoveto
          -173 142 -140 176 176 142 140 173 173 -142 140 -176 -176 -142 -140 -173 vhcurveto
          59 hmoveto
          146 116 118 143 143 116 -118 -146 -146 -116 -118 -143 -143 -116 118 146 vhcurveto
          endchar
        </CharString>
        <CharString name="currency">
          98 91 -21 28 77 257 77 28 -20 hstem
          93 84 233 84 vstem
          93 303 rmoveto
          -47 14 -42 24 -34 vhcurveto
          -23 -16 -24 -18 -24 -21 3 -22 rcurveline
          5 -7 17 -18 8 -4 22 -4 rcurveline
          20 23 18 24 16 23 rrcurveto
          -26 34 43 -16 47 hhcurveto
          46 43 16 26 34 hvcurveto
          16 -23 18 -24 21 -23 22 4 rcurveline
          8 4 17 18 5 7 3 22 rcurveline
          -24 21 -24 18 -23 16 rrcurveto
          24 34 15 42 47 vvcurveto
          46 -15 43 -25 34 vhcurveto
          23 16 25 18 24 22 -3 22 rcurveline
          -5 7 -17 18 -8 4 -22 4 rcurveline
          -21 -24 -18 -24 -16 -23 rrcurveto
          27 -34 -43 16 -46 hhcurveto
          -47 -43 -16 -27 -34 hvcurveto
          -16 23 -18 24 -20 24 -22 -4 rcurveline
          -8 -4 -17 -18 -5 -7 -3 -22 rcurveline
          24 -22 25 -18 23 -16 rrcurveto
          -25 -34 -14 -43 -46 vvcurveto
          84 hmoveto
          74 51 55 65 66 51 -55 -74 -73 -51 -55 -66 -65 -51 55 73 vhcurveto
          endchar
        </CharString>
        <CharString name="d">
          54 -16 74 323 56 281 -20 hstem
          41 129 171 120 -69 callgsubr
          endchar
        </CharString>
        <CharString name="dcaron">
          136 -16 74 323 56 283 7 callgsubr
          96 101 -69 callgsubr
          238 571 rmoveto
          -101 callsubr
        </CharString>
        <CharString name="degree">
          -157 416 59 132 59 hstem
          36 68 123 68 vstem
          36 541 rmoveto
          -69 57 -56 72 71 59 56 69 69 -59 56 -71 -72 -57 -56 -69 vhcurveto
          68 hmoveto
          35 27 31 34 34 28 -31 -35 -36 -28 -30 -34 -34 -27 30 36 vhcurveto
          endchar
        </CharString>
        <CharString name="dieresis">
          -104 520 134 hstem
          5 8 callgsubr
          vstem
          5 587 rmoveto
          -99 callgsubr
          223 hmoveto
          -99 callgsubr
          endchar
        </CharString>
        <CharString name="divide">
          -24 16 122 48 76 48 122 hstem
          162 139 cntrmask 11100000
          162 371 rmoveto
          -37 29 -24 40 41 29 24 37 36 -29 25 -41 -41 -28 -25 -36 vhcurveto
          -294 vmoveto
          -36 29 -25 40 41 29 25 36 37 -29 24 -41 -41 -28 -24 -37 vhcurveto
          259 109 rmoveto
          76 -378 -76 vlineto
          endchar
        </CharString>
        <CharString name="dollar">
          56 -40 -21 751 -20 hstemhm
          81 119 43 48 -34 48 44 126 hintmask 11101100
          233 -61 rmoveto
          48 4 4 81 rlineto
          109 10 81 59 107 vvcurveto
          90 -86 46 -76 39 vhcurveto
          -4 2 -4 1 -4 2 8 156 rcurveline
          22 -4 21 -8 12 -9 13 -30 0 -34 3 -38 47 4 rcurveline
          6 27 14 88 3 34 -39 9 -52 14 -48 4 5 97 rcurveline
          -48 -5 -5 -91 rlineto
          -103 -5 -79 -49 -98 vvcurveto
          hintmask 11110100
          -92 87 -43 75 -39 vhcurveto
          1 -1 2 -1 2 -1 -9 -185 rcurveline
          -69 11 -33 54 -6 82 -50 -10 rcurveline
          -4 -31 -4 -90 4 -39 37 -14 65 -17 58 -3 rrcurveto
          112 144 rmoveto
          -48 -25 -29 -37 -9 vhcurveto
          8 158 rlineto
          31 -20 23 -23 -29 vvcurveto
          -149 302 rmoveto
          43 25 21 36 5 vhcurveto
          -7 -133 rlineto
          -32 19 -22 20 25 vvcurveto
          endchar
        </CharString>
        <CharString name="dong">
          54 -156 65 75 -79 callsubr
          -214 -214 rmoveto
          470 65 -470 hlineto
          endchar
        </CharString>
        <CharString name="dotaccent">
          -203 518 15 callgsubr
          591 rmoveto
          -90 callsubr
        </CharString>
        <CharString name="dotaccent.case">
          -203 692 15 callgsubr
          765 rmoveto
          -90 callsubr
        </CharString>
        <CharString name="dotbelow">
          -203 -234 15 callgsubr
          -161 rmoveto
          -90 callsubr
        </CharString>
        <CharString name="dotlessi">
          -28 callsubr
          hstemhm
          97 120 hintmask 10110000
          217 321 -95 callsubr
          -23 callsubr
          -4 -56 callsubr
          -12 -36 -64 callgsubr
          8 -36 rlineto
          hintmask 01110000
          -52 callgsubr
          hintmask 10110000
          30 43 -4 -5 48 hvcurveto
          7 8 callsubr
          -35 8 -17 12 vhcurveto
          -15 8 -1 -21 callsubr
          endchar
        </CharString>
        <CharString name="dotlessj">
          24 callgsubr
          hstem
          87 120 vstem
          87 -28 -82 callgsubr
          endchar
        </CharString>
        <CharString name="dslash">
          54 -16 -79 callsubr
          endchar
        </CharString>
        <CharString name="e">
          -39 callsubr
          hstem
          27 129 142 130 vstem
          -102 callgsubr
          endchar
        </CharString>
        <CharString name="eacute">
          -39 callsubr
          248 -20 hstem
          27 129 142 130 vstem
          -102 callgsubr
          114 299 -92 callsubr
          endchar
        </CharString>
        <CharString name="ebreve">
          -39 callsubr
          69 87 66 -20 hstem
          27 129 142 130 vstem
          -102 callgsubr
          110 273 -89 callgsubr
          endchar
        </CharString>
        <CharString name="ecaron">
          -38 -16 78 324 51 0 63 184 -20 hstemhm
          27 129 142 130 hintmask 11011100
          -102 callgsubr
          6 194 -55 callgsubr
          hintmask 10111100
          -77 callgsubr
        </CharString>
        <CharString name="ecircumflex">
          -39 callsubr
          241 -20 hstem
          27 129 142 130 vstem
          -102 callgsubr
          99 108 -95 callgsubr
          endchar
        </CharString>
        <CharString name="edieresis">
          -39 callsubr
          83 134 hstemhm
          27 129 -103 151 72 152 -130 130 hintmask 10111001
          -102 callgsubr
          hintmask 11010110
          -181 201 rmoveto
          -99 callgsubr
          223 hmoveto
          -99 callgsubr
          endchar
        </CharString>
        <CharString name="edot">
          -39 callsubr
          81 146 hstemhm
          27 129 1 167 -26 130 hintmask 10111010
          -102 callgsubr
          hintmask 11011100
          -77 205 rmoveto
          -90 callsubr
        </CharString>
        <CharString name="egrave">
          -39 callsubr
          248 -20 hstem
          27 129 142 130 vstem
          -102 callgsubr
          -120 272 -76 callgsubr
        </CharString>
        <CharString name="eight">
          -15 -14 53 517 54 hstemhm
          30 122 -98 117 131 113 -96 124 hintmask 11100100
          30 142 rmoveto
          -107 89 -49 112 108 104 68 101 94 -66 44 -67 38 vhcurveto
          hintmask 11011000
          56 26 49 50 70 vvcurveto
          89 -78 44 -99 -94 -90 -67 -91 -77 46 -44 54 -35 vhcurveto
          hintmask 11100100
          -69 -28 -55 -55 -71 vvcurveto
          289 -10 rmoveto
          -53 -32 -40 -50 -57 -28 49 64 49 18 41 27 29 vhcurveto
          62 -37 60 -34 -68 vvcurveto
          hintmask 11011000
          -148 346 rmoveto
          45 25 33 36 46 24 -33 -55 -45 -19 -40 -20 -26 vhcurveto
          -51 29 -41 33 59 vvcurveto
          endchar
        </CharString>
        <CharString name="eightsuperior">
          -177 309 44 268 45 hstemhm
          27 86 -73 73 82 71 -71 87 hintmask 11100100
          110 486 rmoveto
          -31 -12 -52 -25 -50 vvcurveto
          -64 56 -26 68 64 67 37 60 51 -47 31 -40 15 vhcurveto
          1 1 0 1 vvcurveto
          hintmask 11011000
          34 14 36 30 39 vvcurveto
          52 -50 26 -61 -56 -59 -39 -54 -43 37 -29 32 -13 vhcurveto
          4 -84 rmoveto
          30 10 21 15 14 vhcurveto
          3 -2 -3 0 4 -2 -1 1 rcurveline
          27 -18 27 -19 -36 vvcurveto
          -23 -15 -17 -25 -29 -13 22 29 vhcurveto
          77 179 rmoveto
          -26 -9 -19 -15 -15 vhcurveto
          -27 17 -21 16 32 vvcurveto
          19 13 14 21 25 13 -14 -24 vhcurveto
          endchar
        </CharString>
        <CharString name="ellipsis">
          371 -14 134 hstem
          65 151 138 151 138 151 cntrmask 01110000
          65 53 rmoveto
          -99 callgsubr
          289 hmoveto
          -99 callgsubr
          289 hmoveto
          -99 callgsubr
          endchar
        </CharString>
        <CharString name="emacron">
          -39 callsubr
          111 76 hstem
          27 129 142 130 vstem
          -102 callgsubr
          -137 162 -24 callgsubr
        </CharString>
        <CharString name="emdash">
          350 189 81 hstem
          -5 189 rmoveto
          838 hlineto
          10 81 rlineto
          -838 hlineto
          endchar
        </CharString>
        <CharString name="endash">
          89 189 81 hstem
          -5 189 rmoveto
          577 hlineto
          10 81 rlineto
          -577 hlineto
          endchar
        </CharString>
        <CharString name="eng">
          85 -239 -21 281 -21 360 77 hstem
          97 120 157 120 vstem
          374 -10 callsubr
          284 vlineto
          111 -54 40 -94 -32 -35 -19 -25 -30 vhcurveto
          -33 -27 rlineto
          -5 14 -5 15 19 vvcurveto
          -21 23 -44 -4 -78 -22 -43 -19 rlinecurve
          5 -38 rlineto
          0 28 6 18 22 4 -16 -18 vhcurveto
          -250 vlineto
          18 callsubr
          -16 callsubr
          -68 callsubr
          248 vlineto
          19 27 32 20 31 hhcurveto
          49 18 -29 -66 hvcurveto
          endchar
        </CharString>
        <CharString name="eogonek">
          -38 -245 55 174 78 154 221 -51 51 hstemhm
          27 129 -16 90 68 130 hintmask 11100110
          230 -143 rmoveto
          51 39 51 33 35 vhcurveto
          32 11 38 23 49 45 -21 32 rcurveline
          -23 -33 -46 -20 -46 hhcurveto
          hintmask 11011010
          -74 -40 49 96 -5 hvcurveto
          272 18 rlineto
          124 -58 88 -130 -131 -82 -110 -122 -135 85 -86 130 vhcurveto
          3 hlineto
          hintmask 11010110
          -61 -45 -44 -36 -54 -84 callsubr
          4 529 rmoveto
          49 15 -56 -55 hvcurveto
          hintmask 11011010
          -142 -20 rlineto
          64 22 67 56 vhcurveto
          endchar
        </CharString>
        <CharString name="equal">
          -24 93 75 103 75 hstem
          417 93 rmoveto
          75 -370 -75 vlineto
          370 178 rmoveto
          75 -370 -75 vlineto
          endchar
        </CharString>
        <CharString name="eth">
          -28 -16 51 341 56 286 -20 hstem
          -12 129 184 135 vstem
          111 552 rmoveto
          16 -47 101 58 30 -45 19 -55 11 -59 rlinecurve
          13 -12 -38 15 -27 hhcurveto
          -134 -89 -98 -137 -125 77 -88 147 184 40 149 157 137 -53 108 -77 73 hvcurveto
          91 53 -16 47 -114 -66 -64 47 -74 26 -71 3 rlinecurve
          -5 -38 60 -11 47 -28 37 -39 rlinecurve
          -80 -383 rmoveto
          106 25 51 55 41 36 -21 -40 20 vhcurveto
          6 -31 1 -38 -49 vvcurveto
          -110 -24 -52 -52 -68 -40 64 120 vhcurveto
          endchar
        </CharString>
        <CharString name="exclam">
          -217 -16 148 544 -20 hstem
          52 167 vstem
          65 660 rmoveto
          0 21 -213 4 -89 vhcurveto
          7 -153 17 -12 54 13 10 103 rlineto
          12 126 19 223 0 vvcurveto
          8 -18 -85 10 -28 hhcurveto
          -26 -618 rmoveto
          -46 callsubr
          endchar
        </CharString>
        <CharString name="exclamdown">
          -217 -239 -21 549 148 hstem
          52 167 vstem
          206 -244 rmoveto
          0 -21 217 -4 90 vhcurveto
          -7 153 -17 12 -54 -13 -10 -103 rlineto
          -12 -128 -19 -226 0 vvcurveto
          -8 18 85 -10 28 hhcurveto
          26 623 rmoveto
          44 -34 30 -49 26 callsubr
          vhcurveto
          endchar
        </CharString>
        <CharString name="f">
          -51 callgsubr
          288 vlineto
          103 -4 9 65 -112 -10 rlineto
          120 -30 callgsubr
        </CharString>
        <CharString name="five">
          -83 -170 55 476 75 23 -20 hstem
          255 131 vstem
          81 140 rmoveto
          102 16 72 -30 -115 vvcurveto
          -70 -35 -56 -58 -32 -30 9 7 -18 vhcurveto
          -5 17 1 55 2 28 -49 8 rcurveline
          -11 -28 -21 -92 -2 -28 rrcurveto
          -10 36 82 -21 59 hhcurveto
          117 95 83 114 145 -109 53 -124 -22 hvcurveto
          -6 7 21 151 rlineto
          183 hlineto
          7 14 19 55 1 14 -12 15 rcurveline
          0 -22 -13 -60 -4 vhcurveto
          -193 -11 -43 -251 rlineto
          endchar
        </CharString>
        <CharString name="fivesuperior">
          -189 310 46 127 46 79 52 15 -20 hstemhm
          174 94 hintmask 11101000
          73 483 rmoveto
          54 47 -7 -61 -33 -21 -26 -30 -15 -22 4 5 -9 hvcurveto
          -3 13 2 23 2 17 -34 4 rcurveline
          -6 -20 -14 -51 -2 -21 rrcurveto
          -7 22 53 -13 33 hhcurveto
          75 63 46 69 89 -73 14 -79 1 hvcurveto
          11 79 rlineto
          113 hlineto
          7 13 7 23 2 17 rrcurveto
          hintmask 11011000
          -12 14 rlineto
          0 -20 -11 -32 -1 vhcurveto
          -111 -5 -27 -154 rlineto
          endchar
        </CharString>
        <CharString name="florin">
          -170 64 719 53 hstem
          242 505 rmoveto
          46 7 14 62 30 hhcurveto
          33 21 -43 -54 hvcurveto
          47 hlineto
          13 30 25 65 5 28 rrcurveto
          16 -39 -52 11 -26 hhcurveto
          -129 -57 -123 -124 -17 hvcurveto
          -9 -65 -59 -3 rlineto
          -42 vlineto
          53 1 -38 -284 rlineto
          -101 -14 -20 -31 -22 hhcurveto
          -26 -13 38 29 -6 hvcurveto
          -30 hlineto
          -13 -23 -27 -55 -7 -19 rrcurveto
          -12 14 46 -22 40 hhcurveto
          103 71 92 166 23 hvcurveto
          31 221 100 -3 10 63 -30 -2 -37 -3 -35 -3 rlinecurve
          endchar
        </CharString>
        <CharString name="four">
          -28 -156 223 -210 -21 164 67 365 -20 hstemhm
          250 120 hintmask 01111000
          370 hmoveto
          59 hlineto
          18 67 rlineto
          -77 365 -103 hlineto
          -262 -385 31 -47 rlineto
          214 -75 hlineto
          18 callgsubr
          hintmask 10011000
          3 40 74 5 30 hhcurveto
          hintmask 01111000
          25 53 -4 -4 30 hvcurveto
          8 37 rlineto
          0 -29 9 -15 10 vhcurveto
          -13 8 -5 7 18 vvcurveto
          -280 151 rmoveto
          147 218 9 23 4 -1 rlineto
          -249 -155 vlineto
          endchar
        </CharString>
        <CharString name="foursuperior">
          -153 331 -21 103 50 203 -20 hstem
          163 85 vstem
          248 413 -51 callsubr
          -59 callsubr
        </CharString>
        <CharString name="fraction">
          -370 5 -21 703 -20 hstem
          -145 -7 callgsubr
          endchar
        </CharString>
        <CharString name="franc">
          35 0 203 -191 -21 160 52 85 62 184 62 10 -20 hstemhm
          109 129 hintmask 01111010
          34 203 rmoveto
          -10 -52 rlineto
          85 -72 hlineto
          -17 -2 -6 -34 callsubr
          -38 -55 callsubr
          hintmask 10011010
          5 40 65 4 30 hhcurveto
          hintmask 01111010
          34 78 -4 -5 42 hvcurveto
          7 42 rlineto
          0 -62 12 -18 7 vhcurveto
          -20 7 -2 10 18 vvcurveto
          64 116 vlineto
          10 52 rlineto
          -126 85 100 hlineto
          25 34 -4 0 hvcurveto
          7 11 9 31 1 14 -10 16 rcurveline
          0 -49 -6 -24 vhcurveto
          -93 184 166 36 callsubr
          160 vlineto
          -4 -27 -38 -2 -22 hhcurveto
          -228 hlineto
          hintmask 01110110
          -28 -54 4 6 -41 hvcurveto
          -9 -39 19 -4 23 -7 14 -6 rlinecurve
          15 -6 1 -8 -17 vvcurveto
          -316 vlineto
          endchar
        </CharString>
        <CharString name="g">
          -15 callsubr
          52 -1 callsubr
          hintmask 1101110100000000
          13 callsubr
          hintmask 1110001100000000
          -74 callgsubr
          hintmask 1110010010000000
          -83 callsubr
          hintmask 1110010100000000
          -24 callsubr
          hintmask 1101110010000000
          -81 callsubr
          hintmask 1110001100000000
          -5 339 -49 callgsubr
          endchar
        </CharString>
        <CharString name="gbreve">
          -15 callsubr
          105 87 66 -1 callsubr
          hintmask 1101111010000000
          13 callsubr
          hintmask 1110110110000000
          -74 callgsubr
          hintmask 1110111001000000
          -83 callsubr
          hintmask 1110111010000000
          -24 callsubr
          hintmask 1101111001000000
          -81 callsubr
          hintmask 1110110110000000
          -5 339 -49 callgsubr
          177 372 -89 callgsubr
          endchar
        </CharString>
        <CharString name="gcircumflex">
          -15 callsubr
          277 -1 callsubr
          hintmask 1101110100000000
          13 callsubr
          hintmask 1110101100000000
          -74 callgsubr
          hintmask 1110110010000000
          -83 callsubr
          hintmask 1110110100000000
          -24 callsubr
          hintmask 1101110010000000
          -81 callsubr
          161 546 -95 callgsubr
          hintmask 1110101100000000
          -73 -311 -49 callgsubr
          endchar
        </CharString>
        <CharString name="gcommaaccent">
          -17 -260 59 242 79 0 49 0 220 0 48 -16 -20 36 55 234 -20 hstemhm
          6 120 -92 124 -6 101 45 125 -66 107 hintmask 1010011110110000
          13 callsubr
          hintmask 1010100101010000
          -74 callgsubr
          hintmask 1100100110101000
          -83 callsubr
          hintmask 1010100110110000
          -24 callsubr
          hintmask 1010011110101000
          -81 callsubr
          hintmask 1101011101010000
          -5 339 -49 callgsubr
          146 296 rmoveto
          hintmask 1010011110110000
          -34 3 -17 7 14 vvcurveto
          29 32 45 20 21 vhcurveto
          -29 24 rlineto
          -43 -31 -81 -79 -48 vvcurveto
          -44 57 -30 40 -2 vhcurveto
          21 14 31 39 12 19 rrcurveto
          endchar
        </CharString>
        <CharString name="gdot">
          -15 callsubr
          117 146 hstemhm
          6 120 -92 124 -10 167 -17 125 -66 107 hintmask 1101110101000000
          13 callsubr
          hintmask 1110101010000000
          -74 callgsubr
          hintmask 1110110101000000
          -83 callsubr
          hintmask 1110110010000000
          -24 callsubr
          hintmask 1101110101000000
          -81 callsubr
          hintmask 1110101010000000
          -5 339 -49 callgsubr
          hintmask 1110110101000000
          -10 304 rmoveto
          -90 callsubr
        </CharString>
        <CharString name="germandbls">
          108 -16 48 -11 -21 660 58 hstemhm
          95 120 62 107 0 128 -51 117 hintmask 01111010
          95 422 rmoveto
          -61 -15 5 -40 rlineto
          56 -291 hlineto
          -17 -2 -4 -56 callsubr
          -11 -36 -9 0 vvcurveto
          8 -35 rlineto
          5 52 35 3 28 hhcurveto
          24 35 -3 -5 47 hvcurveto
          8 30 rlineto
          0 -22 8 -10 7 vhcurveto
          -15 10 -2 3 17 vvcurveto
          464 vlineto
          60 15 69 50 78 26 -42 -83 vhcurveto
          -115 -107 11 -105 vvcurveto
          -76 52 -30 49 -28 vhcurveto
          43 -24 40 -23 -53 vvcurveto
          hintmask 10111010
          -43 -24 -17 -27 -46 -32 44 60 -9 vhcurveto
          -39 -7 -3 -20 0 -77 3 -21 rlinecurve
          -15 29 49 -12 35 hhcurveto
          108 73 44 90 73 -46 35 -47 27 hvcurveto
          -50 29 -51 21 45 vvcurveto
          hintmask 10110100
          50 128 19 128 vvcurveto
          78 -69 95 -134 -141 -73 -118 -126 vhcurveto
          endchar
        </CharString>
        <CharString name="grave">
          515 -21 191 -20 hstem
          66 658 -76 callgsubr
        </CharString>
        <CharString name="grave.case">
          -135 701 -21 167 -20 hstem
          69 799 -75 callgsubr
          endchar
        </CharString>
        <CharString name="greater">
          -10 5 -21 454 -20 hstem
          432 182 rmoveto
          58 vlineto
          -386 198 rlineto
          -83 vlineto
          290 -144 -290 -144 rlineto
          -83 vlineto
          endchar
        </CharString>
        <CharString name="guillemotleft">
          24 45 -21 378 -20 hstem
          225 24 -19 callsubr
          396 -172 -19 callsubr
          endchar
        </CharString>
        <CharString name="guillemotright">
          24 45 -21 378 -20 hstem
          474 196 -19 callgsubr
          -22 172 -19 callgsubr
          endchar
        </CharString>
        <CharString name="guilsinglleft">
          -185 45 -21 378 -20 hstem
          225 24 -19 callsubr
          endchar
        </CharString>
        <CharString name="guilsinglright">
          -185 45 -21 378 -20 hstem
          265 196 -19 callgsubr
          endchar
        </CharString>
        <CharString name="h">
          82 -34 callgsubr
          281 -20 hstemhm
          94 120 157 120 hintmask 10111100
          491 286 rmoveto
          111 -54 40 -94 -32 -34 -18 -26 -31 vhcurveto
          -32 -27 rlineto
          236 vlineto
          39 0 29 12 25 vhcurveto
          -19 23 -45 -3 -94 -21 -44 -19 rlinecurve
          7 -40 rlineto
          0 23 7 15 23 2 -20 -15 vhcurveto
          -531 vlineto
          -17 -2 -5 -56 callsubr
          -12 -36 -7 0 vvcurveto
          9 -36 rlineto
          hintmask 01111100
          5 55 35 callsubr
          57 hvcurveto
          8 35 rlineto
          0 -25 7 -16 27 callsubr
          27 32 20 31 hhcurveto
          49 18 14 callsubr
          -5 -12 -9 vhcurveto
          -16 -11 -25 -7 0 vvcurveto
          8 -35 rlineto
          hintmask 01111100
          5 57 29 4 29 hhcurveto
          hintmask 10111100
          4 callsubr
          11 vhcurveto
          -15 9 -1 -21 callsubr
          endchar
        </CharString>
        <CharString name="hbar">
          82 -34 callgsubr
          0 95 0 52 0 58 76 -20 hstemhm
          94 120 157 120 hintmask 1001011110000000
          491 286 rmoveto
          111 -54 40 -94 -32 -34 -18 -26 -31 vhcurveto
          -32 -27 rlineto
          166 125 vlineto
          hintmask 1010101110000000
          10 52 rlineto
          -135 18 hlineto
          39 0 29 12 25 vhcurveto
          -19 23 -45 -3 -94 -21 -44 -19 rlinecurve
          7 -40 rlineto
          hintmask 1010011110000000
          0 23 7 15 23 2 -20 -15 vhcurveto
          -23 -64 vlineto
          hintmask 1010101110000000
          -10 -52 rlineto
          74 -456 hlineto
          -17 -2 -5 -56 callsubr
          -12 -36 -7 0 vvcurveto
          9 -36 rlineto
          hintmask 0110101110000000
          5 55 29 -26 callsubr
          hintmask 1010101110000000
          2 callsubr
          57 hvcurveto
          8 35 rlineto
          0 -25 7 -16 27 callsubr
          27 32 20 31 hhcurveto
          49 18 14 callsubr
          -5 -12 -9 vhcurveto
          -16 -11 -25 -7 0 vvcurveto
          8 -35 rlineto
          hintmask 0110101110000000
          5 57 29 -26 callsubr
          hintmask 1010101110000000
          4 callsubr
          11 vhcurveto
          -15 9 -1 -21 callsubr
          endchar
        </CharString>
        <CharString name="hcircumflex">
          82 -34 callgsubr
          462 -20 hstemhm
          94 120 157 120 hintmask 10111100
          491 286 rmoveto
          111 -54 40 -94 -32 -34 -18 -26 -31 vhcurveto
          -32 -27 rlineto
          236 vlineto
          39 0 29 12 25 vhcurveto
          -19 23 -45 -3 -94 -21 -44 -19 rlinecurve
          7 -40 rlineto
          0 23 7 15 23 2 -20 -15 vhcurveto
          -531 vlineto
          -17 -2 -5 -56 callsubr
          -12 -36 -7 0 vvcurveto
          9 -36 rlineto
          hintmask 01111100
          5 55 35 callsubr
          57 hvcurveto
          8 35 rlineto
          0 -25 7 -16 27 callsubr
          27 32 20 31 hhcurveto
          49 18 14 callsubr
          -5 -12 -9 vhcurveto
          -16 -11 -25 -7 0 vvcurveto
          8 -35 rlineto
          hintmask 01111100
          5 57 29 4 29 hhcurveto
          hintmask 10111100
          4 callsubr
          11 vhcurveto
          -15 9 -1 -21 callsubr
          -243 659 -98 callgsubr
          endchar
        </CharString>
        <CharString name="hook">
          509 -21 177 46 hstem
          169 95 vstem
          84 560 -67 callgsubr
        </CharString>
        <CharString name="hungarumlaut">
          508 -21 210 -20 hstem
          313 697 -89 callsubr
        </CharString>
        <CharString name="hungarumlaut.case">
          701 -21 210 -20 hstem
          313 890 -89 callsubr
        </CharString>
        <CharString name="hyphen">
          -173 185 89 hstem
          33 185 rmoveto
          235 hlineto
          14 89 rlineto
          -234 hlineto
          endchar
        </CharString>
        <CharString name="i">
          -28 callsubr
          105 138 hstemhm
          62 20 callsubr
          hintmask 10110100
          217 321 -95 callsubr
          -23 callsubr
          -4 -56 callsubr
          -12 -36 -64 callgsubr
          8 -36 rlineto
          hintmask 01111000
          -52 callgsubr
          hintmask 10110100
          30 43 -4 -5 48 hvcurveto
          7 8 callsubr
          -35 8 -17 12 vhcurveto
          -15 8 -1 -21 callsubr
          hintmask 10111000
          -155 515 -41 callgsubr
        </CharString>
        <CharString name="iacute">
          -28 callsubr
          268 -33 callgsubr
          hintmask 10111000
          217 321 -95 callsubr
          -23 callsubr
          -4 -56 callsubr
          -12 -36 -64 callgsubr
          8 -36 rlineto
          hintmask 01111000
          -52 callgsubr
          hintmask 10111000
          30 43 -4 -5 48 hvcurveto
          7 8 callsubr
          -35 8 -17 12 vhcurveto
          -15 8 -1 -21 callsubr
          35 609 -92 callsubr
          endchar
        </CharString>
        <CharString name="ibreve">
          -190 -18 callsubr
          232 -156 -20 89 87 66 -33 callgsubr
          hintmask 10011110
          217 321 rmoveto
          -105 callgsubr
          hintmask 10100110
          0 19 7 16 -61 callgsubr
          vhcurveto
          -23 callsubr
          -4 -56 callsubr
          -12 -36 -64 callgsubr
          8 -36 rlineto
          hintmask 01100110
          -52 callgsubr
          hintmask 10011110
          30 43 -4 -5 48 hvcurveto
          7 8 callsubr
          -35 8 -17 12 vhcurveto
          -15 8 -1 -21 callsubr
          31 583 -89 callgsubr
          endchar
        </CharString>
        <CharString name="icircumflex">
          -28 callsubr
          261 -33 callgsubr
          hintmask 10111000
          217 321 -95 callsubr
          -23 callsubr
          -4 -56 callsubr
          -12 -36 -64 callgsubr
          8 -36 rlineto
          hintmask 01111000
          -52 callgsubr
          hintmask 10111000
          30 43 -4 -5 48 hvcurveto
          7 8 callsubr
          -35 8 -17 12 vhcurveto
          -15 8 -1 -21 callsubr
          20 418 -95 callgsubr
          endchar
        </CharString>
        <CharString name="idieresis">
          -28 callsubr
          103 134 hstemhm
          -43 151 -11 120 -37 151 hintmask 10110100
          217 321 -95 callsubr
          -23 callsubr
          -4 -56 callsubr
          -12 -36 -64 callgsubr
          8 -36 rlineto
          hintmask 01111010
          -52 callgsubr
          hintmask 10110100
          30 43 -4 -5 48 hvcurveto
          7 8 callsubr
          -35 8 -17 12 vhcurveto
          -15 8 -1 -21 callsubr
          hintmask 10111010
          -260 511 rmoveto
          -99 callgsubr
          223 hmoveto
          -99 callgsubr
          endchar
        </CharString>
        <CharString name="igrave">
          -28 callsubr
          268 -33 callgsubr
          hintmask 10111000
          217 321 -95 callsubr
          -23 callsubr
          -4 -56 callsubr
          -12 -36 -64 callgsubr
          8 -36 rlineto
          hintmask 01111000
          -52 callgsubr
          hintmask 10111000
          30 43 -4 -5 48 hvcurveto
          7 8 callsubr
          -35 8 -17 12 vhcurveto
          -15 8 -1 -21 callsubr
          -199 582 -76 callgsubr
        </CharString>
        <CharString name="ij">
          82 -239 -21 281 23 callsubr
          62 20 callsubr
          133 20 callsubr
          hintmask 11110110
          217 321 -95 callsubr
          -23 callsubr
          -4 -56 callsubr
          -12 -36 -64 callgsubr
          8 -36 rlineto
          -52 callgsubr
          30 43 -4 -5 48 hvcurveto
          7 8 callsubr
          -35 8 -17 12 vhcurveto
          -15 8 -1 -21 callsubr
          hintmask 11111001
          -155 515 -38 callgsubr
          323 -619 -82 callgsubr
          hintmask 11111010
          -35 265 -41 callgsubr
        </CharString>
        <CharString name="imacron">
          -28 callsubr
          131 76 -38 callsubr
          hintmask 10111000
          16 548 rmoveto
          243 hlineto
          14 76 rlineto
          -243 hlineto
          187 -303 -95 callsubr
          -23 callsubr
          -4 -56 callsubr
          -12 -36 -64 callgsubr
          8 -36 rlineto
          hintmask 01111000
          -52 callgsubr
          hintmask 10111000
          30 43 -4 -5 48 hvcurveto
          7 8 callsubr
          -35 8 -17 12 vhcurveto
          -15 8 -1 -21 callsubr
          endchar
        </CharString>
        <CharString name="iogonek">
          -190 -245 55 211 23 callsubr
          45 90 -73 20 callsubr
          hintmask 11111000
          135 -143 rmoveto
          53 42 53 33 35 vhcurveto
          21 -2 23 -2 24 -3 7 36 rcurveline
          0 -35 8 -17 12 vhcurveto
          hintmask 11110100
          -15 8 -1 -21 callsubr
          245 3 callsubr
          hintmask 11110010
          -61 callgsubr
          hvcurveto
          -23 callsubr
          -4 -56 callsubr
          -12 -36 -64 callgsubr
          8 -36 rlineto
          -52 callgsubr
          15 hlineto
          hintmask 11111000
          -43 callgsubr
          hintmask 11110100
          -73 734 -41 callgsubr
        </CharString>
        <CharString name="itilde">
          -190 -18 callsubr
          244 -168 -20 140 48 48 -33 callgsubr
          hintmask 10011110
          217 321 rmoveto
          -105 callgsubr
          hintmask 10100110
          0 19 7 16 -61 callgsubr
          vhcurveto
          -23 callsubr
          -4 -56 callsubr
          -12 -36 -64 callgsubr
          8 -36 rlineto
          hintmask 01100110
          -52 callgsubr
          hintmask 10011110
          30 43 -4 -5 48 hvcurveto
          7 8 callsubr
          -35 8 -17 12 vhcurveto
          -15 8 -1 -21 callsubr
          -142 481 -104 callsubr
          endchar
        </CharString>
        <CharString name="j">
          24 callgsubr
          105 138 hstemhm
          52 20 callsubr
          hintmask 11110000
          87 -10 callsubr
          319 3 callsubr
          hintmask 11101000
          -61 callgsubr
          hvcurveto
          hintmask 11110000
          -35 265 -41 callgsubr
        </CharString>
        <CharString name="jcaron">
          24 callgsubr
          267 -20 hstem
          87 120 vstem
          87 -28 -82 callgsubr
          41 254 -55 callgsubr
          -77 callgsubr
        </CharString>
        <CharString name="jcircumflex">
          24 callgsubr
          261 -20 hstem
          87 120 vstem
          87 -28 -82 callgsubr
          134 168 -95 callgsubr
          endchar
        </CharString>
        <CharString name="k">
          77 -69 callsubr
          421 -20 317 -33 callgsubr
          hintmask 10111000
          217 602 -95 callsubr
          -531 vlineto
          -17 -2 -4 -56 callsubr
          -12 -36 -64 callgsubr
          8 -36 rlineto
          hintmask 01111000
          -52 callgsubr
          hintmask 10111000
          -32 callgsubr
          135 -148 rlineto
          -5 callgsubr
          hintmask 01111000
          4 26 46 5 28 hhcurveto
          hintmask 10111000
          -54 callsubr
          endchar
        </CharString>
        <CharString name="kcommaaccent">
          77 -249 -21 291 -21 421 -20 317 -20 hstem
          97 120 66 101 vstem
          217 602 -95 callsubr
          -531 vlineto
          -17 -2 -4 -56 callsubr
          -12 -36 -64 callgsubr
          8 -36 rlineto
          -52 callgsubr
          -32 callgsubr
          135 -148 rlineto
          -5 callgsubr
          4 26 46 5 28 hhcurveto
          -54 callsubr
          15 -381 rmoveto
          -101 callsubr
        </CharString>
        <CharString name="kgreenlandic">
          87 -69 callsubr
          421 -20 29 -33 callgsubr
          0 164 hintmask 10011000
          217 345 rmoveto
          17 2 4 13 8 vhcurveto
          15 12 33 8 0 vvcurveto
          -8 36 rlineto
          hintmask 10101000
          -5 -45 -42 -4 -28 hhcurveto
          hintmask 10011000
          -29 -41 4 5 -46 hvcurveto
          -7 -36 rlineto
          0 31 -8 16 -11 vhcurveto
          14 -9 2 -4 -17 vvcurveto
          -269 vlineto
          -17 -2 -4 -56 callsubr
          -12 -36 -64 callgsubr
          8 -36 rlineto
          hintmask 01011000
          -52 callgsubr
          hintmask 10011000
          -32 callgsubr
          145 -148 rlineto
          hintmask 10010100
          -5 callgsubr
          hintmask 01011000
          4 26 46 5 28 hhcurveto
          hintmask 10101000
          31 58 -5 -4 29 hvcurveto
          8 8 callsubr
          -26 6 -16 9 vhcurveto
          -12 6 -13 10 -16 18 -175 179 rcurveline
          132 103 14 11 16 12 15 4 rlinecurve
          10 2 21 5 0 vvcurveto
          3 35 rlineto
          -4 -28 -51 -2 -26 hhcurveto
          -25 -34 0 6 -29 hvcurveto
          3 -34 rlineto
          7 -1 18 -1 -11 vvcurveto
          -6 -10 -9 -9 -8 vhcurveto
          -136 -103 rlineto
          endchar
        </CharString>
        <CharString name="l">
          -16 callgsubr
          718 -33 callgsubr
          hintmask 10110000
          217 602 -95 callsubr
          -531 vlineto
          -17 -2 -4 -56 callsubr
          -12 -36 -64 callgsubr
          8 -36 rlineto
          hintmask 01110000
          -52 callgsubr
          hintmask 10110000
          30 43 -4 -5 48 hvcurveto
          7 8 callsubr
          -35 8 -17 12 vhcurveto
          -15 8 -1 -21 callsubr
          endchar
        </CharString>
        <CharString name="lcaron">
          -107 -69 callsubr
          718 -33 callgsubr
          96 101 hintmask 10111000
          217 602 -95 callsubr
          -531 vlineto
          -17 -2 -4 -56 callsubr
          -12 -36 -64 callgsubr
          8 -36 rlineto
          hintmask 01111000
          -52 callgsubr
          hintmask 10111000
          30 43 -4 -5 48 hvcurveto
          7 8 callsubr
          -35 8 -17 12 vhcurveto
          -15 8 -1 -21 callsubr
          45 551 rmoveto
          -101 callsubr
        </CharString>
        <CharString name="lcommaaccent">
          -190 1 callsubr
          36 718 -33 callgsubr
          -77 101 hintmask 11110000
          217 602 -95 callsubr
          -531 vlineto
          -17 -2 -4 -56 callsubr
          -12 -36 -64 callgsubr
          8 -36 rlineto
          -52 callgsubr
          30 43 -4 -5 48 hvcurveto
          7 8 callsubr
          -35 8 -17 12 vhcurveto
          -15 8 -1 -21 callsubr
          -128 -203 rmoveto
          hintmask 11101000
          -101 callsubr
        </CharString>
        <CharString name="ldot">
          -81 -69 callsubr
          424 -20 314 -33 callgsubr
          60 167 hintmask 10111100
          217 602 -95 callsubr
          -531 vlineto
          -17 -2 -4 -56 callsubr
          -12 -36 -64 callgsubr
          8 -36 rlineto
          hintmask 01111100
          -52 callgsubr
          hintmask 10111100
          30 43 -4 -5 48 hvcurveto
          7 8 callsubr
          -35 8 -17 12 vhcurveto
          -15 8 -1 -21 callsubr
          60 275 rmoveto
          -90 callsubr
        </CharString>
        <CharString name="less">
          -10 5 -21 454 -20 hstem
          432 -16 rmoveto
          83 vlineto
          -290 144 290 144 rlineto
          83 vlineto
          -386 -198 rlineto
          -58 vlineto
          endchar
        </CharString>
        <CharString name="lira">
          37 0 71 -59 -21 191 52 49 52 220 55 hstemhm
          119 125 hintmask 01111100
          60 335 rmoveto
          -10 -52 rlineto
          69 -49 -77 hlineto
          -10 -52 rlineto
          87 -47 17 callsubr
          hintmask 10111100
          -15 callgsubr
          18 14 23 35 2 49 rlinecurve
          109 hlineto
          10 52 rlineto
          -119 49 127 hlineto
          10 52 rlineto
          -137 -30 callsubr
        </CharString>
        <CharString name="logicalnot">
          85 100 214 -85 85 hstemhm
          449 72 hintmask 01100000
          52 229 rmoveto
          397 hlineto
          hintmask 10100000
          -129 72 214 -469 vlineto
          endchar
        </CharString>
        <CharString name="longs">
          -51 callgsubr
          459 -30 callgsubr
        </CharString>
        <CharString name="lslash">
          -16 callgsubr
          718 -33 callgsubr
          hintmask 10110000
          217 602 -95 callsubr
          -224 vlineto
          -74 -57 15 -56 59 45 rlineto
          -239 vlineto
          -17 -2 -4 -56 callsubr
          -12 -36 -64 callgsubr
          8 -36 rlineto
          hintmask 01110000
          -52 callgsubr
          hintmask 10110000
          30 43 -4 -5 48 hvcurveto
          7 8 callsubr
          -35 8 -17 12 vhcurveto
          -15 8 -1 -21 callsubr
          332 vlineto
          74 58 -15 56 -59 -46 rlineto
          endchar
        </CharString>
        <CharString name="m">
          350 -34 callgsubr
          -38 callsubr
          151 120 151 120 cntrmask 00011100
          hintmask 10111100
          575 361 rmoveto
          -48 callgsubr
          hintmask 01111100
          5 55 30 5 callgsubr
          hintmask 10111100
          -64 callsubr
          hintmask 01111100
          -16 callsubr
          hintmask 10111100
          -39 callgsubr
          hintmask 01111100
          5 55 30 5 callgsubr
          hintmask 10111100
          26 24 -4 -5 49 hvcurveto
          8 8 callsubr
          -25 8 -13 10 vhcurveto
          -13 10 -3 -21 callsubr
          210 vlineto
          12 -1 11 -1 10 vhcurveto
          21 26 30 21 33 hhcurveto
          endchar
        </CharString>
        <CharString name="macron">
          -157 548 76 hstem
          22 548 -24 callgsubr
        </CharString>
        <CharString name="macron.case">
          -157 705 76 hstem
          27 705 -18 callgsubr
          endchar
        </CharString>
        <CharString name="macute">
          350 -34 callgsubr
          248 -33 callgsubr
          151 120 151 120 cntrmask 00001110
          hintmask 10111110
          575 361 rmoveto
          -48 callgsubr
          hintmask 01111110
          5 55 30 5 callgsubr
          hintmask 10111110
          -64 callsubr
          hintmask 01111110
          -16 callsubr
          hintmask 10111110
          -39 callgsubr
          hintmask 01111110
          5 55 30 5 callgsubr
          hintmask 10111110
          26 24 -4 -5 49 hvcurveto
          8 8 callsubr
          -25 8 -13 10 vhcurveto
          -13 10 -3 -21 callsubr
          210 vlineto
          12 -1 11 -1 10 vhcurveto
          21 26 30 21 33 hhcurveto
          -15 324 -92 callsubr
          endchar
        </CharString>
        <CharString name="minus">
          -24 181 76 hstem
          421 181 rmoveto
          76 -378 -76 vlineto
          endchar
        </CharString>
        <CharString name="mu">
          39 -239 -21 244 81 372 -20 hstemhm
          72 57 -57 120 129 121 hintmask 11101100
          72 405 rmoveto
          -270 vlineto
          -11 vlineto
          -8 -109 -7 -155 -1 -103 rrcurveto
          -8 18 55 -9 26 hhcurveto
          19 16 -9 12 -7 10 -9 30 rlinecurve
          hintmask 11110100
          -11 45 -8 69 -1 78 rrcurveto
          -11 19 24 -5 28 hhcurveto
          49 38 31 77 37 hvcurveto
          -30 vlineto
          -42 31 -36 48 55 46 49 57 39 vhcurveto
          -26 22 rlineto
          -16 -12 -23 -29 -16 hhcurveto
          -18 -6 18 25 hvcurveto
          211 vlineto
          39 0 29 10 25 vhcurveto
          -20 23 -56 -4 -20 -4 -24 -7 rlinecurve
          -11 -18 rlineto
          -210 vlineto
          -53 -44 -76 -45 vhcurveto
          hintmask 11101100
          -28 -12 27 63 hvcurveto
          166 vlineto
          39 0 29 10 25 vhcurveto
          -20 23 -56 -4 -18 -4 -24 -7 rlinecurve
          endchar
        </CharString>
        <CharString name="multiply">
          -16 53 -21 372 -20 hstem
          101 404 rmoveto
          -51 -51 135 -135 -135 -135 51 -51 135 135 135 -135 51 51 -135 135 135 135 -51 51 -135 -135 rlineto
          endchar
        </CharString>
        <CharString name="n">
          85 -34 callgsubr
          -38 callsubr
          157 120 hintmask 10111000
          -80 callgsubr
          hintmask 01111000
          5 57 30 -26 callsubr
          hintmask 10111000
          4 callsubr
          12 vhcurveto
          -15 8 -1 -21 callsubr
          210 vlineto
          111 -54 40 -94 -32 -35 -19 -25 -30 vhcurveto
          -33 -27 rlineto
          -5 14 -5 15 19 vvcurveto
          -21 23 -44 -4 -78 -22 -43 -19 rlinecurve
          5 -38 rlineto
          0 28 6 18 22 4 -16 -18 vhcurveto
          -250 vlineto
          18 callsubr
          hintmask 01111000
          -16 callsubr
          hintmask 10111000
          -68 callsubr
          endchar
        </CharString>
        <CharString name="nacute">
          85 -34 callgsubr
          248 -33 callgsubr
          157 120 hintmask 10111100
          -80 callgsubr
          hintmask 01111100
          5 57 30 -26 callsubr
          hintmask 10111100
          4 callsubr
          12 vhcurveto
          -15 8 -1 -21 callsubr
          210 vlineto
          111 -54 40 -94 -32 -35 -19 -25 -30 vhcurveto
          -33 -27 rlineto
          -5 14 -5 15 19 vvcurveto
          -21 23 -44 -4 -78 -22 -43 -19 rlinecurve
          5 -38 rlineto
          0 28 6 18 22 4 -16 -18 vhcurveto
          -250 vlineto
          18 callsubr
          hintmask 01111100
          -16 callsubr
          hintmask 10111100
          -68 callsubr
          184 611 -92 callsubr
          endchar
        </CharString>
        <CharString name="napostrophe">
          85 -34 callgsubr
          281 -20 hstemhm
          97 99 -99 120 157 120 hintmask 10110110
          -80 callgsubr
          hintmask 01111010
          5 57 30 -26 callsubr
          hintmask 10111010
          4 callsubr
          12 vhcurveto
          -15 8 -1 -21 callsubr
          210 vlineto
          111 -54 40 -94 -32 -35 -19 -25 -30 vhcurveto
          -33 -27 rlineto
          -5 14 -5 15 19 vvcurveto
          -21 23 -44 -4 -78 -22 -43 -19 rlinecurve
          5 -38 rlineto
          0 28 6 18 22 4 -16 -18 vhcurveto
          -250 vlineto
          18 callsubr
          hintmask 01111010
          -16 callsubr
          hintmask 10110110
          -68 callsubr
          -173 553 rmoveto
          34 -3 17 -7 -14 vvcurveto
          -29 -32 -45 -20 -21 vhcurveto
          29 -24 rlineto
          hintmask 10111010
          43 31 81 79 48 vvcurveto
          -88 callsubr
        </CharString>
        <CharString name="nbspace">
          -283 endchar
        </CharString>
        <CharString name="ncaron">
          85 -34 callgsubr
          0 63 184 -33 callgsubr
          157 120 hintmask 10101110
          -80 callgsubr
          hintmask 01101110
          5 57 30 -26 callsubr
          hintmask 10101110
          4 callsubr
          12 vhcurveto
          -15 8 -1 -21 callsubr
          210 vlineto
          111 -54 40 -94 -32 -35 -19 -25 -30 vhcurveto
          -33 -27 rlineto
          -5 14 -5 15 19 vvcurveto
          -21 23 -44 -4 -78 -22 -43 -19 rlinecurve
          5 -38 rlineto
          0 28 6 18 22 4 -16 -18 vhcurveto
          -250 vlineto
          18 callsubr
          hintmask 01101110
          -16 callsubr
          hintmask 10011110
          -68 callsubr
          76 506 -55 callgsubr
          -77 callgsubr
        </CharString>
        <CharString name="ncommaaccent">
          85 -249 -21 291 -21 361 76 -38 callsubr
          59 101 -3 120 hintmask 11110100
          -80 callgsubr
          5 57 30 -26 callsubr
          4 callsubr
          12 vhcurveto
          -15 8 -1 -21 callsubr
          210 vlineto
          111 -54 40 -94 -32 -35 -19 -25 -30 vhcurveto
          -33 -27 rlineto
          -5 14 -5 15 19 vvcurveto
          -21 23 -44 -4 -78 -22 -43 -19 rlinecurve
          5 -38 rlineto
          0 28 6 18 22 4 -16 -18 vhcurveto
          -250 vlineto
          18 callsubr
          -16 callsubr
          -68 callsubr
          8 -201 rmoveto
          hintmask 11111000
          -101 callsubr
        </CharString>
        <CharString name="nine">
          -11 -149 -21 242 53 266 54 hstem
          25 128 157 132 vstem
          209 72 rmoveto
          34 30 8 15 29 hvcurveto
          -28 -144 -92 -67 -105 -17 3 -37 rcurveline
          175 7 187 120 237 vvcurveto
          142 -65 109 -144 -112 -96 -91 -109 -105 74 -68 110 vhcurveto
          101 125 rmoveto
          -20 0 -15 -1 -13 vhcurveto
          -15 -24 -27 -9 -28 hhcurveto
          -54 -23 64 71 74 23 57 53 66 15 -105 -89 hvcurveto
          endchar
        </CharString>
        <CharString name="ninesuperior">
          -165 306 185 -39 39 129 46 hstemhm
          22 92 78 94 hintmask 10111000
          58 306 rmoveto
          112 4 116 74 138 vvcurveto
          81 -40 63 -91 -70 -63 -52 -62 vhcurveto
          hintmask 01111000
          -64 51 -36 70 18 17 6 6 11 vhcurveto
          -16 -78 -66 -42 -52 -8 rrcurveto
          hintmask 10111000
          98 155 rmoveto
          -28 -11 33 37 33 12 26 27 32 7 -47 -67 hvcurveto
          -5 -6 -14 -10 -19 hhcurveto
          endchar
        </CharString>
        <CharString name="nsuperior">
          -90 329 -21 240 62 1 -20 hstemhm
          64 86 101 87 hintmask 11011000
          150 524 rmoveto
          10 14 23 14 19 hhcurveto
          31 14 -18 -41 hvcurveto
          -121 vlineto
          -11 -2 -2 -5 -4 vhcurveto
          -10 -8 -22 -7 0 vvcurveto
          6 -28 rlineto
          4 29 33 3 19 hhcurveto
          19 34 -3 -4 30 hvcurveto
          6 28 rlineto
          0 -30 7 -14 10 vhcurveto
          -5 4 -1 1 12 vvcurveto
          133 vlineto
          79 -38 28 -67 -26 -27 -21 -19 -21 vhcurveto
          -14 -13 rlineto
          -2 9 -1 18 10 vvcurveto
          hintmask 10111000
          -13 17 -35 -5 -52 -14 -33 -13 rlinecurve
          4 -34 rlineto
          3 5 24 5 12 hhcurveto
          10 0 -12 -8 hvcurveto
          -163 vlineto
          -12 -1 -2 -5 -3 vhcurveto
          -16 -10 -29 -7 0 vvcurveto
          8 -28 rlineto
          4 22 35 3 21 hhcurveto
          20 37 -3 -4 27 hvcurveto
          6 28 rlineto
          0 -22 7 -10 7 vhcurveto
          -6 4 -1 2 12 vvcurveto
          endchar
        </CharString>
        <CharString name="ntilde">
          85 -34 callgsubr
          120 48 48 -33 callgsubr
          157 120 hintmask 10111110
          -80 callgsubr
          hintmask 01111110
          5 57 30 -26 callsubr
          hintmask 10111110
          4 callsubr
          12 vhcurveto
          -15 8 -1 -21 callsubr
          210 vlineto
          111 -54 40 -94 -32 -35 -19 -25 -30 vhcurveto
          -33 -27 rlineto
          -5 14 -5 15 19 vvcurveto
          -21 23 -44 -4 -78 -22 -43 -19 rlinecurve
          5 -38 rlineto
          0 28 6 18 22 4 -16 -18 vhcurveto
          -250 vlineto
          18 callsubr
          hintmask 01111110
          -16 callsubr
          hintmask 10111110
          -68 callsubr
          7 483 -104 callsubr
          endchar
        </CharString>
        <CharString name="numbersign">
          89 0 243 -74 74 129 74 -74 231 hstemhm
          hintmask 10100000
          293 hmoveto
          69 hlineto
          hintmask 01100000
          25 169 rlineto
          105 hlineto
          14 74 rlineto
          -109 hlineto
          7 45 5 41 7 43 rrcurveto
          105 hlineto
          14 74 rlineto
          -109 31 callgsubr
          -23 -157 rlineto
          -98 31 callgsubr
          -22 -157 rlineto
          -107 hlineto
          -13 -74 rlineto
          109 hlineto
          -5 -44 -8 -41 -6 -44 rrcurveto
          -105 hlineto
          hintmask 01100000
          -14 -74 rlineto
          108 hlineto
          hintmask 10100000
          -24 -169 rlineto
          68 hlineto
          hintmask 01100000
          24 169 rlineto
          99 hlineto
          hintmask 10100000
          -69 203 rmoveto
          99 hlineto
          -7 -44 -5 -41 -7 -44 rrcurveto
          -99 hlineto
          endchar
        </CharString>
        <CharString name="o">
          -17 callsubr
          hstem
          1 callgsubr
          129 vstem
          -98 callsubr
          endchar
        </CharString>
        <CharString name="oacute">
          -17 callsubr
          252 -20 hstem
          1 callgsubr
          129 vstem
          -98 callsubr
          211 465 -92 callsubr
          endchar
        </CharString>
        <CharString name="obreve">
          -17 callsubr
          73 87 66 -20 hstemhm
          1 callgsubr
          51 -51 129 hintmask 11111010
          -98 callsubr
          207 439 rmoveto
          -39 -9 -27 -27 -62 hhcurveto
          -62 -27 27 39 -9 hvcurveto
          -34 -10 rlineto
          -82 45 -61 87 vhcurveto
          hintmask 11111100
          -4 callgsubr
          hvcurveto
          endchar
        </CharString>
        <CharString name="ocircumflex">
          -17 callsubr
          245 -20 hstem
          1 callgsubr
          129 vstem
          -98 callsubr
          196 274 -95 callgsubr
          endchar
        </CharString>
        <CharString name="odieresis">
          -17 callsubr
          87 134 hstemhm
          31 129 -84 8 callgsubr
          -100 129 hintmask 11110010
          -98 callsubr
          hintmask 11101100
          -84 367 rmoveto
          -99 callgsubr
          223 hmoveto
          -99 callgsubr
          endchar
        </CharString>
        <CharString name="oe">
          247 -16 51 -51 73 168 217 -56 56 -5 -20 hstemhm
          31 129 169 118 136 130 hintmask 10010111
          713 235 rmoveto
          121 -58 86 -127 -59 -49 -27 -42 -34 vhcurveto
          hintmask 10001111
          40 -30 -46 24 -61 hhcurveto
          -131 -87 -100 -140 -125 75 -88 144 52 44 23 40 32 hvcurveto
          -40 36 52 -23 64 hhcurveto
          40 55 12 77 81 hvcurveto
          -18 27 rlineto
          hintmask 01010111
          -23 -33 -46 -20 -46 hhcurveto
          -71 -40 53 105 -5 hvcurveto
          -287 4 rmoveto
          112 23 55 52 59 35 -66 -123 vhcurveto
          -2 vlineto
          -10 vlineto
          hintmask 10100111
          -102 -2 -20 -48 -44 hhcurveto
          -65 -38 64 120 hvcurveto
          362 172 rmoveto
          45 16 -55 -56 hvcurveto
          -136 -19 rlineto
          64 22 66 53 vhcurveto
          endchar
        </CharString>
        <CharString name="ogonek">
          -212 -245 55 190 -20 hstem
          50 90 vstem
          140 -143 rmoveto
          54 44 54 34 35 vhcurveto
          -41 hlineto
          -43 callgsubr
          endchar
        </CharString>
        <CharString name="ograve">
          -17 callsubr
          252 -20 hstem
          1 callgsubr
          129 vstem
          -98 callsubr
          -23 438 -76 callgsubr
        </CharString>
        <CharString name="ohorn">
          50 -16 51 346 51 111 -20 hstemhm
          1 callgsubr
          129 -16 103 hintmask 11111000
          31 197 rmoveto
          -125 77 -88 147 133 91 98 137 49 -12 44 -24 34 vhcurveto
          hintmask 11110100
          66 22 57 35 65 -46 callgsubr
          -28 -27 -16 -24 -10 vhcurveto
          33 -37 -54 19 -67 hhcurveto
          -134 -89 -98 -137 hvcurveto
          129 22 rmoveto
          109 25 53 55 vhcurveto
          hintmask 11111000
          68 42 -64 -120 -110 -27 -52 -55 -68 -40 64 120 hvcurveto
          endchar
        </CharString>
        <CharString name="ohungarumlaut">
          -17 callsubr
          264 -20 hstem
          1 callgsubr
          129 vstem
          -98 callsubr
          289 477 -89 callsubr
        </CharString>
        <CharString name="omacron">
          -17 callsubr
          115 76 hstem
          1 callgsubr
          129 vstem
          -98 callsubr
          -40 328 -24 callgsubr
        </CharString>
        <CharString name="one">
          -165 13 -21 29 -21 445 -20 hstemhm
          106 122 hintmask 10110000
          228 424 rmoveto
          -21 21 -42 -7 -104 -25 -42 -16 rlinecurve
          6 -34 rlineto
          47 hlineto
          26 8 -10 -26 hvcurveto
          -246 vlineto
          18 callgsubr
          hintmask 01110000
          5 41 73 3 30 hhcurveto
          hintmask 10110000
          29 60 -3 -5 41 hvcurveto
          8 37 rlineto
          0 -45 10 -19 10 vhcurveto
          -13 7 -5 7 18 vvcurveto
          endchar
        </CharString>
        <CharString name="onehalf">
          291 0 51 -46 -21 331 35 337 -20 hstemhm
          124 85 378 94 hintmask 01111100
          157 -7 callgsubr
          -304 -38 rmoveto
          -17 17 -33 -6 -75 -23 -32 -14 rlinecurve
          4 -29 rlineto
          40 hlineto
          21 7 -8 -21 hvcurveto
          -181 vlineto
          -13 -5 -6 -10 -6 vhcurveto
          -16 -10 -36 -3 0 vvcurveto
          7 -36 rlineto
          4 31 52 1 23 hhcurveto
          22 43 -1 -4 32 hvcurveto
          5 8 callsubr
          -33 3 -16 10 vhcurveto
          -10 6 -4 6 13 vvcurveto
          288 -92 6 callgsubr
          rrcurveto
          hintmask 10111100
          5 -40 rlineto
          -47 callgsubr
        </CharString>
        <CharString name="onequarter">
          243 5 -21 37 -21 98 50 539 -20 hstemhm
          124 85 327 85 hintmask 10111100
          179 -7 callgsubr
          -326 -38 rmoveto
          -17 17 -33 -6 -75 -23 -32 -14 rlinecurve
          4 -29 rlineto
          40 hlineto
          21 7 -8 -21 hvcurveto
          -181 vlineto
          -13 -5 -6 -10 -6 vhcurveto
          -16 -10 -36 -3 0 vvcurveto
          7 -36 rlineto
          4 31 52 1 23 hhcurveto
          22 43 -1 -4 32 hvcurveto
          5 8 callsubr
          -33 3 -16 10 vhcurveto
          -10 6 -4 6 13 vvcurveto
          412 -286 -51 callsubr
          hintmask 01111100
          -59 callsubr
        </CharString>
        <CharString name="onesuperior">
          -195 331 -21 356 -20 hstem
          108 85 vstem
          193 649 rmoveto
          -17 17 -33 -6 -75 -23 -32 -14 rlinecurve
          4 -29 rlineto
          40 hlineto
          21 7 -8 -21 hvcurveto
          -181 vlineto
          -13 -5 -6 -10 -6 vhcurveto
          -16 -10 -36 -3 0 vvcurveto
          7 -36 rlineto
          4 31 52 1 23 hhcurveto
          22 43 -1 -4 32 hvcurveto
          5 8 callsubr
          -33 3 -16 10 vhcurveto
          -10 6 -4 6 13 vvcurveto
          endchar
        </CharString>
        <CharString name="ordfeminine">
          -107 306 57 211 41 hstem
          45 91 67 85 vstem
          288 511 rmoveto
          71 -35 33 -71 -37 -54 -22 -13 -29 vhcurveto
          1 -15 12 -48 6 -13 38 8 rcurveline
          -1 13 2 31 3 10 rrcurveto
          5 11 16 3 15 hhcurveto
          31 7 -33 -39 hvcurveto
          -24 vlineto
          -46 -7 rlineto
          -62 -7 -50 -16 -63 vvcurveto
          -48 31 -31 51 30 24 23 27 27 vhcurveto
          6 -20 21 -23 17 -7 23 10 41 13 24 4 -8 36 rcurveline
          -18 -3 -12 1 -7 3 rrcurveto
          -5 4 -2 5 12 vvcurveto
          -152 1 rmoveto
          31 15 12 21 6 vhcurveto
          31 7 rlineto
          -65 vlineto
          -12 -13 -15 -8 -14 hhcurveto
          -17 -8 13 16 hvcurveto
          endchar
        </CharString>
        <CharString name="ordmasculine">
          -106 305 46 218 46 hstem
          38 94 117 95 vstem
          38 457 rmoveto
          -90 53 -62 100 91 62 69 97 84 -54 60 -100 -91 -61 -67 -91 vhcurveto
          94 14 rmoveto
          65 15 33 34 43 25 -40 -72 -72 -15 -34 -34 -43 -25 42 78 vhcurveto
          endchar
        </CharString>
        <CharString name="oslash">
          34 -26 -21 31 52 350 51 40 -67 callsubr
          endchar
        </CharString>
        <CharString name="oslashacute">
          34 -26 -21 31 52 350 51 248 -67 callsubr
          202 466 -92 callsubr
          endchar
        </CharString>
        <CharString name="otilde">
          -17 callsubr
          124 48 48 -20 hstem
          1 callgsubr
          129 vstem
          -98 callsubr
          34 337 -104 callsubr
          endchar
        </CharString>
        <CharString name="overscore">
          12 527 69 hstem
          527 vmoveto
          500 69 -500 hlineto
          endchar
        </CharString>
        <CharString name="p">
          44 -244 -20 32 -21 237 51 327 75 5 -20 hstemhm
          84 120 172 129 hintmask 01110110
          204 321 rmoveto
          27 29 28 14 24 hhcurveto
          57 34 -47 -109 -119 -46 -52 -48 -31 -32 24 32 -15 hvcurveto
          -3 278 rmoveto
          -5 14 -5 17 19 vvcurveto
          hintmask 01101110
          -21 23 -44 -4 -76 -22 -43 -19 rlinecurve
          5 -38 rlineto
          0 28 6 18 22 4 -16 -18 vhcurveto
          -499 vlineto
          18 callsubr
          hintmask 10110110
          4 57 30 5 30 hhcurveto
          hintmask 01110110
          11 callsubr
          176 vlineto
          -11 18 27 -11 24 hhcurveto
          136 96 102 143 124 -51 84 -126 -22 -28 -10 -25 -33 hvcurveto
          endchar
        </CharString>
        <CharString name="paragraph">
          47 -170 108 672 -20 76 -20 hstem
          342 95 vstem
          26 415 rmoveto
          -111 76 -66 120 vhcurveto
          40 hlineto
          23 19 rlineto
          334 vlineto
          -23 19 rlineto
          -40 hlineto
          -121 -75 -85 -110 hvcurveto
          411 140 rmoveto
          22 2 15 23 25 39 -6 0 vhcurveto
          9 45 -46 15 -94 16 -46 4 rlinecurve
          -20 -23 rlineto
          11 -29 2 -45 -47 vvcurveto
          -445 vlineto
          -29 0 -26 -7 -22 vhcurveto
          -35 -8 -27 -27 -33 hhcurveto
          -21 -18 11 13 -17 hvcurveto
          -25 -10 7 -29 22 -67 20 -26 rlinecurve
          17 hlineto
          80 62 52 58 27 hvcurveto
          12 34 4 36 32 vvcurveto
          endchar
        </CharString>
        <CharString name="parenleft">
          -159 -149 -21 836 -20 hstem
          65 129 vstem
          277 666 rmoveto
          -127 -84 -85 -153 -179 vvcurveto
          -182 85 -153 127 -85 vhcurveto
          28 25 rlineto
          -83 96 -28 124 175 vvcurveto
          169 25 123 83 96 vhcurveto
          endchar
        </CharString>
        <CharString name="parenright">
          -159 -149 -21 836 -20 hstem
          135 129 vstem
          27 638 rmoveto
          83 -96 25 -123 -169 vvcurveto
          -175 -28 -124 -83 -96 vhcurveto
          28 -25 rlineto
          127 85 85 153 182 vvcurveto
          179 -85 153 -127 84 vhcurveto
          endchar
        </CharString>
        <CharString name="percent">
          318 -16 46 222 46 -2 46 222 46 hstemhm
          50 91 135 91 72 91 135 91 hintmask 10111111
          179 -16 rmoveto
          78 hlineto
          370 626 rlineto
          -78 hlineto
          -182 -156 rmoveto
          3 callgsubr
          32 80 79 34 31 34 33 34 -32 -78 vhcurveto
          480 -312 rmoveto
          hintmask 11011111
          3 callgsubr
          31 81 78 34 32 34 33 34 -32 -78 vhcurveto
          endchar
        </CharString>
        <CharString name="period">
          -241 -16 148 hstem
          40 167 vstem
          40 58 rmoveto
          -46 callsubr
          endchar
        </CharString>
        <CharString name="periodcentered">
          -203 204 15 callgsubr
          277 rmoveto
          -90 callsubr
        </CharString>
        <CharString name="peseta">
          41 -69 callsubr
          233 42 117 52 117 28 callsubr
          hintmask 10111100
          51 444 rmoveto
          -10 -52 rlineto
          79 -313 hlineto
          -33 callsubr
          305 147 vlineto
          -77 -6 -34 -40 -60 -1 callgsubr
          88 90 69 90 21 hvcurveto
          42 hlineto
          10 52 rlineto
          -49 hlineto
          122 -7 -104 44 -137 hhcurveto
          12 callgsubr
          -77 vlineto
          129 110 rmoveto
          3 9 16 4 12 hhcurveto
          59 43 -39 -78 8 hvcurveto
          -147 hlineto
          endchar
        </CharString>
        <CharString name="plus">
          -24 36 -21 166 76 164 -20 hstem
          192 80 vstem
          272 421 rmoveto
          -80 -164 -149 -76 149 -166 80 166 149 76 -149 hlineto
          endchar
        </CharString>
        <CharString name="plusminus">
          -16 11 75 191 76 149 -20 hstem
          196 80 vstem
          276 502 rmoveto
          -80 -149 -142 -76 142 -151 80 151 142 76 -142 hlineto
          149 -342 rmoveto
          75 -378 -75 vlineto
          endchar
        </CharString>
        <CharString name="q">
          17 -244 -20 31 -21 238 69 328 40 -40 56 hstemhm
          27 129 174 118 hintmask 01101110
          440 437 rmoveto
          hintmask 01110110
          -9 -27 -28 -7 -20 hhcurveto
          hintmask 01101110
          -26 -33 16 -49 hhcurveto
          -143 -87 -103 -139 -127 69 -84 127 29 36 18 40 42 hvcurveto
          -210 vlineto
          -16 -5 -6 -16 -7 vhcurveto
          -17 -7 -55 -11 35 callgsubr
          hintmask 10110110
          5 55 56 5 32 hhcurveto
          hintmask 01101110
          29 40 -3 -7 47 hvcurveto
          7 8 callsubr
          -28 9 -20 11 vhcurveto
          -14 8 -1 -21 callsubr
          488 vlineto
          39 0 41 12 25 vhcurveto
          -206 -371 rmoveto
          -56 -42 48 117 114 41 49 52 43 36 -25 -41 hvcurveto
          -232 vlineto
          -21 -27 -25 -9 -22 hhcurveto
          endchar
        </CharString>
        <CharString name="question">
          -46 -16 148 483 51 hstemhm
          113 97 -97 162 8 120 hintmask 11101000
          113 279 rmoveto
          13 -36 32 -43 18 -18 39 33 rcurveline
          0 -5 27 20 vvcurveto
          36 41 33 44 36 vhcurveto
          52 42 56 46 62 vvcurveto
          103 -70 46 -99 -51 -78 -24 -23 -52 vhcurveto
          -32 19 -78 7 -25 vhcurveto
          54 11 rlineto
          87 3 21 33 58 hhcurveto
          34 34 -31 -53 -39 -31 -36 -35 -35 hvcurveto
          -47 -47 -55 -45 -2 -50 rrcurveto
          -5 -221 rmoveto
          -44 34 -30 49 vhcurveto
          hintmask 11011000
          50 34 30 44 44 -34 30 -50 -50 -33 -30 -44 hvcurveto
          endchar
        </CharString>
        <CharString name="questiondown">
          -56 -250 51 483 148 hstemhm
          19 120 8 162 -97 97 hintmask 11101000
          309 137 rmoveto
          -13 36 -32 43 -18 18 -39 -33 rcurveline
          0 5 -27 -20 vvcurveto
          -36 -41 -33 -44 -36 vhcurveto
          -52 -42 -56 -46 -62 vvcurveto
          -103 70 -46 99 51 78 24 23 52 vhcurveto
          32 -19 78 -7 25 vhcurveto
          -54 -11 rlineto
          -87 -3 -21 -33 -58 hhcurveto
          -34 -34 31 53 39 31 36 35 35 hvcurveto
          47 47 55 45 2 50 rrcurveto
          5 221 rmoveto
          44 -34 30 -49 vhcurveto
          hintmask 11110000
          26 callsubr
          hvcurveto
          endchar
        </CharString>
        <CharString name="quotedbl">
          -122 488 -21 261 -20 hstem
          213 717 9 callgsubr
          -202 -11 9 callgsubr
          endchar
        </CharString>
        <CharString name="quotedblbase">
          -32 -149 24 callsubr
          110 99 111 100 vstem
          260 12 rmoveto
          40 -2 20 -7 -18 -20 callsubr
          -2 20 -7 -18 -10 callgsubr
        </CharString>
        <CharString name="quotedblleft">
          -32 424 24 callsubr
          36 100 111 99 vstem
          196 506 4 callgsubr
          -31 25 rlineto
          -47 19 callgsubr
          13 23 rrcurveto
          197 30 4 callgsubr
          -30 25 rlineto
          -48 -41 -91 -106 -53 vvcurveto
          -49 56 -33 41 -3 vhcurveto
          25 15 37 35 14 23 rrcurveto
          endchar
        </CharString>
        <CharString name="quotedblright">
          -32 421 24 callsubr
          110 99 111 100 vstem
          260 582 rmoveto
          40 -3 20 -5 -19 -20 callsubr
          -3 20 -5 -19 -10 callgsubr
        </CharString>
        <CharString name="quoteleft">
          -242 424 24 callsubr
          36 100 vstem
          196 506 4 callgsubr
          -30 25 rlineto
          -48 19 callgsubr
          14 23 rrcurveto
          endchar
        </CharString>
        <CharString name="quoteright">
          -242 421 24 callsubr
          110 100 vstem
          50 582 -22 callsubr
        </CharString>
        <CharString name="quotesinglbase">
          -242 -149 24 callsubr
          110 100 vstem
          50 12 -22 callsubr
        </CharString>
        <CharString name="quotesingle">
          -306 493 -21 256 -20 hstem
          50 717 rmoveto
          11 -238 10 -7 28 5 rlineto
          16 75 23 120 39 vvcurveto
          8 -13 -40 9 -21 hhcurveto
          endchar
        </CharString>
        <CharString name="r">
          -80 -69 callsubr
          360 77 -38 callsubr
          0 113 hintmask 10110000
          -68 callgsubr
          hintmask 01110000
          5 45 51 5 callgsubr
          hintmask 10110000
          -58 callsubr
          hintmask 10101000
          -50 callsubr
          endchar
        </CharString>
        <CharString name="racute">
          -80 -69 callsubr
          360 77 248 -33 callgsubr
          0 113 hintmask 10111000
          -68 callgsubr
          hintmask 01111000
          5 45 51 5 callgsubr
          hintmask 10111000
          -58 callsubr
          hintmask 10110100
          -50 callsubr
          135 271 -92 callsubr
          endchar
        </CharString>
        <CharString name="rcaron">
          -80 -69 callsubr
          360 77 0 63 184 -33 callgsubr
          0 113 hintmask 10101100
          -68 callgsubr
          hintmask 01101100
          5 45 51 5 callgsubr
          hintmask 10101100
          -58 callsubr
          hintmask 10101010
          -50 callsubr
          27 166 -55 callgsubr
          hintmask 10011100
          -77 callgsubr
        </CharString>
        <CharString name="rcommaaccent">
          -80 1 callsubr
          36 360 77 -38 callsubr
          -73 101 -28 113 hintmask 11110000
          -68 callgsubr
          5 45 51 5 callgsubr
          -58 callsubr
          hintmask 11100100
          18 9 -43 -52 hvcurveto
          42 5 13 31 22 85 6 33 rlinecurve
          6 -17 -35 18 -26 hhcurveto
          hintmask 11101000
          -33 -28 -12 -41 -29 hvcurveto
          hintmask 11110000
          -28 -39 rlineto
          -5 18 -4 30 21 vvcurveto
          -115 -541 rmoveto
          hintmask 11101000
          -101 callsubr
        </CharString>
        <CharString name="registered">
          9 233 38 91 109 -109 199 66 39 hstemhm
          32 51 97 48 46 50 90 51 hintmask 11011111
          228 538 rmoveto
          2 4 8 1 4 hhcurveto
          21 9 -10 -24 -26 -12 -10 -21 hvcurveto
          -13 hlineto
          -48 -82 rmoveto
          -4 0 -3 -5 -1 vhcurveto
          -6 -4 -11 0 0 vvcurveto
          1 -17 rlineto
          1 18 19 1 11 hhcurveto
          10 20 -1 -1 16 hvcurveto
          2 17 rlineto
          0 -16 3 -4 1 vhcurveto
          -7 2 0 4 5 vvcurveto
          59 7 vlineto
          11 6 -16 -6 4 hvcurveto
          -26 16 21 -42 14 hhcurveto
          50 hlineto
          5 19 rlineto
          -6 -7 0 6 -7 hvcurveto
          -23 12 -19 55 -25 6 rrcurveto
          3 vlineto
          28 1 21 21 27 vvcurveto
          hintmask 10111111
          36 -37 14 -43 -30 -35 -4 2 -20 vhcurveto
          -1 -16 rlineto
          0 12 0 5 -4 vhcurveto
          5 -1 0 -3 -4 vvcurveto
          -148 -82 rmoveto
          -121 96 -95 121 121 95 95 121 121 -95 96 -121 -121 -96 -96 -121 vhcurveto
          51 hmoveto
          99 75 79 91 90 75 -79 -99 -99 -75 -79 -90 -91 -75 79 99 vhcurveto
          endchar
        </CharString>
        <CharString name="ring">
          498 31 callsubr
          588 -86 callgsubr
          endchar
        </CharString>
        <CharString name="s">
          30 callsubr
          hstem
          40 112 87 117 vstem
          -93 callgsubr
          endchar
        </CharString>
        <CharString name="sacute">
          30 callsubr
          248 -20 hstem
          40 112 87 117 vstem
          -93 callgsubr
          129 653 -92 callsubr
          endchar
        </CharString>
        <CharString name="scaron">
          30 callsubr
          0 63 184 -20 hstemhm
          40 112 87 117 hintmask 11011100
          -93 callgsubr
          21 548 -55 callgsubr
          hintmask 10111100
          -77 callgsubr
        </CharString>
        <CharString name="scedilla">
          -99 0 callsubr
          56 47 359 46 hstemhm
          40 112 22 78 -13 117 hintmask 10111100
          85 -85 callgsubr
          hintmask 01111010
          32 callsubr
          rlineto
          99 5 65 44 84 vvcurveto
          89 -74 34 -59 29 vhcurveto
          -39 19 -32 18 31 vvcurveto
          30 13 23 32 46 30 -37 -59 15 vhcurveto
          40 9 6 19 10 67 1 24 rlinecurve
          9 -33 -63 14 -45 hhcurveto
          -99 -65 -45 -76 -83 61 -32 55 -27 hvcurveto
          44 -22 39 -19 -41 vvcurveto
          -43 -26 -17 -30 -55 -37 46 63 -10 vhcurveto
          -49 -11 -3 -20 1 -78 2 -21 rlinecurve
          24 -11 37 -9 36 -4 rrcurveto
          endchar
        </CharString>
        <CharString name="scircumflex">
          30 callsubr
          241 -20 hstem
          40 112 87 117 vstem
          -93 callgsubr
          114 462 -95 callgsubr
          endchar
        </CharString>
        <CharString name="scommaaccent">
          -99 1 callsubr
          20 0 48 359 46 hstemhm
          40 112 1 101 -15 117 hintmask 10111010
          -93 callgsubr
          -81 -159 rmoveto
          hintmask 11011100
          -101 callsubr
        </CharString>
        <CharString name="section">
          -17 -171 55 729 53 hstemhm
          55 102 -102 116 119 129 -109 109 hintmask 11101000
          45 266 rmoveto
          -107 63 -34 72 -44 vhcurveto
          71 -43 39 -25 -49 vvcurveto
          -58 -31 -22 -45 -59 -41 58 77 -11 vhcurveto
          -48 -11 rlineto
          -144 vlineto
          -21 36 62 -14 46 hhcurveto
          131 89 55 108 62 -31 39 -42 31 hvcurveto
          43 25 38 47 48 vvcurveto
          110 -89 35 -78 48 vhcurveto
          hintmask 11010100
          -61 38 -28 21 42 vvcurveto
          41 20 34 48 25 24 -6 -17 18 vhcurveto
          11 -20 6 -42 6 -32 42 9 rcurveline
          7 23 11 83 1 28 rrcurveto
          10 -36 -64 17 -42 hhcurveto
          -122 -79 -58 -96 -65 32 -35 43 -30 hvcurveto
          -42 -24 -35 -46 -46 vvcurveto
          265 -52 rmoveto
          -17 -6 -22 -11 -17 vhcurveto
          -14 9 -15 9 -14 9 rrcurveto
          hintmask 11100100
          -66 43 -27 15 48 vvcurveto
          18 6 24 12 17 vhcurveto
          21 -12 rlineto
          77 -46 37 -23 -55 vvcurveto
          endchar
        </CharString>
        <CharString name="semicolon">
          -233 -161 -21 302 159 0 148 hstemhm
          40 167 -95 95 hintmask 10110000
          40 353 rmoveto
          -46 callsubr
          9 -336 rmoveto
          hintmask 11001000
          -22 callgsubr
        </CharString>
        <CharString name="seven">
          -74 -149 -21 525 74 8 -20 hstemhm
          47 133 hintmask 11010000
          303 355 rmoveto
          5 -7 -135 -187 -117 -198 -9 -116 rlinecurve
          14 -17 rlineto
          25 66 6 8 28 hvcurveto
          4 152 108 199 128 198 -27 36 rcurveline
          -267 hlineto
          hintmask 10110000
          -24 -54 3 5 -26 hvcurveto
          -2 -16 -1 -33 -32 vvcurveto
          -34 2 -35 2 -20 vhcurveto
          48 -4 rlineto
          hintmask 11010000
          3 22 10 53 8 17 rrcurveto
          endchar
        </CharString>
        <CharString name="sevensuperior">
          -205 330 -21 298 52 4 -20 hstemhm
          50 93 hintmask 11010000
          206 607 rmoveto
          -82 -106 -69 -118 -5 -63 8 -11 rcurveline
          18 47 4 6 20 hvcurveto
          2 87 54 115 81 110 -14 28 rcurveline
          -167 hlineto
          hintmask 10110000
          -14 -32 1 3 -18 hvcurveto
          -1 -9 -1 -14 -21 vvcurveto
          -27 1 -27 2 -15 vhcurveto
          34 -3 rlineto
          hintmask 11010000
          2 14 5 35 4 11 rrcurveto
          endchar
        </CharString>
        <CharString name="six">
          -13 -14 53 271 54 246 -20 hstem
          31 132 157 128 vstem
          264 364 rmoveto
          -8 -15 -2 -4 -8 hvcurveto
          -23 -11 -20 -23 -8 -10 4 -21 rcurveline
          11 17 21 6 20 hhcurveto
          53 23 -69 -73 -71 -22 -58 -52 -64 -19 108 83 204 79 116 146 22 hvcurveto
          -4 38 rlineto
          -179 -8 -174 -130 -245 vvcurveto
          -136 68 -105 143 112 94 81 115 113 -67 69 -117 vhcurveto
          endchar
        </CharString>
        <CharString name="sixsuperior">
          -155 309 46 132 39 -39 179 hstemhm
          37 94 85 92 hintmask 11011000
          186 526 rmoveto
          -18 -20 -12 -12 -15 hvcurveto
          14 79 47 44 73 10 rrcurveto
          hintmask 10111000
          -4 31 rlineto
          -116 -6 -110 -73 -140 vvcurveto
          -78 44 -60 92 73 62 47 66 vhcurveto
          hintmask 11011000
          64 -45 40 -77 vhcurveto
          -12 -39 rmoveto
          30 12 -32 -41 -34 -12 -25 -29 -35 -9 48 61 hvcurveto
          12 14 14 11 15 hhcurveto
          endchar
        </CharString>
        <CharString name="slash">
          -47 -149 -21 837 -20 hstem
          27 -131 rmoveto
          74 -39 313 798 -74 39 rlineto
          endchar
        </CharString>
        <CharString name="space">
          -283 endchar
        </CharString>
        <CharString name="sterling">
          37 0 71 -59 -21 292 52 220 55 hstemhm
          119 125 hintmask 01111000
          60 335 rmoveto
          -10 -52 rlineto
          69 -148 17 callsubr
          hintmask 10111000
          -15 callgsubr
          rlineto
          19 15 24 37 51 vvcurveto
          96 126 vlineto
          10 52 rlineto
          -136 -30 callsubr
        </CharString>
        <CharString name="t">
          -146 -16 76 306 58 106 -20 hstem
          73 120 vstem
          -66 callsubr
          endchar
        </CharString>
        <CharString name="tbar">
          -146 -16 76 156 52 98 58 106 -20 hstem
          73 120 vstem
          23 371 rmoveto
          50 -103 -61 hlineto
          -10 -52 rlineto
          71 -107 hlineto
          -102 57 -23 64 58 54 44 29 35 vhcurveto
          -20 33 rlineto
          -14 -22 -32 -16 -31 hhcurveto
          -25 -18 9 55 hvcurveto
          92 90 vlineto
          10 52 rlineto
          -100 100 hlineto
          107 -4 11 65 -118 -9 rlineto
          110 vlineto
          -120 -55 rlineto
          -49 vlineto
          -58 -18 rlineto
          endchar
        </CharString>
        <CharString name="tcaron">
          -146 -16 76 306 58 294 -20 hstem
          73 120 86 101 vstem
          -66 callsubr
          213 219 rmoveto
          -101 callsubr
        </CharString>
        <CharString name="tcedilla">
          -146 0 callsubr
          437 58 106 -20 hstemhm
          73 120 -1 78 hintmask 10110100
          103 -85 callgsubr
          hintmask 01111000
          32 callsubr
          52 7 47 39 32 26 rlinecurve
          -20 33 rlineto
          -14 -22 -32 -16 -31 hhcurveto
          -25 -18 9 55 hvcurveto
          244 vlineto
          107 -4 11 65 -118 -9 rlineto
          110 vlineto
          -120 -55 rlineto
          -49 vlineto
          -58 -18 8 -37 rlineto
          50 -262 hlineto
          -77 32 -32 43 -11 vhcurveto
          endchar
        </CharString>
        <CharString name="tcommaaccent">
          -146 1 callsubr
          20 0 76 306 58 106 -20 hstemhm
          73 120 -22 101 hintmask 10111100
          -66 callsubr
          105 -535 rmoveto
          hintmask 11011010
          -101 callsubr
        </CharString>
        <CharString name="thorn">
          27 -244 -20 32 -21 237 56 323 74 281 -20 hstemhm
          62 120 173 129 hintmask 01111110
          62 -168 rmoveto
          18 callsubr
          hintmask 10111110
          4 57 30 5 30 hhcurveto
          hintmask 01111110
          11 callsubr
          161 vlineto
          -4 24 25 -3 24 hhcurveto
          -36 callgsubr
          199 -249 -2 callsubr
        </CharString>
        <CharString name="three">
          -63 -170 55 505 55 hstemhm
          242 126 -102 132 hintmask 11010000
          116 125 rmoveto
          82 68 -17 -108 -66 -41 -49 -60 -30 -25 7 8 -17 hvcurveto
          -4 17 0 53 28 vvcurveto
          -47 8 -9 -28 -23 -89 -2 -28 rlinecurve
          -11 33 83 -20 53 hhcurveto
          123 98 78 109 103 -82 50 -81 hvcurveto
          9 vlineto
          hintmask 11100000
          62 19 71 50 74 vvcurveto
          87 -76 36 -95 -57 -78 -27 -13 -35 vhcurveto
          3 -27 17 -81 11 -25 47 8 rcurveline
          -4 29 4 52 7 18 rrcurveto
          7 15 32 4 22 hhcurveto
          43 18 -33 -52 -73 -72 -50 -52 -13 hvcurveto
          endchar
        </CharString>
        <CharString name="threequarters">
          250 5 -21 37 -21 98 50 158 46 -46 196 118 46 21 -20 hstemhm
          206 90 -72 94 225 85 hintmask 1011011011000000
          185 -7 callgsubr
          -402 -213 -29 callgsubr
          hintmask 0110111101000000
          -42 callgsubr
          487 -411 -51 callsubr
          -59 callsubr
        </CharString>
        <CharString name="threesuperior">
          -141 306 46 -46 196 118 46 hstemhm
          193 90 -72 94 hintmask 10101000
          126 474 -29 callgsubr
          hintmask 01110000
          -42 callgsubr
          endchar
        </CharString>
        <CharString name="tilde">
          -45 532 -21 46 48 48 -20 hstem
          152 557 -104 callsubr
          endchar
        </CharString>
        <CharString name="two">
          -49 0 72 318 55 hstem
          239 132 vstem
          121 375 rmoveto
          10 16 23 5 23 hhcurveto
          39 17 -34 -45 -50 -22 -39 -48 -50 hvcurveto
          -36 -37 -76 -59 -32 -24 6 -52 rcurveline
          355 hlineto
          5 23 16 100 1 23 -42 7 rcurveline
          -6 -20 -30 -49 -13 -12 rrcurveto
          -156 hlineto
          -4 9 23 14 49 27 33 26 rlinecurve
          61 48 48 45 77 vvcurveto
          92 -80 35 -95 -56 -75 -30 -15 -35 vhcurveto
          3 -27 17 -79 11 -27 51 8 rcurveline
          -3 29 4 54 8 17 rrcurveto
          endchar
        </CharString>
        <CharString name="twosuperior">
          -121 315 51 253 46 hstem
          196 94 vstem
          106 607 6 callgsubr
          5 -40 rcurveline
          -47 callgsubr
        </CharString>
        <CharString name="u">
          16 callgsubr
          -13 callgsubr
          vstem
          -106 callsubr
          endchar
        </CharString>
        <CharString name="uacute">
          16 callgsubr
          268 -20 -13 callgsubr
          vstem
          -106 callsubr
          -89 590 -92 callsubr
          endchar
        </CharString>
        <CharString name="ubreve">
          62 -16 76 301 232 -156 -20 89 87 66 -75 callsubr
          -93 564 rmoveto
          -39 -9 -27 -27 -62 hhcurveto
          -62 -27 27 39 -9 hvcurveto
          -34 -10 rlineto
          hintmask 10111110
          -82 45 -61 87 -4 callgsubr
          vhcurveto
          endchar
        </CharString>
        <CharString name="ucircumflex">
          16 callgsubr
          261 -20 -13 callgsubr
          vstem
          -106 callsubr
          -104 399 -95 callgsubr
          endchar
        </CharString>
        <CharString name="udieresis">
          16 callgsubr
          103 134 hstemhm
          78 120 -120 156 72 161 -120 120 hintmask 11110010
          -106 callsubr
          -384 492 rmoveto
          -40 31 -27 44 vhcurveto
          hintmask 11101100
          45 31 27 40 40 -31 27 -45 -45 -30 -27 -40 hvcurveto
          223 hmoveto
          -99 callgsubr
          endchar
        </CharString>
        <CharString name="ugrave">
          16 callgsubr
          268 -20 -13 callgsubr
          vstem
          -106 callsubr
          -323 563 -76 callgsubr
        </CharString>
        <CharString name="uhorn">
          98 22 callgsubr
          181 -20 -13 callgsubr
          41 103 vstem
          -11 callgsubr
          31 3 24 7 22 vhcurveto
          71 22 63 35 68 -46 callgsubr
          -26 -24 -16 -22 -10 vhcurveto
          -45 -1 -94 -22 -46 -20 8 -40 rcurveline
          0 19 7 16 -61 callgsubr
          vhcurveto
          -230 vlineto
          -19 -25 -34 -17 -25 hhcurveto
          -46 -19 29 66 hvcurveto
          166 vlineto
          39 6 28 10 26 vhcurveto
          -20 23 rlineto
          -44 -95 -23 -20 -47 hvcurveto
          8 -40 rlineto
          -63 callgsubr
          endchar
        </CharString>
        <CharString name="uhungarumlaut">
          16 callgsubr
          280 -20 -13 callgsubr
          vstem
          -106 callsubr
          -11 602 -89 callsubr
        </CharString>
        <CharString name="umacron">
          16 callgsubr
          131 76 -13 callgsubr
          vstem
          -106 callsubr
          -340 453 -24 callgsubr
        </CharString>
        <CharString name="underscore">
          12 -156 69 hstem
          -156 vmoveto
          500 69 -500 hlineto
          endchar
        </CharString>
        <CharString name="uni02F3">
          -244 31 callsubr
          -154 -86 callgsubr
          endchar
        </CharString>
        <CharString name="uni1E00">
          164 -244 45 90 45 85 -21 228 64 383 -20 hstem
          201 60 83 60 vstem
          450 -84 callgsubr
          -32 callsubr
          -96 callsubr
          -31 callsubr
          -94 callgsubr
          -198 -382 rmoveto
          -49 46 -41 55 55 47 41 49 49 -47 41 -55 -55 -46 -41 -49 vhcurveto
          85 639 -74 callsubr
          42 -446 rmoveto
          25 19 20 22 22 20 -20 -25 -25 -20 -20 -22 -22 -19 20 25 vhcurveto
          endchar
        </CharString>
        <CharString name="uni1E01">
          -29 -244 45 90 45 48 75 323 55 hstemhm
          30 120 -11 60 61 120 -98 60 hintmask 11111010
          -88 callgsubr
          187 232 rmoveto
          99 -49 47 -108 -47 -92 -37 -17 -37 vhcurveto
          1 -29 21 -68 8 -25 rrcurveto
          hintmask 11110110
          62 17 rlineto
          22 0 48 6 21 vhcurveto
          6 12 24 7 23 hhcurveto
          47 9 -42 -63 hvcurveto
          -47 vlineto
          -67 -8 rlineto
          hintmask 11111010
          -92 -11 -71 -24 -87 vvcurveto
          -69 50 -47 78 27 27 13 51 51 vhcurveto
          8 -30 21 -20 23 -14 45 14 41 12 49 -80 callsubr
          hintmask 11110101
          -181 -246 -86 callgsubr
          endchar
        </CharString>
        <CharString name="uni1EF4">
          120 -234 146 109 10 callgsubr
          220 167 -142 119 hintmask 11010100
          -57 callgsubr
          -8 callgsubr
          30 63 -3 -5 47 hvcurveto
          9 8 callsubr
          -51 9 -17 callgsubr
          6 17 vvcurveto
          198 vlineto
          157 276 26 55 23 11 38 4 rlinecurve
          4 38 rlineto
          hintmask 11101000
          -5 -34 -41 -5 -32 hhcurveto
          hintmask 11011000
          -40 -44 5 5 -41 hvcurveto
          3 -38 12 -3 38 -8 16 -10 rlinecurve
          6 -5 3 -8 -8 vvcurveto
          -7 -4 -9 -6 -10 vhcurveto
          -106 -194 -111 193 rlineto
          -5 8 -3 10 7 vvcurveto
          13 8 10 9 5 vhcurveto
          17 10 29 6 0 vvcurveto
          3 38 rlineto
          hintmask 11101000
          -5 -42 -70 -5 -51 hhcurveto
          hintmask 11010100
          -47 -41 4 6 -42 hvcurveto
          4 -38 38 -4 18 -11 24 -48 rlinecurve
          hintmask 11011000
          140 -720 rmoveto
          -90 callsubr
        </CharString>
        <CharString name="uni1EF5">
          -23 -234 103 -103 146 -135 -21 665 -20 28 -20 hstemhm
          261 167 hintmask 10010100
          423 352 rmoveto
          13 29 7 8 33 2 7 37 rcurveline
          -5 -54 -25 -2 -27 hhcurveto
          -22 -21 1 6 -42 hvcurveto
          2 -35 rlineto
          19 -2 34 -4 -18 vvcurveto
          -6 -1 -5 -2 -6 vhcurveto
          -86 -229 -88 225 rlineto
          -2 7 -2 9 5 vvcurveto
          15 37 6 14 4 vhcurveto
          hintmask 10001100
          4 35 rlineto
          hintmask 10010100
          -5 -56 -44 -3 -32 hhcurveto
          hintmask 01001100
          -29 -29 3 5 -50 hvcurveto
          7 -37 33 -4 6 -3 16 -37 rlinecurve
          153 -357 -34 -79 rlineto
          hintmask 10010100
          -28 -16 -27 -15 -29 hhcurveto
          -19 -16 8 10 -16 hvcurveto
          -23 -14 rlineto
          hintmask 00110100
          5 -30 16 -60 16 -27 rrcurveto
          17 hlineto
          69 48 44 61 26 hvcurveto
          48 -22 rmoveto
          hintmask 01010100
          -90 callsubr
        </CharString>
        <CharString name="uni1EF6">
          -23 -12 callsubr
          261 46 hstem
          286 95 vstem
          -104 callgsubr
          -12 696 -67 callgsubr
        </CharString>
        <CharString name="uni1EF7">
          -21 callgsubr
          230 46 hstemhm
          245 119 4 95 hintmask 10111100
          -57 callgsubr
          hintmask 01111100
          -8 callgsubr
          hintmask 10111100
          -105 callsubr
          203 196 -67 callgsubr
        </CharString>
        <CharString name="uogonek">
          62 -245 55 174 37 callsubr
          hstem
          78 120 56 90 3 120 vstem
          344 -143 rmoveto
          48 33 47 32 35 vhcurveto
          39 13 59 12 37 7 -8 34 -82 callsubr
          226 vlineto
          -103 callsubr
          -230 vlineto
          -19 -25 -34 -17 -25 hhcurveto
          -46 -19 29 66 hvcurveto
          166 vlineto
          -103 callsubr
          -191 vlineto
          -113 57 -38 91 32 41 22 48 51 vhcurveto
          -22 14 -19 16 -13 vhcurveto
          -72 -53 -54 -38 -60 -84 callsubr
          endchar
        </CharString>
        <CharString name="uring">
          62 -16 76 301 182 -106 -20 81 45 90 45 hstemhm
          78 120 -31 60 83 60 -23 120 hintmask 1011110010000000
          -28 callgsubr
          hintmask 1100110010000000
          0 19 7 16 -61 callgsubr
          vhcurveto
          -230 vlineto
          -19 -25 -34 -17 -25 hhcurveto
          -46 -19 29 66 hvcurveto
          166 vlineto
          -73 callgsubr
          hintmask 1011110100000000
          -20 23 rlineto
          -44 -95 -23 -20 -47 hvcurveto
          8 -40 rlineto
          hintmask 1100110010000000
          -63 callgsubr
          hintmask 1011101100000000
          -240 493 -86 callgsubr
          endchar
        </CharString>
        <CharString name="utilde">
          62 -16 76 301 244 -168 -20 140 48 48 -75 callsubr
          hintmask 10111110
          -266 462 -104 callsubr
          endchar
        </CharString>
        <CharString name="v">
          -24 12 -21 430 -20 28 -20 hstemhm
          hintmask 10100000
          248 150 rmoveto
          -78 198 -6 14 1 15 9 4 rlinecurve
          12 5 31 8 0 vvcurveto
          4 35 rlineto
          hintmask 11000000
          -5 -57 -39 -3 -32 hhcurveto
          hintmask 10100000
          -30 -32 2 6 -50 hvcurveto
          7 -37 36 -4 6 -9 13 -31 rlinecurve
          152 -357 rlineto
          73 hlineto
          151 353 15 34 6 9 36 4 rlinecurve
          7 37 rlineto
          hintmask 11000000
          -5 -42 -23 -2 -24 hhcurveto
          -26 -28 1 6 -48 hvcurveto
          2 -35 rlineto
          0 36 -3 11 -10 vhcurveto
          7 -6 -2 -18 -4 -9 -75 -195 rcurveline
          -7 -29 -6 1 rlineto
          endchar
        </CharString>
        <CharString name="w">
          11 callgsubr
          28 -20 hstemhm
          hintmask 11000000
          375 241 rmoveto
          91 -250 rlineto
          74 hlineto
          143 353 15 34 6 9 36 4 rlinecurve
          7 37 rlineto
          -5 -42 -23 -2 -24 hhcurveto
          -26 -28 1 6 -48 hvcurveto
          2 -35 rlineto
          0 36 -3 11 -10 vhcurveto
          7 -6 -2 -18 -4 -9 -68 -195 rcurveline
          -7 -29 -6 1 -6 26 -88 271 rlineto
          -74 hlineto
          -95 -269 -7 -29 -6 1 -6 26 -71 198 -5 14 1 15 8 4 rlinecurve
          12 5 31 8 0 vvcurveto
          hintmask 10100000
          4 35 rlineto
          hintmask 11000000
          -5 -57 -39 -3 -32 hhcurveto
          hintmask 10100000
          -30 -32 2 6 -50 hvcurveto
          7 -37 36 -4 6 -9 13 -31 rlinecurve
          145 -357 rlineto
          72 hlineto
          94 250 6 30 6 -1 rlineto
          endchar
        </CharString>
        <CharString name="wacute">
          11 callgsubr
          284 -20 hstem
          -96 callgsubr
          131 415 -92 callsubr
          endchar
        </CharString>
        <CharString name="wcircumflex">
          11 callgsubr
          277 -20 hstem
          -96 callgsubr
          116 224 -95 callgsubr
          endchar
        </CharString>
        <CharString name="wdieresis">
          11 callgsubr
          119 134 hstem
          204 8 callgsubr
          vstem
          -96 callgsubr
          -164 317 rmoveto
          -99 callgsubr
          223 hmoveto
          -99 callgsubr
          endchar
        </CharString>
        <CharString name="wgrave">
          11 callgsubr
          284 -20 hstem
          -96 callgsubr
          -103 388 -76 callgsubr
        </CharString>
        <CharString name="x">
          32 -69 callsubr
          392 29 8 -20 hstemhm
          hintmask 10100000
          87 74 rmoveto
          -25 -29 -29 -15 -31 -3 8 -36 rcurveline
          hintmask 01100000
          4 26 41 5 25 hhcurveto
          hintmask 10100000
          24 47 -5 -4 27 hvcurveto
          9 36 rlineto
          -13 3 -44 -4 callsubr
          7 5 10 8 9 vhcurveto
          71 85 72 -85 rlineto
          7 -8 5 -8 -6 vvcurveto
          -18 -46 -9 -12 -2 vhcurveto
          8 -36 rlineto
          hintmask 01100000
          4 28 63 5 30 hhcurveto
          hintmask 10100000
          33 62 -5 -4 31 hvcurveto
          8 36 -29 2 -21 13 -24 28 rlinecurve
          -135 160 96 117 27 32 15 11 29 2 rlinecurve
          4 36 rlineto
          -4 -26 -43 -3 -25 hhcurveto
          -24 -45 1 6 -26 hvcurveto
          2 -36 rlineto
          15 -3 32 0 -20 vvcurveto
          -5 -3 -9 -5 -7 vhcurveto
          -58 -76 -64 77 rlineto
          -5 6 -6 8 6 vvcurveto
          16 32 5 12 3 vhcurveto
          hintmask 10010000
          3 36 rlineto
          hintmask 10100000
          -4 -27 -68 -4 -30 hhcurveto
          hintmask 10010000
          -32 -63 4 4 -30 hvcurveto
          5 -36 27 -1 17 -9 25 -30 rlinecurve
          125 -149 rlineto
          endchar
        </CharString>
</ttFont>
